{
.appVersion = "1342";
copyright = "Copyright 2021 The Yuji Project Authors (https://github.com/Kinutafontfactory/Yuji)";
customParameters = (
{
name = panose;
value = (
2,
11,
6,
0,
0,
0,
0,
0,
0,
0
);
},
{
name = fsType;
value = (
);
},
{
name = localizedDesigner;
value = "Japanese;片岡佑之";
},
{
name = vendorID;
value = KDW;
},
{
name = license;
value = "This Font Software is licensed under the SIL Open Font License, Version 1.1. This license is available with a FAQ at: https://scripts.sil.org/OFL";
},
{
name = licenseURL;
value = "https://scripts.sil.org/OFL";
},
{
name = localizedFamilyName;
value = "Japanese;佑字 変体仮名 灯";
}
);
date = "2020-12-04 07:15:07 +0000";
designer = "Kataoka Yuji";
disablesAutomaticAlignment = 1;
familyName = "Yuji Hentaigana Akari";
featurePrefixes = (
{
automatic = 1;
code = "languagesystem DFLT dflt;\012";
name = Languagesystems;
},
{
code = "table BASE {\012  HorizAxis.BaseTagList                 icfb  icft  ideo  romn;\012  HorizAxis.BaseScriptList  DFLT  ideo   25  735   -120  0,\012                            hani  ideo   25  735   -120  0,\012                            kana  ideo   25  735   -120  0,\012                            latn  romn   25  735   -120  0,\012                            cyrl  romn   25  735   -120  0,\012                            grek  romn   25  735   -120  0;\012\012  VertAxis.BaseTagList                  icfb  icft  ideo  romn;\012  VertAxis.BaseScriptList   DFLT  ideo  145    855   0     120,\012                            hani  ideo  145    855   0     120,\012                            kana  ideo  145    855   0     120,\012                            latn  romn  145    855   0     120,\012                            cyrl  romn  145    855   0     120,\012                            grek  romn  145    855   0     120;\012} BASE;";
name = BASE;
}
);
features = (
{
automatic = 1;

glyphs = (
{
glyphname = "a-hira";
lastChange = "2020-12-04 08:10:26 +0000";
layers = (
{
hints = (
{
horizontal = 1;
place = "{193.5, 11.5}";
type = Stem;
},
{
horizontal = 1;
place = "{342, 49}";
type = Stem;
},
{
horizontal = 1;
place = "{622, 59}";
type = Stem;
},
{
place = "{156, 88}";
type = Stem;
},
{
place = "{391, 94}";
type = Stem;
},
{
place = "{552, 9}";
type = Stem;
},
{
place = "{753, 86}";
type = Stem;
}
);
layerId = "38E14F89-90D8-48C8-A96B-0BF2B2C9AEC9";
paths = (
{
closed = 1;
nodes = (
"564 -26 OFFCURVE",
"572 -24 OFFCURVE",
"580 -24 CURVE SMOOTH",
"591 -25 OFFCURVE",
"598 -25 OFFCURVE",
"601 -24 CURVE",
"595 -22 OFFCURVE",
"593 -19 OFFCURVE",
"596 -16 CURVE",
"600 -18 OFFCURVE",
"604 -19 OFFCURVE",
"609 -19 CURVE SMOOTH",
"620 -19 OFFCURVE",
"641 -9 OFFCURVE",
"648 -9 CURVE",
"650 -4 OFFCURVE",
"661 0 OFFCURVE",
"682 5 CURVE SMOOTH",
"703 10 OFFCURVE",
"719 18 OFFCURVE",
"729 27 CURVE",
"747 30 OFFCURVE",
"766 42 OFFCURVE",
"784 64 CURVE SMOOTH",
"830 118 LINE",
"829 119 OFFCURVE",
"827 119 OFFCURVE",
"826 119 CURVE SMOOTH",
"823 119 OFFCURVE",
"818 115 OFFCURVE",
"817 115 CURVE SMOOTH",
"816 115 OFFCURVE",
"816 116 OFFCURVE",
"816 118 CURVE",
"831 134 OFFCURVE",
"839 156 OFFCURVE",
"839 184 CURVE SMOOTH",
"839 226 OFFCURVE",
"827 266 OFFCURVE",
"802 304 CURVE",
"787 309 OFFCURVE",
"773 323 OFFCURVE",
"759 346 CURVE",
"745 346 LINE",
"731 363 OFFCURVE",
"710 374 OFFCURVE",
"681 381 CURVE SMOOTH",
"664 385 OFFCURVE",
"636 388 OFFCURVE",
"597 391 CURVE SMOOTH",
"579 392 OFFCURVE",
"554 391 OFFCURVE",
"522 388 CURVE SMOOTH",
"491 385 OFFCURVE",
"469 383 OFFCURVE",
"456 384 CURVE",
"467 390 OFFCURVE",
"472 397 OFFCURVE",
"471 405 CURVE",
"472 409 OFFCURVE",
"471 411 OFFCURVE",
"469 411 CURVE",
"469 411 OFFCURVE",
"466 410 OFFCURVE",
"461 407 CURVE",
"458 404 OFFCURVE",
"456 405 OFFCURVE",
"456 408 CURVE SMOOTH",
"455 415 OFFCURVE",
"471 414 OFFCURVE",
"471 418 CURVE SMOOTH",
"474 444 OFFCURVE",
"496 457 OFFCURVE",
"539 457 CURVE SMOOTH",
"556 457 OFFCURVE",
"568 455 OFFCURVE",
"576 451 CURVE",
"673 472 OFFCURVE",
"733 522 OFFCURVE",
"758 599 CURVE",
"738 652 OFFCURVE",
"670 681 OFFCURVE",
"582 681 CURVE SMOOTH",
"560 681 OFFCURVE",
"538 679 OFFCURVE",
"515 675 CURVE",
"514 706 OFFCURVE",
"510 728 OFFCURVE",
"504 741 CURVE SMOOTH",
"495 760 OFFCURVE",
"480 770 OFFCURVE",
"458 770 CURVE",
"449 756 OFFCURVE",
"441 737 OFFCURVE",
"433 712 CURVE SMOOTH",
"413 646 LINE",
"398 645 OFFCURVE",
"367 632 OFFCURVE",
"319 608 CURVE SMOOTH",
"266 582 OFFCURVE",
"226 565 OFFCURVE",
"199 558 CURVE",
"198 556 OFFCURVE",
"197 554 OFFCURVE",
"197 552 CURVE SMOOTH",
"197 549 OFFCURVE",
"203 542 OFFCURVE",
"200 537 CURVE",
"257 504 LINE SMOOTH",
"281 490 OFFCURVE",
"304 486 OFFCURVE",
"323 488 CURVE SMOOTH",
"330 489 OFFCURVE",
"340 495 OFFCURVE",
"353 506 CURVE SMOOTH",
"366 518 OFFCURVE",
"378 524 OFFCURVE",
"387 523 CURVE",
"390 517 OFFCURVE",
"391 510 OFFCURVE",
"391 501 CURVE SMOOTH",
"391 492 OFFCURVE",
"389 477 OFFCURVE",
"384 457 CURVE SMOOTH",
"380 438 OFFCURVE",
"378 424 OFFCURVE",
"378 416 CURVE SMOOTH",
"378 405 OFFCURVE",
"381 396 OFFCURVE",
"386 390 CURVE",
"377 371 OFFCURVE",
"373 358 OFFCURVE",
"373 353 CURVE SMOOTH",
"373 348 OFFCURVE",
"374 344 OFFCURVE",
"376 341 CURVE",
"312 306 OFFCURVE",
"266 277 OFFCURVE",
"238 252 CURVE SMOOTH",
"194 212 OFFCURVE",
"167 164 OFFCURVE",
"156 108 CURVE",
"160 85 OFFCURVE",
"172 68 OFFCURVE",
"193 53 CURVE SMOOTH",
"244 17 LINE",
"250 26 OFFCURVE",
"263 32 OFFCURVE",
"284 35 CURVE SMOOTH",
"300 38 OFFCURVE",
"316 40 OFFCURVE",
"332 42 CURVE",
"348 51 OFFCURVE",
"359 58 OFFCURVE",
"364 63 CURVE",
"373 66 OFFCURVE",
"385 69 OFFCURVE",
"400 71 CURVE SMOOTH",
"413 72 OFFCURVE",
"426 77 OFFCURVE",
"437 84 CURVE",
"447 61 OFFCURVE",
"467 50 OFFCURVE",
"498 50 CURVE SMOOTH",
"543 50 OFFCURVE",
"585 80 OFFCURVE",
"584 127 CURVE",
"569 145 OFFCURVE",
"562 168 OFFCURVE",
"561 196 CURVE SMOOTH",
"560 224 OFFCURVE",
"567 252 OFFCURVE",
"582 280 CURVE SMOOTH",
"597 309 OFFCURVE",
"615 329 OFFCURVE",
"636 342 CURVE",
"701 342 OFFCURVE",
"753 297 OFFCURVE",
"753 241 CURVE SMOOTH",
"753 229 OFFCURVE",
"750 217 OFFCURVE",
"745 205 CURVE",
"749 204 OFFCURVE",
"751 202 OFFCURVE",
"751 200 CURVE SMOOTH",
"751 198 OFFCURVE",
"749 196 OFFCURVE",
"746 195 CURVE",
"751 192 OFFCURVE",
"755 191 OFFCURVE",
"760 192 CURVE",
"754 187 OFFCURVE",
"751 180 OFFCURVE",
"750 171 CURVE SMOOTH",
"748 156 OFFCURVE",
"747 147 OFFCURVE",
"746 145 CURVE",
"742 145 OFFCURVE",
"743 161 OFFCURVE",
"736 160 CURVE",
"731 147 OFFCURVE",
"727 128 OFFCURVE",
"710 129 CURVE",
"710 111 LINE",
"701 104 OFFCURVE",
"690 99 OFFCURVE",
"676 96 CURVE",
"669 75 OFFCURVE",
"654 58 OFFCURVE",
"632 44 CURVE SMOOTH",
"599 23 OFFCURVE",
"581 11 OFFCURVE",
"578 8 CURVE",
"557 5 OFFCURVE",
"538 -2 OFFCURVE",
"521 -13 CURVE",
"536 -22 OFFCURVE",
"548 -28 OFFCURVE",
"557 -31 CURVE"
);
},
{
closed = 1;
nodes = (
"259 108 OFFCURVE",
"251 109 OFFCURVE",
"244 112 CURVE",
"251 145 OFFCURVE",
"268 175 OFFCURVE",
"295 201 CURVE",
"373 263 LINE",
"378 259 OFFCURVE",
"382 246 OFFCURVE",
"388 223 CURVE SMOOTH",
"393 201 OFFCURVE",
"396 185 OFFCURVE",
"394 176 CURVE SMOOTH",
"391 160 OFFCURVE",
"372 143 OFFCURVE",
"339 126 CURVE SMOOTH",
"316 114 OFFCURVE",
"293 108 OFFCURVE",
"269 108 CURVE SMOOTH"
);
},
{
closed = 1;
nodes = (
"487 115 OFFCURVE",
"482 125 OFFCURVE",
"482 134 CURVE SMOOTH",
"482 141 OFFCURVE",
"484 147 OFFCURVE",
"488 153 CURVE SMOOTH",
"513 184 OFFCURVE",
"533 208 OFFCURVE",
"549 225 CURVE",
"551 219 OFFCURVE",
"552 212 OFFCURVE",
"552 204 CURVE SMOOTH",
"552 164 OFFCURVE",
"527 118 OFFCURVE",
"496 106 CURVE"
);
},
{
closed = 1;
nodes = (
"457 248 OFFCURVE",
"455 257 OFFCURVE",
"447 260 CURVE",
"448 265 OFFCURVE",
"452 266 OFFCURVE",
"457 264 CURVE",
"453 273 OFFCURVE",
"451 280 OFFCURVE",
"451 286 CURVE SMOOTH",
"451 294 OFFCURVE",
"454 301 OFFCURVE",
"461 306 CURVE SMOOTH",
"474 316 OFFCURVE",
"496 325 OFFCURVE",
"528 334 CURVE",
"519 296 OFFCURVE",
"494 262 OFFCURVE",
"454 232 CURVE"
);
},
{
closed = 1;
nodes = (
"482 492 OFFCURVE",
"484 507 OFFCURVE",
"491 517 CURVE",
"488 538 OFFCURVE",
"492 559 OFFCURVE",
"505 580 CURVE",
"572 607 LINE SMOOTH",
"597 617 OFFCURVE",
"622 622 OFFCURVE",
"647 622 CURVE SMOOTH",
"656 622 OFFCURVE",
"665 621 OFFCURVE",
"674 620 CURVE",
"643 558 OFFCURVE",
"580 508 OFFCURVE",
"485 471 CURVE"
);
}
);
vertWidth = 1000;
width = 1000;
}
);
note = cid00843;
unicode = 3042;
},
{
glyphname = "i-hira";
lastChange = "2020-12-04 08:10:26 +0000";
layers = (
{
hints = (
{
horizontal = 1;
place = "{220, 64}";
type = Stem;
},
{
place = "{728, 103}";
type = Stem;
}
);
layerId = "38E14F89-90D8-48C8-A96B-0BF2B2C9AEC9";
paths = (
{
closed = 1;
nodes = (
"740 57 OFFCURVE",
"742 69 OFFCURVE",
"746 69 CURVE",
"784 76 OFFCURVE",
"820 93 OFFCURVE",
"854 120 CURVE SMOOTH",
"891 149 OFFCURVE",
"916 183 OFFCURVE",
"929 221 CURVE",
"922 263 OFFCURVE",
"880 284 OFFCURVE",
"804 284 CURVE SMOOTH",
"794 284 OFFCURVE",
"779 284 OFFCURVE",
"760 283 CURVE SMOOTH",
"741 282 OFFCURVE",
"727 282 OFFCURVE",
"719 282 CURVE",
"727 289 OFFCURVE",
"734 294 OFFCURVE",
"740 296 CURVE",
"732 296 OFFCURVE",
"728 298 OFFCURVE",
"729 303 CURVE",
"730 303 OFFCURVE",
"733 302 OFFCURVE",
"738 300 CURVE SMOOTH",
"741 299 OFFCURVE",
"743 300 OFFCURVE",
"746 303 CURVE",
"743 309 OFFCURVE",
"744 313 OFFCURVE",
"749 316 CURVE",
"745 327 OFFCURVE",
"755 330 OFFCURVE",
"763 337 CURVE",
"761 348 OFFCURVE",
"764 360 OFFCURVE",
"772 373 CURVE SMOOTH",
"785 392 OFFCURVE",
"792 404 OFFCURVE",
"793 408 CURVE SMOOTH",
"797 429 OFFCURVE",
"799 446 OFFCURVE",
"800 458 CURVE",
"820 513 LINE SMOOTH",
"828 535 OFFCURVE",
"831 554 OFFCURVE",
"831 570 CURVE SMOOTH",
"831 578 OFFCURVE",
"830 586 OFFCURVE",
"828 594 CURVE SMOOTH",
"823 613 OFFCURVE",
"810 630 OFFCURVE",
"789 644 CURVE SMOOTH",
"778 651 OFFCURVE",
"757 662 OFFCURVE",
"726 675 CURVE",
"719 674 OFFCURVE",
"720 662 OFFCURVE",
"715 658 CURVE",
"724 639 OFFCURVE",
"728 614 OFFCURVE",
"728 585 CURVE SMOOTH",
"728 546 OFFCURVE",
"720 497 OFFCURVE",
"705 438 CURVE",
"677 360 OFFCURVE",
"655 303 OFFCURVE",
"638 268 CURVE",
"641 254 OFFCURVE",
"650 242 OFFCURVE",
"665 231 CURVE SMOOTH",
"702 204 LINE",
"717 204 OFFCURVE",
"734 207 OFFCURVE",
"755 212 CURVE SMOOTH",
"776 217 OFFCURVE",
"789 220 OFFCURVE",
"794 220 CURVE SMOOTH",
"798 220 OFFCURVE",
"801 219 OFFCURVE",
"804 218 CURVE",
"761 165 OFFCURVE",
"719 128 OFFCURVE",
"680 107 CURVE",
"674 106 OFFCURVE",
"664 96 OFFCURVE",
"651 79 CURVE",
"684 78 OFFCURVE",
"712 71 OFFCURVE",
"735 58 CURVE"
);
},
{
closed = 1;
nodes = (
"206 176 OFFCURVE",
"224 194 OFFCURVE",
"235 225 CURVE",
"256 316 LINE SMOOTH",
"264 351 OFFCURVE",
"282 374 OFFCURVE",
"306 384 CURVE",
"309 359 OFFCURVE",
"310 340 OFFCURVE",
"309 327 CURVE",
"310 303 OFFCURVE",
"321 282 OFFCURVE",
"340 264 CURVE SMOOTH",
"359 247 OFFCURVE",
"381 238 OFFCURVE",
"405 238 CURVE SMOOTH",
"432 238 OFFCURVE",
"446 251 OFFCURVE",
"446 276 CURVE SMOOTH",
"446 284 OFFCURVE",
"444 293 OFFCURVE",
"441 303 CURVE",
"445 310 OFFCURVE",
"446 316 OFFCURVE",
"445 321 CURVE SMOOTH",
"441 340 LINE",
"445 369 OFFCURVE",
"463 407 OFFCURVE",
"494 454 CURVE SMOOTH",
"507 474 OFFCURVE",
"522 495 OFFCURVE",
"539 516 CURVE",
"523 499 OFFCURVE",
"498 471 OFFCURVE",
"465 430 CURVE SMOOTH",
"434 392 OFFCURVE",
"409 364 OFFCURVE",
"390 346 CURVE",
"357 386 LINE",
"343 400 OFFCURVE",
"327 408 OFFCURVE",
"309 411 CURVE",
"258 346 OFFCURVE",
"215 301 OFFCURVE",
"180 276 CURVE",
"171 291 OFFCURVE",
"162 305 OFFCURVE",
"151 320 CURVE SMOOTH",
"140 335 OFFCURVE",
"125 345 OFFCURVE",
"109 350 CURVE",
"99 337 OFFCURVE",
"94 317 OFFCURVE",
"94 290 CURVE SMOOTH",
"94 251 OFFCURVE",
"102 221 OFFCURVE",
"119 201 CURVE",
"124 198 OFFCURVE",
"129 195 OFFCURVE",
"133 194 CURVE",
"146 175 OFFCURVE",
"162 168 OFFCURVE",
"180 171 CURVE SMOOTH"
);
}
);
vertWidth = 1000;
width = 1000;
}
);
note = cid00845;
unicode = 3044;
},
{
glyphname = "u-hira";
lastChange = "2020-12-04 08:10:26 +0000";
layers = (
{
hints = (
{
horizontal = 1;
place = "{171, 78}";
type = Stem;
},
{
horizontal = 1;
place = "{434, 93}";
type = Stem;
},
{
horizontal = 1;
place = "{565, 62}";
type = Stem;
},
{
horizontal = 1;
place = "{668, 102}";
type = Stem;
},
{
place = "{500, 73}";
type = Stem;
},
{
place = "{497, 86}";
type = Stem;
}
);
layerId = "38E14F89-90D8-48C8-A96B-0BF2B2C9AEC9";
paths = (
{
closed = 1;
nodes = (
"571 -69 OFFCURVE",
"583 -31 OFFCURVE",
"583 40 CURVE SMOOTH",
"583 99 OFFCURVE",
"582 141 OFFCURVE",
"581 167 CURVE",
"605 172 OFFCURVE",
"622 172 OFFCURVE",
"631 167 CURVE",
"634 164 OFFCURVE",
"635 160 OFFCURVE",
"635 156 CURVE SMOOTH",
"635 147 OFFCURVE",
"616 126 OFFCURVE",
"616 119 CURVE SMOOTH",
"616 118 OFFCURVE",
"616 116 OFFCURVE",
"617 115 CURVE",
"630 120 OFFCURVE",
"643 122 OFFCURVE",
"656 122 CURVE SMOOTH",
"673 122 OFFCURVE",
"705 115 OFFCURVE",
"714 115 CURVE",
"740 129 OFFCURVE",
"753 145 OFFCURVE",
"753 163 CURVE SMOOTH",
"753 188 OFFCURVE",
"734 209 OFFCURVE",
"696 227 CURVE SMOOTH",
"665 241 OFFCURVE",
"635 249 OFFCURVE",
"607 249 CURVE SMOOTH",
"595 249 OFFCURVE",
"584 248 OFFCURVE",
"573 245 CURVE",
"570 272 OFFCURVE",
"575 296 OFFCURVE",
"586 316 CURVE SMOOTH",
"592 326 OFFCURVE",
"606 342 OFFCURVE",
"627 364 CURVE",
"620 391 OFFCURVE",
"595 414 OFFCURVE",
"551 431 CURVE",
"575 451 OFFCURVE",
"610 460 OFFCURVE",
"657 457 CURVE",
"656 453 OFFCURVE",
"642 454 OFFCURVE",
"642 449 CURVE",
"751 474 OFFCURVE",
"826 495 OFFCURVE",
"867 513 CURVE",
"870 517 OFFCURVE",
"871 521 OFFCURVE",
"871 524 CURVE SMOOTH",
"871 528 OFFCURVE",
"864 540 OFFCURVE",
"867 549 CURVE",
"844 592 OFFCURVE",
"789 617 OFFCURVE",
"703 624 CURVE SMOOTH",
"680 626 OFFCURVE",
"658 627 OFFCURVE",
"636 627 CURVE SMOOTH",
"556 627 OFFCURVE",
"464 615 OFFCURVE",
"362 583 CURVE SMOOTH",
"249 547 LINE SMOOTH",
"206 533 OFFCURVE",
"172 528 OFFCURVE",
"147 527 CURVE SMOOTH",
"132 527 OFFCURVE",
"120 528 OFFCURVE",
"109 531 CURVE",
"122 509 OFFCURVE",
"140 489 OFFCURVE",
"163 470 CURVE SMOOTH",
"190 449 OFFCURVE",
"217 437 OFFCURVE",
"243 434 CURVE SMOOTH",
"266 432 OFFCURVE",
"293 438 OFFCURVE",
"319 454 CURVE SMOOTH",
"384 494 LINE",
"499 547 OFFCURVE",
"615 571 OFFCURVE",
"733 565 CURVE",
"688 535 OFFCURVE",
"629 500 OFFCURVE",
"556 464 CURVE SMOOTH",
"370 372 LINE",
"369 351 OFFCURVE",
"372 333 OFFCURVE",
"379 317 CURVE SMOOTH",
"387 298 OFFCURVE",
"398 288 OFFCURVE",
"413 286 CURVE SMOOTH",
"425 285 OFFCURVE",
"440 288 OFFCURVE",
"458 299 CURVE SMOOTH",
"481 313 OFFCURVE",
"495 322 OFFCURVE",
"500 323 CURVE",
"501 286 OFFCURVE",
"501 259 OFFCURVE",
"500 242 CURVE",
"460 231 OFFCURVE",
"420 223 OFFCURVE",
"381 211 CURVE SMOOTH",
"330 196 OFFCURVE",
"306 167 OFFCURVE",
"306 130 CURVE SMOOTH",
"306 119 OFFCURVE",
"308 106 OFFCURVE",
"312 93 CURVE",
"337 78 OFFCURVE",
"357 68 OFFCURVE",
"370 63 CURVE",
"385 52 OFFCURVE",
"403 32 OFFCURVE",
"425 3 CURVE SMOOTH",
"447 -26 OFFCURVE",
"464 -45 OFFCURVE",
"475 -53 CURVE SMOOTH",
"484 -59 OFFCURVE",
"496 -65 OFFCURVE",
"512 -70 CURVE SMOOTH",
"529 -75 OFFCURVE",
"541 -77 OFFCURVE",
"548 -75 CURVE SMOOTH"
);
},
{
closed = 1;
nodes = (
"458 64 OFFCURVE",
"442 75 OFFCURVE",
"441 76 CURVE SMOOTH",
"423 88 OFFCURVE",
"410 103 OFFCURVE",
"402 118 CURVE",
"412 127 OFFCURVE",
"426 134 OFFCURVE",
"445 140 CURVE SMOOTH",
"455 143 OFFCURVE",
"472 147 OFFCURVE",
"497 152 CURVE",
"497 112 OFFCURVE",
"494 76 OFFCURVE",
"489 44 CURVE"
);
},
{
closed = 1;
nodes = (
"424 652 OFFCURVE",
"438 661 OFFCURVE",
"455 665 CURVE SMOOTH",
"464 668 OFFCURVE",
"491 669 OFFCURVE",
"536 668 CURVE SMOOTH",
"571 667 OFFCURVE",
"595 673 OFFCURVE",
"606 684 CURVE",
"595 741 OFFCURVE",
"549 770 OFFCURVE",
"468 770 CURVE SMOOTH",
"444 770 OFFCURVE",
"419 767 OFFCURVE",
"392 762 CURVE",
"391 751 OFFCURVE",
"398 738 OFFCURVE",
"413 725 CURVE SMOOTH",
"453 691 LINE",
"445 684 OFFCURVE",
"437 676 OFFCURVE",
"428 669 CURVE SMOOTH",
"417 659 OFFCURVE",
"412 651 OFFCURVE",
"412 644 CURVE SMOOTH",
"412 642 OFFCURVE",
"412 640 OFFCURVE",
"413 638 CURVE"
);
}
);
vertWidth = 1000;
width = 1000;
}
);
note = cid00847;
unicode = 3046;
},
{
glyphname = "e-hira";
lastChange = "2020-12-04 08:10:26 +0000";
layers = (
{
hints = (
{
horizontal = 1;
place = "{-5, 7}";
type = Stem;
},
{
horizontal = 1;
place = "{61, 72}";
type = Stem;
},
{
horizontal = 1;
place = "{449, 71}";
type = Stem;
},
{
horizontal = 1;
place = "{685, 86}";
type = Stem;
},
{
place = "{246, 503}";
type = Stem;
},
{
horizontal = 1;
place = "{-52, 40}";
type = Stem;
},
{
place = "{329, 114}";
type = Stem;
}
);
layerId = "38E14F89-90D8-48C8-A96B-0BF2B2C9AEC9";
paths = (
{
closed = 1;
nodes = (
"597 -54 OFFCURVE",
"609 -44 OFFCURVE",
"634 -25 CURVE SMOOTH",
"650 -13 OFFCURVE",
"667 -6 OFFCURVE",
"684 -5 CURVE",
"677 2 LINE",
"684 3 OFFCURVE",
"686 -5 OFFCURVE",
"690 -5 CURVE",
"693 2 OFFCURVE",
"703 9 OFFCURVE",
"718 16 CURVE SMOOTH",
"734 24 OFFCURVE",
"744 32 OFFCURVE",
"749 40 CURVE",
"745 69 OFFCURVE",
"727 92 OFFCURVE",
"695 107 CURVE SMOOTH",
"680 114 OFFCURVE",
"651 123 OFFCURVE",
"607 133 CURVE SMOOTH",
"566 142 OFFCURVE",
"534 146 OFFCURVE",
"509 144 CURVE",
"508 187 OFFCURVE",
"504 219 OFFCURVE",
"495 241 CURVE SMOOTH",
"484 270 OFFCURVE",
"464 291 OFFCURVE",
"435 302 CURVE",
"444 309 OFFCURVE",
"445 316 OFFCURVE",
"439 323 CURVE",
"442 327 OFFCURVE",
"461 340 OFFCURVE",
"461 345 CURVE SMOOTH",
"461 347 OFFCURVE",
"460 349 OFFCURVE",
"457 351 CURVE",
"457 353 OFFCURVE",
"458 354 OFFCURVE",
"460 355 CURVE",
"461 355 OFFCURVE",
"464 355 OFFCURVE",
"468 354 CURVE SMOOTH",
"471 353 OFFCURVE",
"474 353 OFFCURVE",
"475 354 CURVE",
"474 357 OFFCURVE",
"474 359 OFFCURVE",
"474 361 CURVE SMOOTH",
"474 368 OFFCURVE",
"487 369 OFFCURVE",
"490 372 CURVE SMOOTH",
"495 377 OFFCURVE",
"502 387 OFFCURVE",
"511 404 CURVE SMOOTH",
"520 419 OFFCURVE",
"528 429 OFFCURVE",
"534 434 CURVE",
"539 436 OFFCURVE",
"544 437 OFFCURVE",
"548 437 CURVE",
"555 444 OFFCURVE",
"569 461 OFFCURVE",
"588 488 CURVE SMOOTH",
"620 532 OFFCURVE",
"647 543 OFFCURVE",
"647 560 CURVE SMOOTH",
"647 574 OFFCURVE",
"624 592 OFFCURVE",
"578 613 CURVE",
"515 584 OFFCURVE",
"466 563 OFFCURVE",
"433 552 CURVE SMOOTH",
"370 531 OFFCURVE",
"308 521 OFFCURVE",
"246 520 CURVE",
"258 473 OFFCURVE",
"298 449 OFFCURVE",
"366 449 CURVE SMOOTH",
"396 449 OFFCURVE",
"425 454 OFFCURVE",
"454 464 CURVE",
"448 442 OFFCURVE",
"438 424 OFFCURVE",
"425 409 CURVE",
"411 411 OFFCURVE",
"402 397 OFFCURVE",
"398 367 CURVE",
"388 368 OFFCURVE",
"378 360 OFFCURVE",
"369 343 CURVE SMOOTH",
"348 305 LINE",
"345 301 OFFCURVE",
"341 298 OFFCURVE",
"335 297 CURVE SMOOTH",
"332 296 OFFCURVE",
"330 294 OFFCURVE",
"329 289 CURVE SMOOTH",
"326 260 OFFCURVE",
"359 241 OFFCURVE",
"406 240 CURVE",
"405 113 OFFCURVE",
"472 54 OFFCURVE",
"600 61 CURVE SMOOTH",
"603 61 OFFCURVE",
"616 68 OFFCURVE",
"624 68 CURVE SMOOTH",
"628 68 OFFCURVE",
"632 67 OFFCURVE",
"636 64 CURVE",
"575 21 OFFCURVE",
"517 -4 OFFCURVE",
"464 -12 CURVE",
"493 -21 OFFCURVE",
"507 -32 OFFCURVE",
"504 -46 CURVE",
"549 -55 OFFCURVE",
"578 -54 OFFCURVE",
"593 -43 CURVE",
"590 -49 OFFCURVE",
"591 -53 OFFCURVE",
"596 -54 CURVE SMOOTH"
);
},
{
closed = 1;
nodes = (
"518 672 OFFCURVE",
"535 683 OFFCURVE",
"544 692 CURVE",
"557 687 OFFCURVE",
"573 685 OFFCURVE",
"593 685 CURVE SMOOTH",
"628 685 OFFCURVE",
"653 691 OFFCURVE",
"669 702 CURVE",
"666 737 OFFCURVE",
"646 758 OFFCURVE",
"611 766 CURVE SMOOTH",
"593 770 OFFCURVE",
"568 772 OFFCURVE",
"536 771 CURVE SMOOTH",
"501 770 OFFCURVE",
"476 770 OFFCURVE",
"461 772 CURVE",
"470 747 OFFCURVE",
"494 722 OFFCURVE",
"534 699 CURVE",
"520 689 OFFCURVE",
"507 675 OFFCURVE",
"494 658 CURVE"
);
}
);
vertWidth = 1000;
width = 1000;
}
);
note = cid00849;
unicode = 3048;
},
{
glyphname = "o-hira";
lastChange = "2020-12-04 08:10:26 +0000";
layers = (
{
hints = (
{
horizontal = 1;
place = "{434, 10}";
type = Stem;
},
{
place = "{310, 73}";
type = Stem;
},
{
place = "{304, 84}";
type = Stem;
},
{
place = "{314, 84}";
type = Stem;
}
);
layerId = "38E14F89-90D8-48C8-A96B-0BF2B2C9AEC9";
paths = (
{
closed = 1;
nodes = (
"379 -56 OFFCURVE",
"389 -52 OFFCURVE",
"398 -44 CURVE",
"388 7 OFFCURVE",
"383 44 OFFCURVE",
"383 68 CURVE SMOOTH",
"383 84 OFFCURVE",
"385 98 OFFCURVE",
"388 109 CURVE",
"379 120 OFFCURVE",
"377 128 OFFCURVE",
"382 135 CURVE",
"383 130 OFFCURVE",
"385 127 OFFCURVE",
"388 126 CURVE",
"390 133 OFFCURVE",
"389 138 OFFCURVE",
"385 141 CURVE",
"381 142 OFFCURVE",
"377 144 OFFCURVE",
"374 146 CURVE",
"386 253 LINE SMOOTH",
"391 301 OFFCURVE",
"408 337 OFFCURVE",
"429 362 CURVE",
"430 383 OFFCURVE",
"444 407 OFFCURVE",
"471 433 CURVE SMOOTH",
"500 462 OFFCURVE",
"516 482 OFFCURVE",
"520 495 CURVE",
"506 482 OFFCURVE",
"496 473 OFFCURVE",
"491 467 CURVE SMOOTH",
"439 408 LINE SMOOTH",
"419 385 OFFCURVE",
"402 367 OFFCURVE",
"388 356 CURVE",
"383 376 OFFCURVE",
"386 397 OFFCURVE",
"398 420 CURVE",
"401 423 OFFCURVE",
"413 431 OFFCURVE",
"434 443 CURVE SMOOTH",
"449 452 OFFCURVE",
"458 461 OFFCURVE",
"463 472 CURVE",
"458 483 OFFCURVE",
"448 494 OFFCURVE",
"433 505 CURVE SMOOTH",
"410 522 OFFCURVE",
"399 531 OFFCURVE",
"398 532 CURVE",
"397 549 OFFCURVE",
"401 572 OFFCURVE",
"411 602 CURVE SMOOTH",
"421 633 OFFCURVE",
"426 652 OFFCURVE",
"426 661 CURVE SMOOTH",
"425 694 OFFCURVE",
"400 726 OFFCURVE",
"351 756 CURVE",
"345 745 OFFCURVE",
"339 738 OFFCURVE",
"334 735 CURVE",
"334 726 OFFCURVE",
"331 708 OFFCURVE",
"326 682 CURVE SMOOTH",
"321 657 OFFCURVE",
"319 637 OFFCURVE",
"319 624 CURVE SMOOTH",
"319 611 OFFCURVE",
"321 600 OFFCURVE",
"324 590 CURVE",
"317 580 OFFCURVE",
"314 563 OFFCURVE",
"314 538 CURVE SMOOTH",
"313 510 OFFCURVE",
"312 492 OFFCURVE",
"310 485 CURVE",
"218 444 LINE SMOOTH",
"181 427 OFFCURVE",
"147 416 OFFCURVE",
"117 411 CURVE",
"124 400 OFFCURVE",
"141 387 OFFCURVE",
"166 374 CURVE SMOOTH",
"172 371 OFFCURVE",
"192 361 OFFCURVE",
"226 346 CURVE",
"304 376 LINE",
"307 357 OFFCURVE",
"308 341 OFFCURVE",
"307 329 CURVE",
"264 262 OFFCURVE",
"234 214 OFFCURVE",
"219 187 CURVE SMOOTH",
"210 171 OFFCURVE",
"199 155 OFFCURVE",
"190 140 CURVE SMOOTH",
"176 117 OFFCURVE",
"170 102 OFFCURVE",
"169 96 CURVE SMOOTH",
"168 87 OFFCURVE",
"172 77 OFFCURVE",
"180 67 CURVE SMOOTH",
"187 60 OFFCURVE",
"193 52 OFFCURVE",
"199 44 CURVE",
"223 50 OFFCURVE",
"239 65 OFFCURVE",
"246 88 CURVE",
"257 90 OFFCURVE",
"268 99 OFFCURVE",
"278 115 CURVE SMOOTH",
"288 132 OFFCURVE",
"299 141 OFFCURVE",
"310 143 CURVE",
"310 78 LINE SMOOTH",
"310 49 OFFCURVE",
"305 27 OFFCURVE",
"297 11 CURVE",
"310 -25 OFFCURVE",
"340 -56 OFFCURVE",
"369 -56 CURVE SMOOTH"
);
},
{
closed = 1;
nodes = (
"780 81 OFFCURVE",
"794 84 OFFCURVE",
"811 91 CURVE SMOOTH",
"828 98 OFFCURVE",
"841 101 OFFCURVE",
"849 102 CURVE",
"841 129 OFFCURVE",
"824 151 OFFCURVE",
"798 168 CURVE SMOOTH",
"782 179 OFFCURVE",
"756 192 OFFCURVE",
"720 207 CURVE",
"693 244 OFFCURVE",
"665 267 OFFCURVE",
"636 278 CURVE",
"630 271 OFFCURVE",
"625 268 OFFCURVE",
"622 268 CURVE",
"619 263 OFFCURVE",
"618 257 OFFCURVE",
"618 250 CURVE SMOOTH",
"618 227 OFFCURVE",
"631 202 OFFCURVE",
"653 170 CURVE SMOOTH",
"683 126 LINE",
"700 116 OFFCURVE",
"713 109 OFFCURVE",
"724 105 CURVE",
"730 91 LINE",
"743 84 OFFCURVE",
"756 81 OFFCURVE",
"769 81 CURVE SMOOTH"
);
},
{
closed = 1;
nodes = (
"731 438 OFFCURVE",
"753 449 OFFCURVE",
"788 452 CURVE SMOOTH",
"829 455 OFFCURVE",
"856 462 OFFCURVE",
"869 472 CURVE",
"872 479 OFFCURVE",
"873 486 OFFCURVE",
"873 493 CURVE SMOOTH",
"873 506 OFFCURVE",
"862 530 OFFCURVE",
"863 542 CURVE",
"820 570 OFFCURVE",
"769 584 OFFCURVE",
"708 585 CURVE SMOOTH",
"677 585 OFFCURVE",
"654 579 OFFCURVE",
"639 566 CURVE",
"646 545 OFFCURVE",
"662 532 OFFCURVE",
"687 525 CURVE SMOOTH",
"724 515 OFFCURVE",
"746 508 OFFCURVE",
"751 505 CURVE",
"751 485 OFFCURVE",
"725 461 OFFCURVE",
"724 444 CURVE",
"710 442 OFFCURVE",
"704 435 OFFCURVE",
"707 424 CURVE",
"715 423 OFFCURVE",
"720 434 OFFCURVE",
"727 434 CURVE",
"723 429 OFFCURVE",
"721 426 OFFCURVE",
"721 423 CURVE SMOOTH",
"721 421 OFFCURVE",
"722 420 OFFCURVE",
"724 420 CURVE"
);
}
);
vertWidth = 1000;
width = 1000;
}
);
note = cid00851;
unicode = 304A;
},
{
glyphname = "ka-hira";
lastChange = "2020-12-04 08:10:26 +0000";
layers = (
{
hints = (
{
horizontal = 1;
place = "{214, 9}";
type = Stem;
},
{
horizontal = 1;
place = "{432, 42}";
type = Stem;
},
{
place = "{176, 58}";
type = Stem;
},
{
place = "{426, 85}";
type = Stem;
},
{
place = "{696, 9}";
type = Stem;
},
{
place = "{828, 106}";
type = Stem;
},
{
place = "{578, 121}";
type = Stem;
},
{
horizontal = 1;
place = "{38, 124}";
type = Stem;
}
);
layerId = "38E14F89-90D8-48C8-A96B-0BF2B2C9AEC9";
paths = (
{
closed = 1;
nodes = (
"361 38 OFFCURVE",
"394 54 OFFCURVE",
"409 55 CURVE",
"415 73 OFFCURVE",
"422 88 OFFCURVE",
"431 100 CURVE",
"436 99 OFFCURVE",
"440 99 OFFCURVE",
"441 100 CURVE SMOOTH",
"488 170 OFFCURVE",
"511 261 OFFCURVE",
"511 373 CURVE SMOOTH",
"511 424 OFFCURVE",
"505 472 OFFCURVE",
"493 516 CURVE",
"444 549 OFFCURVE",
"398 570 OFFCURVE",
"354 578 CURVE",
"357 589 OFFCURVE",
"358 601 OFFCURVE",
"358 612 CURVE SMOOTH",
"358 659 OFFCURVE",
"342 695 OFFCURVE",
"309 720 CURVE",
"306 697 OFFCURVE",
"299 670 OFFCURVE",
"288 637 CURVE SMOOTH",
"275 600 OFFCURVE",
"266 574 OFFCURVE",
"263 558 CURVE",
"220 535 OFFCURVE",
"186 518 OFFCURVE",
"163 507 CURVE",
"145 496 OFFCURVE",
"127 484 OFFCURVE",
"110 472 CURVE SMOOTH",
"90 459 OFFCURVE",
"71 452 OFFCURVE",
"54 449 CURVE",
"107 410 OFFCURVE",
"140 388 OFFCURVE",
"154 381 CURVE",
"160 382 OFFCURVE",
"171 391 OFFCURVE",
"186 407 CURVE SMOOTH",
"201 424 OFFCURVE",
"213 432 OFFCURVE",
"221 433 CURVE",
"210 396 OFFCURVE",
"204 373 OFFCURVE",
"204 362 CURVE SMOOTH",
"204 358 OFFCURVE",
"204 355 OFFCURVE",
"205 352 CURVE",
"178 296 OFFCURVE",
"165 250 OFFCURVE",
"165 215 CURVE SMOOTH",
"165 196 OFFCURVE",
"169 181 OFFCURVE",
"176 168 CURVE",
"171 164 OFFCURVE",
"171 153 OFFCURVE",
"176 136 CURVE",
"188 137 OFFCURVE",
"205 126 OFFCURVE",
"209 126 CURVE SMOOTH",
"211 126 OFFCURVE",
"213 127 OFFCURVE",
"215 129 CURVE",
"218 126 OFFCURVE",
"222 125 OFFCURVE",
"225 125 CURVE SMOOTH",
"228 125 OFFCURVE",
"231 126 OFFCURVE",
"234 129 CURVE",
"234 142 OFFCURVE",
"233 150 OFFCURVE",
"231 155 CURVE",
"259 294 OFFCURVE",
"293 404 OFFCURVE",
"334 487 CURVE",
"341 487 OFFCURVE",
"349 491 OFFCURVE",
"359 499 CURVE SMOOTH",
"370 507 OFFCURVE",
"379 511 OFFCURVE",
"386 510 CURVE SMOOTH",
"408 507 OFFCURVE",
"421 484 OFFCURVE",
"425 439 CURVE SMOOTH",
"426 428 OFFCURVE",
"426 417 OFFCURVE",
"426 404 CURVE SMOOTH",
"426 355 OFFCURVE",
"421 307 OFFCURVE",
"411 260 CURVE SMOOTH",
"400 206 OFFCURVE",
"385 174 OFFCURVE",
"367 165 CURVE SMOOTH",
"360 161 OFFCURVE",
"352 160 OFFCURVE",
"341 162 CURVE SMOOTH",
"328 164 OFFCURVE",
"320 165 OFFCURVE",
"318 165 CURVE",
"302 192 OFFCURVE",
"291 214 OFFCURVE",
"285 231 CURVE",
"282 224 OFFCURVE",
"280 218 OFFCURVE",
"280 213 CURVE SMOOTH",
"280 205 OFFCURVE",
"282 191 OFFCURVE",
"287 172 CURVE SMOOTH",
"292 150 OFFCURVE",
"295 135 OFFCURVE",
"296 126 CURVE SMOOTH",
"298 107 OFFCURVE",
"303 91 OFFCURVE",
"311 76 CURVE SMOOTH",
"319 64 OFFCURVE",
"327 52 OFFCURVE",
"334 39 CURVE",
"338 38 OFFCURVE",
"342 38 OFFCURVE",
"345 38 CURVE SMOOTH"
);
},
{
closed = 1;
nodes = (
"711 242 OFFCURVE",
"706 247 OFFCURVE",
"705 252 CURVE",
"714 259 OFFCURVE",
"720 263 OFFCURVE",
"725 263 CURVE SMOOTH",
"729 263 OFFCURVE",
"731 260 OFFCURVE",
"731 255 CURVE",
"731 255 OFFCURVE",
"719 249 OFFCURVE",
"718 236 CURVE"
);
},
{
closed = 1;
nodes = (
"753 212 OFFCURVE",
"755 215 OFFCURVE",
"757 216 CURVE",
"761 215 OFFCURVE",
"765 214 OFFCURVE",
"768 214 CURVE SMOOTH",
"775 214 OFFCURVE",
"785 217 OFFCURVE",
"798 223 CURVE SMOOTH",
"809 228 OFFCURVE",
"819 230 OFFCURVE",
"828 229 CURVE",
"832 236 OFFCURVE",
"834 242 OFFCURVE",
"834 245 CURVE",
"837 244 OFFCURVE",
"840 243 OFFCURVE",
"843 243 CURVE SMOOTH",
"849 243 OFFCURVE",
"856 248 OFFCURVE",
"865 257 CURVE SMOOTH",
"874 266 OFFCURVE",
"881 270 OFFCURVE",
"886 268 CURVE",
"917 320 LINE",
"928 343 OFFCURVE",
"934 364 OFFCURVE",
"934 384 CURVE SMOOTH",
"934 396 OFFCURVE",
"932 408 OFFCURVE",
"928 420 CURVE",
"920 423 OFFCURVE",
"913 428 OFFCURVE",
"907 437 CURVE SMOOTH",
"900 448 OFFCURVE",
"894 455 OFFCURVE",
"889 458 CURVE SMOOTH",
"872 469 OFFCURVE",
"849 475 OFFCURVE",
"821 474 CURVE SMOOTH",
"764 473 OFFCURVE",
"706 455 OFFCURVE",
"647 420 CURVE",
"632 451 OFFCURVE",
"602 477 OFFCURVE",
"570 474 CURVE",
"584 459 OFFCURVE",
"591 443 OFFCURVE",
"591 426 CURVE SMOOTH",
"591 409 OFFCURVE",
"578 366 OFFCURVE",
"578 349 CURVE SMOOTH",
"578 340 OFFCURVE",
"580 331 OFFCURVE",
"583 323 CURVE",
"591 324 OFFCURVE",
"599 314 OFFCURVE",
"602 313 CURVE",
"606 294 OFFCURVE",
"628 273 OFFCURVE",
"651 273 CURVE SMOOTH",
"660 273 OFFCURVE",
"669 277 OFFCURVE",
"676 284 CURVE",
"675 287 OFFCURVE",
"674 291 OFFCURVE",
"674 294 CURVE SMOOTH",
"674 300 OFFCURVE",
"678 308 OFFCURVE",
"685 317 CURVE SMOOTH",
"693 326 OFFCURVE",
"698 333 OFFCURVE",
"699 336 CURVE",
"700 349 OFFCURVE",
"700 359 OFFCURVE",
"699 365 CURVE",
"714 379 OFFCURVE",
"727 389 OFFCURVE",
"738 394 CURVE",
"772 419 OFFCURVE",
"801 433 OFFCURVE",
"828 432 CURVE",
"833 383 OFFCURVE",
"815 337 OFFCURVE",
"766 305 CURVE SMOOTH",
"638 223 LINE",
"668 229 OFFCURVE",
"687 235 OFFCURVE",
"696 242 CURVE",
"699 236 OFFCURVE",
"702 233 OFFCURVE",
"705 232 CURVE",
"697 225 OFFCURVE",
"690 222 OFFCURVE",
"683 223 CURVE",
"680 216 OFFCURVE",
"689 215 OFFCURVE",
"689 210 CURVE",
"702 215 OFFCURVE",
"713 215 OFFCURVE",
"722 210 CURVE",
"721 217 OFFCURVE",
"719 221 OFFCURVE",
"718 223 CURVE",
"725 220 OFFCURVE",
"745 235 OFFCURVE",
"749 235 CURVE SMOOTH",
"751 235 OFFCURVE",
"753 234 OFFCURVE",
"754 232 CURVE",
"748 231 OFFCURVE",
"742 228 OFFCURVE",
"737 223 CURVE SMOOTH",
"725 210 LINE",
"739 214 OFFCURVE",
"748 213 OFFCURVE",
"751 207 CURVE"
);
}
);
vertWidth = 1000;
width = 1000;
}
);
note = cid00852;
unicode = 304B;
},
{
glyphname = "ga-hira";
lastChange = "2020-12-04 08:10:26 +0000";
layers = (
{
hints = (
{
horizontal = 1;
place = "{214, 9}";
type = Stem;
},
{
horizontal = 1;
place = "{432, 42}";
type = Stem;
},
{
horizontal = 1;
place = "{508, 112}";
type = Stem;
},
{
place = "{176, 58}";
type = Stem;
},
{
place = "{426, 85}";
type = Stem;
},
{
place = "{696, 9}";
type = Stem;
},
{
place = "{828, 106}";
type = Stem;
},
{
place = "{578, 121}";
type = Stem;
},
{
horizontal = 1;
place = "{38, 124}";
type = Stem;
}
);
layerId = "38E14F89-90D8-48C8-A96B-0BF2B2C9AEC9";
paths = (
{
closed = 1;
nodes = (
"361 38 OFFCURVE",
"394 54 OFFCURVE",
"409 55 CURVE",
"415 73 OFFCURVE",
"422 88 OFFCURVE",
"431 100 CURVE",
"436 99 OFFCURVE",
"440 99 OFFCURVE",
"441 100 CURVE SMOOTH",
"488 170 OFFCURVE",
"511 261 OFFCURVE",
"511 373 CURVE SMOOTH",
"511 424 OFFCURVE",
"505 472 OFFCURVE",
"493 516 CURVE",
"444 549 OFFCURVE",
"398 570 OFFCURVE",
"354 578 CURVE",
"357 589 OFFCURVE",
"358 601 OFFCURVE",
"358 612 CURVE SMOOTH",
"358 659 OFFCURVE",
"342 695 OFFCURVE",
"309 720 CURVE",
"306 697 OFFCURVE",
"299 670 OFFCURVE",
"288 637 CURVE SMOOTH",
"275 600 OFFCURVE",
"266 574 OFFCURVE",
"263 558 CURVE",
"220 535 OFFCURVE",
"186 518 OFFCURVE",
"163 507 CURVE",
"145 496 OFFCURVE",
"127 484 OFFCURVE",
"110 472 CURVE SMOOTH",
"90 459 OFFCURVE",
"71 452 OFFCURVE",
"54 449 CURVE",
"107 410 OFFCURVE",
"140 388 OFFCURVE",
"154 381 CURVE",
"160 382 OFFCURVE",
"171 391 OFFCURVE",
"186 407 CURVE SMOOTH",
"201 424 OFFCURVE",
"213 432 OFFCURVE",
"221 433 CURVE",
"210 396 OFFCURVE",
"204 373 OFFCURVE",
"204 362 CURVE SMOOTH",
"204 358 OFFCURVE",
"204 355 OFFCURVE",
"205 352 CURVE",
"178 296 OFFCURVE",
"165 250 OFFCURVE",
"165 215 CURVE SMOOTH",
"165 196 OFFCURVE",
"169 181 OFFCURVE",
"176 168 CURVE",
"171 164 OFFCURVE",
"171 153 OFFCURVE",
"176 136 CURVE",
"188 137 OFFCURVE",
"205 126 OFFCURVE",
"209 126 CURVE SMOOTH",
"211 126 OFFCURVE",
"213 127 OFFCURVE",
"215 129 CURVE",
"218 126 OFFCURVE",
"222 125 OFFCURVE",
"225 125 CURVE SMOOTH",
"228 125 OFFCURVE",
"231 126 OFFCURVE",
"234 129 CURVE",
"234 142 OFFCURVE",
"233 150 OFFCURVE",
"231 155 CURVE",
"259 294 OFFCURVE",
"293 404 OFFCURVE",
"334 487 CURVE",
"341 487 OFFCURVE",
"349 491 OFFCURVE",
"359 499 CURVE SMOOTH",
"370 507 OFFCURVE",
"379 511 OFFCURVE",
"386 510 CURVE SMOOTH",
"408 507 OFFCURVE",
"421 484 OFFCURVE",
"425 439 CURVE SMOOTH",
"426 428 OFFCURVE",
"426 417 OFFCURVE",
"426 404 CURVE SMOOTH",
"426 355 OFFCURVE",
"421 307 OFFCURVE",
"411 260 CURVE SMOOTH",
"400 206 OFFCURVE",
"385 174 OFFCURVE",
"367 165 CURVE SMOOTH",
"360 161 OFFCURVE",
"352 160 OFFCURVE",
"341 162 CURVE SMOOTH",
"328 164 OFFCURVE",
"320 165 OFFCURVE",
"318 165 CURVE",
"302 192 OFFCURVE",
"291 214 OFFCURVE",
"285 231 CURVE",
"282 224 OFFCURVE",
"280 218 OFFCURVE",
"280 213 CURVE SMOOTH",
"280 205 OFFCURVE",
"282 191 OFFCURVE",
"287 172 CURVE SMOOTH",
"292 150 OFFCURVE",
"295 135 OFFCURVE",
"296 126 CURVE SMOOTH",
"298 107 OFFCURVE",
"303 91 OFFCURVE",
"311 76 CURVE SMOOTH",
"319 64 OFFCURVE",
"327 52 OFFCURVE",
"334 39 CURVE",
"338 38 OFFCURVE",
"342 38 OFFCURVE",
"345 38 CURVE SMOOTH"
);
},
{
closed = 1;
nodes = (
"711 242 OFFCURVE",
"706 247 OFFCURVE",
"705 252 CURVE",
"714 259 OFFCURVE",
"720 263 OFFCURVE",
"725 263 CURVE SMOOTH",
"729 263 OFFCURVE",
"731 260 OFFCURVE",
"731 255 CURVE",
"731 255 OFFCURVE",
"719 249 OFFCURVE",
"718 236 CURVE"
);
},
{
closed = 1;
nodes = (
"753 212 OFFCURVE",
"755 215 OFFCURVE",
"757 216 CURVE",
"761 215 OFFCURVE",
"765 214 OFFCURVE",
"768 214 CURVE SMOOTH",
"775 214 OFFCURVE",
"785 217 OFFCURVE",
"798 223 CURVE SMOOTH",
"809 228 OFFCURVE",
"819 230 OFFCURVE",
"828 229 CURVE",
"832 236 OFFCURVE",
"834 242 OFFCURVE",
"834 245 CURVE",
"837 244 OFFCURVE",
"840 243 OFFCURVE",
"843 243 CURVE SMOOTH",
"849 243 OFFCURVE",
"856 248 OFFCURVE",
"865 257 CURVE SMOOTH",
"874 266 OFFCURVE",
"881 270 OFFCURVE",
"886 268 CURVE",
"917 320 LINE",
"928 343 OFFCURVE",
"934 364 OFFCURVE",
"934 384 CURVE SMOOTH",
"934 396 OFFCURVE",
"932 408 OFFCURVE",
"928 420 CURVE",
"920 423 OFFCURVE",
"913 428 OFFCURVE",
"907 437 CURVE SMOOTH",
"900 448 OFFCURVE",
"894 455 OFFCURVE",
"889 458 CURVE SMOOTH",
"872 469 OFFCURVE",
"849 475 OFFCURVE",
"821 474 CURVE SMOOTH",
"764 473 OFFCURVE",
"706 455 OFFCURVE",
"647 420 CURVE",
"632 451 OFFCURVE",
"602 477 OFFCURVE",
"570 474 CURVE",
"584 459 OFFCURVE",
"591 443 OFFCURVE",
"591 426 CURVE SMOOTH",
"591 409 OFFCURVE",
"578 366 OFFCURVE",
"578 349 CURVE SMOOTH",
"578 340 OFFCURVE",
"580 331 OFFCURVE",
"583 323 CURVE",
"591 324 OFFCURVE",
"599 314 OFFCURVE",
"602 313 CURVE",
"606 294 OFFCURVE",
"628 273 OFFCURVE",
"651 273 CURVE SMOOTH",
"660 273 OFFCURVE",
"669 277 OFFCURVE",
"676 284 CURVE",
"675 287 OFFCURVE",
"674 291 OFFCURVE",
"674 294 CURVE SMOOTH",
"674 300 OFFCURVE",
"678 308 OFFCURVE",
"685 317 CURVE SMOOTH",
"693 326 OFFCURVE",
"698 333 OFFCURVE",
"699 336 CURVE",
"700 349 OFFCURVE",
"700 359 OFFCURVE",
"699 365 CURVE",
"714 379 OFFCURVE",
"727 389 OFFCURVE",
"738 394 CURVE",
"772 419 OFFCURVE",
"801 433 OFFCURVE",
"828 432 CURVE",
"833 383 OFFCURVE",
"815 337 OFFCURVE",
"766 305 CURVE SMOOTH",
"638 223 LINE",
"668 229 OFFCURVE",
"687 235 OFFCURVE",
"696 242 CURVE",
"699 236 OFFCURVE",
"702 233 OFFCURVE",
"705 232 CURVE",
"697 225 OFFCURVE",
"690 222 OFFCURVE",
"683 223 CURVE",
"680 216 OFFCURVE",
"689 215 OFFCURVE",
"689 210 CURVE",
"702 215 OFFCURVE",
"713 215 OFFCURVE",
"722 210 CURVE",
"721 217 OFFCURVE",
"719 221 OFFCURVE",
"718 223 CURVE",
"725 220 OFFCURVE",
"745 235 OFFCURVE",
"749 235 CURVE SMOOTH",
"751 235 OFFCURVE",
"753 234 OFFCURVE",
"754 232 CURVE",
"748 231 OFFCURVE",
"742 228 OFFCURVE",
"737 223 CURVE SMOOTH",
"725 210 LINE",
"739 214 OFFCURVE",
"748 213 OFFCURVE",
"751 207 CURVE"
);
},
{
closed = 1;
nodes = (
"758 505 OFFCURVE",
"784 501 OFFCURVE",
"809 528 CURVE",
"798 592 OFFCURVE",
"736 634 OFFCURVE",
"671 616 CURVE",
"680 589 OFFCURVE",
"705 544 OFFCURVE",
"735 522 CURVE SMOOTH"
);
},
{
closed = 1;
nodes = (
"919 663 OFFCURVE",
"833 680 OFFCURVE",
"781 670 CURVE",
"798 650 OFFCURVE",
"819 612 OFFCURVE",
"844 588 CURVE SMOOTH",
"867 567 OFFCURVE",
"893 558 OFFCURVE",
"925 585 CURVE"
);
}
);
vertWidth = 1000;
width = 1000;
}
);
note = cid00853;
unicode = 304C;
},
{
glyphname = "ki-hira";
lastChange = "2020-12-04 08:10:26 +0000";
layers = (
{
hints = (
{
horizontal = 1;
place = "{723, 21}";
type = Stem;
},
{
place = "{536, 87}";
type = Stem;
}
);
layerId = "38E14F89-90D8-48C8-A96B-0BF2B2C9AEC9";
paths = (
{
closed = 1;
nodes = (
"840 -88 OFFCURVE",
"852 -87 OFFCURVE",
"864 -81 CURVE",
"866 -76 OFFCURVE",
"867 -72 OFFCURVE",
"867 -67 CURVE SMOOTH",
"867 -58 OFFCURVE",
"852 -33 OFFCURVE",
"853 -17 CURVE",
"754 122 OFFCURVE",
"675 260 OFFCURVE",
"618 399 CURVE",
"692 417 LINE SMOOTH",
"722 424 OFFCURVE",
"749 428 OFFCURVE",
"774 428 CURVE",
"782 440 OFFCURVE",
"786 450 OFFCURVE",
"786 458 CURVE SMOOTH",
"786 470 OFFCURVE",
"775 481 OFFCURVE",
"754 489 CURVE SMOOTH",
"707 506 LINE",
"692 515 OFFCURVE",
"677 529 OFFCURVE",
"661 547 CURVE SMOOTH",
"632 581 LINE",
"653 600 OFFCURVE",
"688 624 OFFCURVE",
"736 651 CURVE",
"731 666 OFFCURVE",
"729 678 OFFCURVE",
"728 687 CURVE",
"674 723 LINE SMOOTH",
"653 737 OFFCURVE",
"632 743 OFFCURVE",
"611 744 CURVE",
"610 739 OFFCURVE",
"605 736 OFFCURVE",
"595 733 CURVE SMOOTH",
"586 731 OFFCURVE",
"580 728 OFFCURVE",
"579 723 CURVE",
"591 720 OFFCURVE",
"607 720 OFFCURVE",
"608 709 CURVE",
"601 692 OFFCURVE",
"591 675 OFFCURVE",
"575 660 CURVE SMOOTH",
"533 619 LINE",
"494 719 LINE",
"475 754 OFFCURVE",
"448 773 OFFCURVE",
"412 776 CURVE",
"408 770 OFFCURVE",
"406 764 OFFCURVE",
"406 757 CURVE SMOOTH",
"406 755 OFFCURVE",
"408 742 OFFCURVE",
"415 719 CURVE SMOOTH",
"433 655 OFFCURVE",
"450 606 OFFCURVE",
"461 573 CURVE SMOOTH",
"464 562 OFFCURVE",
"466 557 OFFCURVE",
"466 556 CURVE SMOOTH",
"465 550 OFFCURVE",
"454 535 OFFCURVE",
"430 514 CURVE SMOOTH",
"375 465 LINE SMOOTH",
"351 444 OFFCURVE",
"334 430 OFFCURVE",
"323 421 CURVE SMOOTH",
"310 412 OFFCURVE",
"299 406 OFFCURVE",
"291 402 CURVE SMOOTH",
"289 401 OFFCURVE",
"278 389 OFFCURVE",
"259 368 CURVE SMOOTH",
"248 355 OFFCURVE",
"237 348 OFFCURVE",
"227 346 CURVE SMOOTH",
"205 341 OFFCURVE",
"191 335 OFFCURVE",
"184 328 CURVE",
"182 323 OFFCURVE",
"181 319 OFFCURVE",
"181 314 CURVE SMOOTH",
"181 304 OFFCURVE",
"186 293 OFFCURVE",
"196 281 CURVE SMOOTH",
"207 267 OFFCURVE",
"214 257 OFFCURVE",
"216 250 CURVE",
"221 249 OFFCURVE",
"227 249 OFFCURVE",
"233 249 CURVE SMOOTH",
"255 249 OFFCURVE",
"281 257 OFFCURVE",
"312 274 CURVE SMOOTH",
"347 293 OFFCURVE",
"369 304 OFFCURVE",
"380 306 CURVE",
"360 249 OFFCURVE",
"316 183 OFFCURVE",
"248 108 CURVE",
"259 74 OFFCURVE",
"286 42 OFFCURVE",
"327 12 CURVE",
"342 30 OFFCURVE",
"362 60 OFFCURVE",
"387 101 CURVE SMOOTH",
"410 140 OFFCURVE",
"430 169 OFFCURVE",
"446 186 CURVE SMOOTH",
"471 214 OFFCURVE",
"501 234 OFFCURVE",
"536 246 CURVE",
"541 213 OFFCURVE",
"533 175 OFFCURVE",
"509 130 CURVE SMOOTH",
"451 22 LINE",
"415 -11 OFFCURVE",
"392 -36 OFFCURVE",
"383 -52 CURVE",
"391 -48 OFFCURVE",
"399 -46 OFFCURVE",
"407 -46 CURVE SMOOTH",
"416 -46 OFFCURVE",
"424 -49 OFFCURVE",
"429 -56 CURVE",
"458 -47 OFFCURVE",
"479 -43 OFFCURVE",
"493 -42 CURVE",
"496 -33 OFFCURVE",
"504 -20 OFFCURVE",
"521 -3 CURVE SMOOTH",
"538 14 OFFCURVE",
"546 27 OFFCURVE",
"547 40 CURVE",
"580 67 OFFCURVE",
"603 102 OFFCURVE",
"616 145 CURVE SMOOTH",
"625 176 OFFCURVE",
"625 203 OFFCURVE",
"614 228 CURVE SMOOTH",
"610 238 OFFCURVE",
"599 250 OFFCURVE",
"581 265 CURVE SMOOTH",
"564 280 OFFCURVE",
"550 289 OFFCURVE",
"539 292 CURVE SMOOTH",
"534 293 OFFCURVE",
"528 294 OFFCURVE",
"523 294 CURVE SMOOTH",
"510 294 OFFCURVE",
"493 289 OFFCURVE",
"472 279 CURVE SMOOTH",
"457 272 OFFCURVE",
"445 267 OFFCURVE",
"437 264 CURVE",
"442 271 OFFCURVE",
"444 279 OFFCURVE",
"444 288 CURVE SMOOTH",
"444 301 OFFCURVE",
"437 316 OFFCURVE",
"423 332 CURVE",
"464 353 OFFCURVE",
"503 368 OFFCURVE",
"539 378 CURVE",
"605 252 OFFCURVE",
"656 158 OFFCURVE",
"693 97 CURVE",
"722 35 LINE SMOOTH",
"744 -11 OFFCURVE",
"756 -28 OFFCURVE",
"787 -56 CURVE SMOOTH",
"806 -73 OFFCURVE",
"819 -83 OFFCURVE",
"828 -85 CURVE SMOOTH"
);
},
{
closed = 1;
nodes = (
"335 486 OFFCURVE",
"339 490 OFFCURVE",
"345 497 CURVE SMOOTH",
"349 502 OFFCURVE",
"353 504 OFFCURVE",
"357 504 CURVE SMOOTH",
"358 504 OFFCURVE",
"360 504 OFFCURVE",
"362 503 CURVE",
"363 512 OFFCURVE",
"356 535 OFFCURVE",
"356 546 CURVE SMOOTH",
"356 552 OFFCURVE",
"357 558 OFFCURVE",
"359 563 CURVE",
"356 569 OFFCURVE",
"354 575 OFFCURVE",
"354 582 CURVE SMOOTH",
"354 593 OFFCURVE",
"359 607 OFFCURVE",
"370 623 CURVE SMOOTH",
"381 640 OFFCURVE",
"387 650 OFFCURVE",
"387 655 CURVE",
"348 637 OFFCURVE",
"320 623 OFFCURVE",
"301 613 CURVE",
"272 633 OFFCURVE",
"245 647 OFFCURVE",
"220 655 CURVE",
"219 648 OFFCURVE",
"219 641 OFFCURVE",
"219 634 CURVE SMOOTH",
"219 559 OFFCURVE",
"257 510 OFFCURVE",
"333 485 CURVE"
);
},
{
closed = 1;
nodes = (
"434 440 OFFCURVE",
"459 461 OFFCURVE",
"493 481 CURVE",
"502 470 OFFCURVE",
"507 457 OFFCURVE",
"507 442 CURVE",
"469 428 LINE SMOOTH",
"450 421 OFFCURVE",
"434 418 OFFCURVE",
"419 417 CURVE"
);
},
{
closed = 1;
nodes = (
"579 493 OFFCURVE",
"572 514 OFFCURVE",
"565 531 CURVE",
"586 550 OFFCURVE",
"602 563 OFFCURVE",
"614 570 CURVE",
"645 543 OFFCURVE",
"665 515 OFFCURVE",
"672 488 CURVE",
"653 487 OFFCURVE",
"612 468 OFFCURVE",
"588 468 CURVE"
);
}
);
vertWidth = 1000;
width = 1000;
}
);
note = cid00854;
unicode = 304D;
},
{
glyphname = "gi-hira";
lastChange = "2020-12-04 08:10:26 +0000";
layers = (
{
hints = (
{
horizontal = 1;
place = "{504, 112}";
type = Stem;
},
{
horizontal = 1;
place = "{723, 21}";
type = Stem;
},
{
place = "{524, 87}";
type = Stem;
}
);
layerId = "38E14F89-90D8-48C8-A96B-0BF2B2C9AEC9";
paths = (
{
closed = 1;
nodes = (
"828 -88 OFFCURVE",
"840 -87 OFFCURVE",
"852 -81 CURVE",
"854 -76 OFFCURVE",
"855 -72 OFFCURVE",
"855 -67 CURVE SMOOTH",
"855 -58 OFFCURVE",
"840 -33 OFFCURVE",
"841 -17 CURVE",
"742 122 OFFCURVE",
"663 260 OFFCURVE",
"606 399 CURVE",
"680 417 LINE SMOOTH",
"710 424 OFFCURVE",
"737 428 OFFCURVE",
"762 428 CURVE",
"770 440 OFFCURVE",
"774 450 OFFCURVE",
"774 458 CURVE SMOOTH",
"774 470 OFFCURVE",
"763 481 OFFCURVE",
"742 489 CURVE SMOOTH",
"695 506 LINE",
"680 515 OFFCURVE",
"665 529 OFFCURVE",
"649 547 CURVE SMOOTH",
"620 581 LINE",
"641 600 OFFCURVE",
"676 624 OFFCURVE",
"724 651 CURVE",
"719 666 OFFCURVE",
"717 678 OFFCURVE",
"716 687 CURVE",
"662 723 LINE SMOOTH",
"641 737 OFFCURVE",
"620 743 OFFCURVE",
"599 744 CURVE",
"598 739 OFFCURVE",
"593 736 OFFCURVE",
"583 733 CURVE SMOOTH",
"574 731 OFFCURVE",
"568 728 OFFCURVE",
"567 723 CURVE",
"579 720 OFFCURVE",
"595 720 OFFCURVE",
"596 709 CURVE",
"589 692 OFFCURVE",
"579 675 OFFCURVE",
"563 660 CURVE SMOOTH",
"521 619 LINE",
"482 719 LINE",
"463 754 OFFCURVE",
"436 773 OFFCURVE",
"400 776 CURVE",
"396 770 OFFCURVE",
"394 764 OFFCURVE",
"394 757 CURVE SMOOTH",
"394 755 OFFCURVE",
"396 742 OFFCURVE",
"403 719 CURVE SMOOTH",
"421 655 OFFCURVE",
"438 606 OFFCURVE",
"449 573 CURVE SMOOTH",
"452 562 OFFCURVE",
"454 557 OFFCURVE",
"454 556 CURVE SMOOTH",
"453 550 OFFCURVE",
"442 535 OFFCURVE",
"418 514 CURVE SMOOTH",
"363 465 LINE SMOOTH",
"339 444 OFFCURVE",
"322 430 OFFCURVE",
"311 421 CURVE SMOOTH",
"298 412 OFFCURVE",
"287 406 OFFCURVE",
"279 402 CURVE SMOOTH",
"277 401 OFFCURVE",
"266 389 OFFCURVE",
"247 368 CURVE SMOOTH",
"236 355 OFFCURVE",
"225 348 OFFCURVE",
"215 346 CURVE SMOOTH",
"193 341 OFFCURVE",
"179 335 OFFCURVE",
"172 328 CURVE",
"170 323 OFFCURVE",
"169 319 OFFCURVE",
"169 314 CURVE SMOOTH",
"169 304 OFFCURVE",
"174 293 OFFCURVE",
"184 281 CURVE SMOOTH",
"195 267 OFFCURVE",
"202 257 OFFCURVE",
"204 250 CURVE",
"209 249 OFFCURVE",
"215 249 OFFCURVE",
"221 249 CURVE SMOOTH",
"243 249 OFFCURVE",
"269 257 OFFCURVE",
"300 274 CURVE SMOOTH",
"335 293 OFFCURVE",
"357 304 OFFCURVE",
"368 306 CURVE",
"348 249 OFFCURVE",
"304 183 OFFCURVE",
"236 108 CURVE",
"247 74 OFFCURVE",
"274 42 OFFCURVE",
"315 12 CURVE",
"330 30 OFFCURVE",
"350 60 OFFCURVE",
"375 101 CURVE SMOOTH",
"398 140 OFFCURVE",
"418 169 OFFCURVE",
"434 186 CURVE SMOOTH",
"459 214 OFFCURVE",
"489 234 OFFCURVE",
"524 246 CURVE",
"529 213 OFFCURVE",
"521 175 OFFCURVE",
"497 130 CURVE SMOOTH",
"439 22 LINE",
"403 -11 OFFCURVE",
"380 -36 OFFCURVE",
"371 -52 CURVE",
"379 -48 OFFCURVE",
"387 -46 OFFCURVE",
"395 -46 CURVE SMOOTH",
"404 -46 OFFCURVE",
"412 -49 OFFCURVE",
"417 -56 CURVE",
"446 -47 OFFCURVE",
"467 -43 OFFCURVE",
"481 -42 CURVE",
"484 -33 OFFCURVE",
"492 -20 OFFCURVE",
"509 -3 CURVE SMOOTH",
"526 14 OFFCURVE",
"534 27 OFFCURVE",
"535 40 CURVE",
"568 67 OFFCURVE",
"591 102 OFFCURVE",
"604 145 CURVE SMOOTH",
"613 176 OFFCURVE",
"613 203 OFFCURVE",
"602 228 CURVE SMOOTH",
"598 238 OFFCURVE",
"587 250 OFFCURVE",
"569 265 CURVE SMOOTH",
"552 280 OFFCURVE",
"538 289 OFFCURVE",
"527 292 CURVE SMOOTH",
"522 293 OFFCURVE",
"516 294 OFFCURVE",
"511 294 CURVE SMOOTH",
"498 294 OFFCURVE",
"481 289 OFFCURVE",
"460 279 CURVE SMOOTH",
"445 272 OFFCURVE",
"433 267 OFFCURVE",
"425 264 CURVE",
"430 271 OFFCURVE",
"432 279 OFFCURVE",
"432 288 CURVE SMOOTH",
"432 301 OFFCURVE",
"425 316 OFFCURVE",
"411 332 CURVE",
"452 353 OFFCURVE",
"491 368 OFFCURVE",
"527 378 CURVE",
"593 252 OFFCURVE",
"644 158 OFFCURVE",
"681 97 CURVE",
"710 35 LINE SMOOTH",
"732 -11 OFFCURVE",
"744 -28 OFFCURVE",
"775 -56 CURVE SMOOTH",
"794 -73 OFFCURVE",
"807 -83 OFFCURVE",
"816 -85 CURVE SMOOTH"
);
},
{
closed = 1;
nodes = (
"323 486 OFFCURVE",
"327 490 OFFCURVE",
"333 497 CURVE SMOOTH",
"337 502 OFFCURVE",
"341 504 OFFCURVE",
"345 504 CURVE SMOOTH",
"346 504 OFFCURVE",
"348 504 OFFCURVE",
"350 503 CURVE",
"351 512 OFFCURVE",
"344 535 OFFCURVE",
"344 546 CURVE SMOOTH",
"344 552 OFFCURVE",
"345 558 OFFCURVE",
"347 563 CURVE",
"344 569 OFFCURVE",
"342 575 OFFCURVE",
"342 582 CURVE SMOOTH",
"342 593 OFFCURVE",
"347 607 OFFCURVE",
"358 623 CURVE SMOOTH",
"369 640 OFFCURVE",
"375 650 OFFCURVE",
"375 655 CURVE",
"336 637 OFFCURVE",
"308 623 OFFCURVE",
"289 613 CURVE",
"260 633 OFFCURVE",
"233 647 OFFCURVE",
"208 655 CURVE",
"207 648 OFFCURVE",
"207 641 OFFCURVE",
"207 634 CURVE SMOOTH",
"207 559 OFFCURVE",
"245 510 OFFCURVE",
"321 485 CURVE"
);
},
{
closed = 1;
nodes = (
"422 440 OFFCURVE",
"447 461 OFFCURVE",
"481 481 CURVE",
"490 470 OFFCURVE",
"495 457 OFFCURVE",
"495 442 CURVE",
"457 428 LINE SMOOTH",
"438 421 OFFCURVE",
"422 418 OFFCURVE",
"407 417 CURVE"
);
},
{
closed = 1;
nodes = (
"567 493 OFFCURVE",
"560 514 OFFCURVE",
"553 531 CURVE",
"574 550 OFFCURVE",
"590 563 OFFCURVE",
"602 570 CURVE",
"633 543 OFFCURVE",
"653 515 OFFCURVE",
"660 488 CURVE",
"641 487 OFFCURVE",
"600 468 OFFCURVE",
"576 468 CURVE"
);
},
{
closed = 1;
nodes = (
"812 501 OFFCURVE",
"838 497 OFFCURVE",
"863 524 CURVE",
"852 588 OFFCURVE",
"790 630 OFFCURVE",
"725 612 CURVE",
"734 585 OFFCURVE",
"759 540 OFFCURVE",
"789 518 CURVE SMOOTH"
);
},
{
closed = 1;
nodes = (
"973 659 OFFCURVE",
"887 676 OFFCURVE",
"835 666 CURVE",
"852 646 OFFCURVE",
"873 608 OFFCURVE",
"898 584 CURVE SMOOTH",
"921 563 OFFCURVE",
"947 554 OFFCURVE",
"979 581 CURVE"
);
}
);
vertWidth = 1000;
width = 1000;
}
);
note = cid00855;
unicode = 304E;
},
{
glyphname = "ku-hira";
lastChange = "2020-12-04 08:10:26 +0000";
layers = (
{
hints = (
{
horizontal = 1;
place = "{-55, 843}";
type = Stem;
},
{
place = "{230, 519}";
type = Stem;
},
{
place = "{460, 50}";
type = Stem;
},
{
horizontal = 1;
place = "{108, 81}";
type = Stem;
}
);
layerId = "38E14F89-90D8-48C8-A96B-0BF2B2C9AEC9";
paths = (
{
closed = 1;
nodes = (
"703 -55 OFFCURVE",
"710 -54 OFFCURVE",
"717 -53 CURVE",
"718 -43 OFFCURVE",
"723 -38 OFFCURVE",
"732 -37 CURVE SMOOTH",
"741 -37 OFFCURVE",
"746 -34 OFFCURVE",
"749 -28 CURVE",
"693 35 OFFCURVE",
"610 84 OFFCURVE",
"501 121 CURVE",
"496 122 OFFCURVE",
"468 130 OFFCURVE",
"415 143 CURVE SMOOTH",
"381 152 OFFCURVE",
"357 161 OFFCURVE",
"343 172 CURVE",
"349 173 OFFCURVE",
"352 178 OFFCURVE",
"352 185 CURVE",
"389 197 OFFCURVE",
"413 224 OFFCURVE",
"433 259 CURVE",
"504 324 OFFCURVE",
"535 382 OFFCURVE",
"530 430 CURVE SMOOTH",
"529 435 OFFCURVE",
"525 446 OFFCURVE",
"517 461 CURVE SMOOTH",
"510 474 OFFCURVE",
"508 486 OFFCURVE",
"510 495 CURVE",
"517 496 OFFCURVE",
"521 498 OFFCURVE",
"520 501 CURVE",
"527 520 OFFCURVE",
"552 555 OFFCURVE",
"597 606 CURVE SMOOTH",
"633 647 OFFCURVE",
"652 685 OFFCURVE",
"652 720 CURVE SMOOTH",
"652 742 OFFCURVE",
"646 765 OFFCURVE",
"633 788 CURVE",
"612 788 OFFCURVE",
"594 781 OFFCURVE",
"580 767 CURVE",
"546 724 LINE SMOOTH",
"493 657 OFFCURVE",
"457 586 OFFCURVE",
"436 511 CURVE",
"452 482 OFFCURVE",
"460 461 OFFCURVE",
"460 447 CURVE SMOOTH",
"460 434 OFFCURVE",
"456 419 OFFCURVE",
"449 401 CURVE SMOOTH",
"443 386 OFFCURVE",
"431 367 OFFCURVE",
"414 346 CURVE SMOOTH",
"375 296 LINE",
"372 291 LINE",
"372 290 OFFCURVE",
"379 289 OFFCURVE",
"378 282 CURVE",
"375 280 OFFCURVE",
"368 279 OFFCURVE",
"356 279 CURVE",
"351 276 OFFCURVE",
"357 269 OFFCURVE",
"352 266 CURVE SMOOTH",
"343 261 OFFCURVE",
"325 247 OFFCURVE",
"298 223 CURVE SMOOTH",
"277 204 OFFCURVE",
"254 193 OFFCURVE",
"230 189 CURVE",
"229 158 OFFCURVE",
"239 130 OFFCURVE",
"262 105 CURVE",
"271 109 OFFCURVE",
"284 110 OFFCURVE",
"301 105 CURVE SMOOTH",
"362 89 OFFCURVE",
"408 73 OFFCURVE",
"440 63 CURVE SMOOTH",
"506 42 OFFCURVE",
"548 25 OFFCURVE",
"565 8 CURVE",
"562 1 LINE",
"581 -9 OFFCURVE",
"596 -16 OFFCURVE",
"607 -21 CURVE",
"640 -44 OFFCURVE",
"670 -55 OFFCURVE",
"696 -55 CURVE SMOOTH"
);
}
);
vertWidth = 1000;
width = 1000;
}
);
note = cid00856;
unicode = 304F;
},
{
glyphname = "gu-hira";
lastChange = "2020-12-04 08:10:26 +0000";
layers = (
{
hints = (
{
horizontal = 1;
place = "{446, 112}";
type = Stem;
},
{
place = "{210, 695}";
type = Stem;
},
{
horizontal = 1;
place = "{108, 81}";
type = Stem;
},
{
place = "{440, 50}";
type = Stem;
}
);
layerId = "38E14F89-90D8-48C8-A96B-0BF2B2C9AEC9";
paths = (
{
closed = 1;
nodes = (
"683 -55 OFFCURVE",
"690 -54 OFFCURVE",
"697 -53 CURVE",
"698 -43 OFFCURVE",
"703 -38 OFFCURVE",
"712 -37 CURVE SMOOTH",
"721 -37 OFFCURVE",
"726 -34 OFFCURVE",
"729 -28 CURVE",
"673 35 OFFCURVE",
"590 84 OFFCURVE",
"481 121 CURVE",
"476 122 OFFCURVE",
"448 130 OFFCURVE",
"395 143 CURVE SMOOTH",
"361 152 OFFCURVE",
"337 161 OFFCURVE",
"323 172 CURVE",
"329 173 OFFCURVE",
"332 178 OFFCURVE",
"332 185 CURVE",
"369 197 OFFCURVE",
"393 224 OFFCURVE",
"413 259 CURVE",
"484 324 OFFCURVE",
"515 382 OFFCURVE",
"510 430 CURVE SMOOTH",
"509 435 OFFCURVE",
"505 446 OFFCURVE",
"497 461 CURVE SMOOTH",
"490 474 OFFCURVE",
"488 486 OFFCURVE",
"490 495 CURVE",
"497 496 OFFCURVE",
"501 498 OFFCURVE",
"500 501 CURVE",
"507 520 OFFCURVE",
"532 555 OFFCURVE",
"577 606 CURVE SMOOTH",
"614 647 OFFCURVE",
"632 685 OFFCURVE",
"632 720 CURVE SMOOTH",
"632 742 OFFCURVE",
"626 765 OFFCURVE",
"613 788 CURVE",
"592 788 OFFCURVE",
"574 781 OFFCURVE",
"560 767 CURVE",
"526 724 LINE SMOOTH",
"473 657 OFFCURVE",
"437 586 OFFCURVE",
"416 511 CURVE",
"432 482 OFFCURVE",
"440 461 OFFCURVE",
"440 447 CURVE SMOOTH",
"440 434 OFFCURVE",
"436 419 OFFCURVE",
"429 401 CURVE SMOOTH",
"423 386 OFFCURVE",
"411 367 OFFCURVE",
"394 346 CURVE SMOOTH",
"355 296 LINE",
"352 291 LINE",
"352 290 OFFCURVE",
"359 289 OFFCURVE",
"358 282 CURVE",
"355 280 OFFCURVE",
"348 279 OFFCURVE",
"336 279 CURVE",
"331 276 OFFCURVE",
"337 269 OFFCURVE",
"332 266 CURVE SMOOTH",
"323 261 OFFCURVE",
"305 247 OFFCURVE",
"278 223 CURVE SMOOTH",
"257 204 OFFCURVE",
"234 193 OFFCURVE",
"210 189 CURVE",
"209 158 OFFCURVE",
"219 130 OFFCURVE",
"242 105 CURVE",
"251 109 OFFCURVE",
"264 110 OFFCURVE",
"281 105 CURVE SMOOTH",
"342 89 OFFCURVE",
"388 73 OFFCURVE",
"420 63 CURVE SMOOTH",
"486 42 OFFCURVE",
"528 25 OFFCURVE",
"545 8 CURVE",
"542 1 LINE",
"561 -9 OFFCURVE",
"576 -16 OFFCURVE",
"587 -21 CURVE",
"620 -44 OFFCURVE",
"650 -55 OFFCURVE",
"676 -55 CURVE SMOOTH"
);
},
{
closed = 1;
nodes = (
"738 443 OFFCURVE",
"764 439 OFFCURVE",
"789 466 CURVE",
"778 530 OFFCURVE",
"716 572 OFFCURVE",
"651 554 CURVE",
"660 527 OFFCURVE",
"685 482 OFFCURVE",
"715 460 CURVE SMOOTH"
);
},
{
closed = 1;
nodes = (
"899 601 OFFCURVE",
"813 618 OFFCURVE",
"761 608 CURVE",
"778 588 OFFCURVE",
"799 550 OFFCURVE",
"824 526 CURVE SMOOTH",
"847 505 OFFCURVE",
"873 496 OFFCURVE",
"905 523 CURVE"
);
}
);
vertWidth = 1000;
width = 1000;
}
);
note = cid00857;
unicode = 3050;
},
{
glyphname = "ke-hira";
lastChange = "2020-12-04 08:10:26 +0000";
layers = (
{
hints = (
{
horizontal = 1;
place = "{479, 65}";
type = Stem;
},
{
place = "{226, 97}";
type = Stem;
},
{
place = "{657, 74}";
type = Stem;
},
{
horizontal = 1;
place = "{264, 121}";
type = Stem;
},
{
place = "{631, 86}";
type = Stem;
},
{
place = "{629, 11}";
type = Stem;
}
);
layerId = "38E14F89-90D8-48C8-A96B-0BF2B2C9AEC9";
paths = (
{
closed = 1;
nodes = (
"642 -61 OFFCURVE",
"649 -54 OFFCURVE",
"662 -43 CURVE SMOOTH",
"672 -34 OFFCURVE",
"678 -27 OFFCURVE",
"679 -21 CURVE",
"690 -4 OFFCURVE",
"700 23 OFFCURVE",
"708 60 CURVE SMOOTH",
"715 95 OFFCURVE",
"723 117 OFFCURVE",
"731 128 CURVE",
"730 132 OFFCURVE",
"729 136 OFFCURVE",
"729 139 CURVE SMOOTH",
"729 147 OFFCURVE",
"733 156 OFFCURVE",
"733 159 CURVE SMOOTH",
"733 162 OFFCURVE",
"731 165 OFFCURVE",
"728 168 CURVE",
"737 200 OFFCURVE",
"742 237 OFFCURVE",
"742 280 CURVE SMOOTH",
"742 303 OFFCURVE",
"739 336 OFFCURVE",
"736 380 CURVE SMOOTH",
"732 425 OFFCURVE",
"731 457 OFFCURVE",
"731 477 CURVE",
"744 478 OFFCURVE",
"768 480 OFFCURVE",
"803 479 CURVE SMOOTH",
"833 479 OFFCURVE",
"857 480 OFFCURVE",
"874 484 CURVE",
"875 489 OFFCURVE",
"884 499 OFFCURVE",
"884 506 CURVE SMOOTH",
"884 509 OFFCURVE",
"883 513 OFFCURVE",
"881 516 CURVE",
"850 548 LINE SMOOTH",
"838 561 OFFCURVE",
"825 566 OFFCURVE",
"814 566 CURVE",
"806 578 OFFCURVE",
"793 591 OFFCURVE",
"775 606 CURVE SMOOTH",
"758 621 OFFCURVE",
"746 634 OFFCURVE",
"739 643 CURVE SMOOTH",
"733 652 OFFCURVE",
"727 671 OFFCURVE",
"719 698 CURVE SMOOTH",
"713 721 OFFCURVE",
"704 737 OFFCURVE",
"693 744 CURVE",
"652 733 OFFCURVE",
"631 699 OFFCURVE",
"631 643 CURVE SMOOTH",
"631 621 OFFCURVE",
"636 584 OFFCURVE",
"647 531 CURVE",
"518 488 OFFCURVE",
"415 421 OFFCURVE",
"337 328 CURVE",
"328 339 OFFCURVE",
"328 347 OFFCURVE",
"337 352 CURVE",
"322 373 OFFCURVE",
"304 384 OFFCURVE",
"281 385 CURVE SMOOTH",
"263 386 OFFCURVE",
"236 379 OFFCURVE",
"199 364 CURVE SMOOTH",
"162 349 OFFCURVE",
"136 342 OFFCURVE",
"121 342 CURVE SMOOTH",
"113 342 OFFCURVE",
"106 343 OFFCURVE",
"99 346 CURVE",
"104 295 OFFCURVE",
"161 263 OFFCURVE",
"234 264 CURVE",
"234 259 OFFCURVE",
"232 240 OFFCURVE",
"229 209 CURVE SMOOTH",
"227 184 OFFCURVE",
"226 163 OFFCURVE",
"226 148 CURVE SMOOTH",
"226 76 OFFCURVE",
"248 40 OFFCURVE",
"293 40 CURVE SMOOTH",
"300 40 OFFCURVE",
"307 41 OFFCURVE",
"316 43 CURVE",
"322 54 OFFCURVE",
"324 68 OFFCURVE",
"323 84 CURVE SMOOTH",
"322 107 OFFCURVE",
"321 121 OFFCURVE",
"322 125 CURVE SMOOTH",
"329 183 OFFCURVE",
"354 242 OFFCURVE",
"397 303 CURVE SMOOTH",
"446 373 OFFCURVE",
"532 425 OFFCURVE",
"653 459 CURVE",
"656 393 OFFCURVE",
"657 341 OFFCURVE",
"657 303 CURVE SMOOTH",
"657 222 OFFCURVE",
"651 149 OFFCURVE",
"640 85 CURVE SMOOTH",
"631 32 OFFCURVE",
"627 -10 OFFCURVE",
"629 -39 CURVE",
"633 -51 OFFCURVE",
"637 -59 OFFCURVE",
"640 -64 CURVE"
);
},
{
closed = 1;
nodes = (
"289 567 OFFCURVE",
"297 571 OFFCURVE",
"306 580 CURVE SMOOTH",
"316 589 OFFCURVE",
"324 594 OFFCURVE",
"330 595 CURVE",
"339 591 OFFCURVE",
"346 589 OFFCURVE",
"353 589 CURVE SMOOTH",
"364 589 OFFCURVE",
"377 592 OFFCURVE",
"392 599 CURVE SMOOTH",
"429 616 LINE",
"431 631 OFFCURVE",
"430 646 OFFCURVE",
"426 662 CURVE",
"383 689 OFFCURVE",
"351 702 OFFCURVE",
"330 701 CURVE",
"275 678 OFFCURVE",
"245 666 OFFCURVE",
"238 665 CURVE SMOOTH",
"237 665 OFFCURVE",
"233 665 OFFCURVE",
"226 666 CURVE SMOOTH",
"220 667 OFFCURVE",
"217 667 OFFCURVE",
"217 665 CURVE",
"235 652 OFFCURVE",
"248 637 OFFCURVE",
"255 619 CURVE",
"276 618 OFFCURVE",
"286 613 OFFCURVE",
"287 605 CURVE",
"277 590 OFFCURVE",
"272 578 OFFCURVE",
"273 569 CURVE",
"276 568 OFFCURVE",
"279 567 OFFCURVE",
"282 567 CURVE SMOOTH"
);
},
{
closed = 1;
nodes = (
"714 579 OFFCURVE",
"713 605 OFFCURVE",
"714 622 CURVE",
"735 595 OFFCURVE",
"747 572 OFFCURVE",
"750 552 CURVE",
"745 545 OFFCURVE",
"734 543 OFFCURVE",
"717 544 CURVE"
);
}
);
vertWidth = 1000;
width = 1000;
}
);
note = cid00858;
unicode = 3051;
},
{
glyphname = "ge-hira";
lastChange = "2020-12-04 08:10:26 +0000";
layers = (
{
hints = (
{
horizontal = 1;
place = "{455, 65}";
type = Stem;
},
{
horizontal = 1;
place = "{636, 112}";
type = Stem;
},
{
place = "{196, 97}";
type = Stem;
},
{
place = "{627, 74}";
type = Stem;
},
{
horizontal = 1;
place = "{240, 121}";
type = Stem;
},
{
place = "{601, 86}";
type = Stem;
},
{
place = "{599, 11}";
type = Stem;
}
);
layerId = "38E14F89-90D8-48C8-A96B-0BF2B2C9AEC9";
paths = (
{
closed = 1;
nodes = (
"612 -85 OFFCURVE",
"619 -78 OFFCURVE",
"632 -67 CURVE SMOOTH",
"642 -58 OFFCURVE",
"648 -51 OFFCURVE",
"649 -45 CURVE",
"660 -28 OFFCURVE",
"670 -1 OFFCURVE",
"678 36 CURVE SMOOTH",
"685 71 OFFCURVE",
"693 93 OFFCURVE",
"701 104 CURVE",
"700 108 OFFCURVE",
"699 112 OFFCURVE",
"699 115 CURVE SMOOTH",
"699 123 OFFCURVE",
"703 132 OFFCURVE",
"703 135 CURVE SMOOTH",
"703 138 OFFCURVE",
"701 141 OFFCURVE",
"698 144 CURVE",
"707 176 OFFCURVE",
"712 213 OFFCURVE",
"712 256 CURVE SMOOTH",
"712 279 OFFCURVE",
"709 312 OFFCURVE",
"706 356 CURVE SMOOTH",
"702 401 OFFCURVE",
"701 433 OFFCURVE",
"701 453 CURVE",
"714 454 OFFCURVE",
"738 456 OFFCURVE",
"773 455 CURVE SMOOTH",
"803 455 OFFCURVE",
"827 456 OFFCURVE",
"844 460 CURVE",
"845 465 OFFCURVE",
"854 475 OFFCURVE",
"854 482 CURVE SMOOTH",
"854 485 OFFCURVE",
"853 489 OFFCURVE",
"851 492 CURVE",
"820 524 LINE SMOOTH",
"808 537 OFFCURVE",
"795 542 OFFCURVE",
"784 542 CURVE",
"776 554 OFFCURVE",
"763 567 OFFCURVE",
"745 582 CURVE SMOOTH",
"728 597 OFFCURVE",
"716 610 OFFCURVE",
"709 619 CURVE SMOOTH",
"703 628 OFFCURVE",
"697 647 OFFCURVE",
"689 674 CURVE SMOOTH",
"683 697 OFFCURVE",
"674 713 OFFCURVE",
"663 720 CURVE",
"622 709 OFFCURVE",
"601 675 OFFCURVE",
"601 619 CURVE SMOOTH",
"601 597 OFFCURVE",
"606 560 OFFCURVE",
"617 507 CURVE",
"488 464 OFFCURVE",
"385 397 OFFCURVE",
"307 304 CURVE",
"298 315 OFFCURVE",
"298 323 OFFCURVE",
"307 328 CURVE",
"292 349 OFFCURVE",
"274 360 OFFCURVE",
"251 361 CURVE SMOOTH",
"233 362 OFFCURVE",
"206 355 OFFCURVE",
"169 340 CURVE SMOOTH",
"132 325 OFFCURVE",
"106 318 OFFCURVE",
"91 318 CURVE SMOOTH",
"83 318 OFFCURVE",
"76 319 OFFCURVE",
"69 322 CURVE",
"74 271 OFFCURVE",
"131 239 OFFCURVE",
"204 240 CURVE",
"204 235 OFFCURVE",
"202 216 OFFCURVE",
"199 185 CURVE SMOOTH",
"197 160 OFFCURVE",
"196 139 OFFCURVE",
"196 124 CURVE SMOOTH",
"196 52 OFFCURVE",
"218 16 OFFCURVE",
"263 16 CURVE SMOOTH",
"270 16 OFFCURVE",
"277 17 OFFCURVE",
"286 19 CURVE",
"292 30 OFFCURVE",
"294 44 OFFCURVE",
"293 60 CURVE SMOOTH",
"292 83 OFFCURVE",
"291 97 OFFCURVE",
"292 101 CURVE SMOOTH",
"299 159 OFFCURVE",
"324 218 OFFCURVE",
"367 279 CURVE SMOOTH",
"416 349 OFFCURVE",
"502 401 OFFCURVE",
"623 435 CURVE",
"626 369 OFFCURVE",
"627 317 OFFCURVE",
"627 279 CURVE SMOOTH",
"627 198 OFFCURVE",
"621 125 OFFCURVE",
"610 61 CURVE SMOOTH",
"601 8 OFFCURVE",
"597 -34 OFFCURVE",
"599 -63 CURVE",
"603 -75 OFFCURVE",
"607 -83 OFFCURVE",
"610 -88 CURVE"
);
},
{
closed = 1;
nodes = (
"259 543 OFFCURVE",
"267 547 OFFCURVE",
"276 556 CURVE SMOOTH",
"286 565 OFFCURVE",
"294 570 OFFCURVE",
"300 571 CURVE",
"309 567 OFFCURVE",
"316 565 OFFCURVE",
"323 565 CURVE SMOOTH",
"334 565 OFFCURVE",
"347 568 OFFCURVE",
"362 575 CURVE SMOOTH",
"399 592 LINE",
"401 607 OFFCURVE",
"400 622 OFFCURVE",
"396 638 CURVE",
"353 665 OFFCURVE",
"321 678 OFFCURVE",
"300 677 CURVE",
"245 654 OFFCURVE",
"215 642 OFFCURVE",
"208 641 CURVE SMOOTH",
"207 641 OFFCURVE",
"203 641 OFFCURVE",
"196 642 CURVE SMOOTH",
"190 643 OFFCURVE",
"187 643 OFFCURVE",
"187 641 CURVE",
"205 628 OFFCURVE",
"218 613 OFFCURVE",
"225 595 CURVE",
"246 594 OFFCURVE",
"256 589 OFFCURVE",
"257 581 CURVE",
"247 566 OFFCURVE",
"242 554 OFFCURVE",
"243 545 CURVE",
"246 544 OFFCURVE",
"249 543 OFFCURVE",
"252 543 CURVE SMOOTH"
);
},
{
closed = 1;
nodes = (
"684 555 OFFCURVE",
"683 581 OFFCURVE",
"684 598 CURVE",
"705 571 OFFCURVE",
"717 548 OFFCURVE",
"720 528 CURVE",
"715 521 OFFCURVE",
"704 519 OFFCURVE",
"687 520 CURVE"
);
},
{
closed = 1;
nodes = (
"825 633 OFFCURVE",
"851 629 OFFCURVE",
"876 656 CURVE",
"865 720 OFFCURVE",
"803 762 OFFCURVE",
"738 744 CURVE",
"747 717 OFFCURVE",
"772 672 OFFCURVE",
"802 650 CURVE SMOOTH"
);
},
{
closed = 1;
nodes = (
"986 791 OFFCURVE",
"900 808 OFFCURVE",
"848 798 CURVE",
"865 778 OFFCURVE",
"886 740 OFFCURVE",
"911 716 CURVE SMOOTH",
"934 695 OFFCURVE",
"960 686 OFFCURVE",
"992 713 CURVE"
);
}
);
vertWidth = 1000;
width = 1000;
}
);
note = cid00859;
unicode = 3052;
},
{
glyphname = "ko-hira";
lastChange = "2020-12-04 08:10:26 +0000";
layers = (
{
hints = (
{
horizontal = 1;
place = "{239, 9}";
type = Stem;
},
{
place = "{178, 139}";
type = Stem;
},
{
place = "{477.5, 82.5}";
type = Stem;
}
);
layerId = "38E14F89-90D8-48C8-A96B-0BF2B2C9AEC9";
paths = (
{
closed = 1;
nodes = (
"554 256 OFFCURVE",
"559 297 OFFCURVE",
"560 349 CURVE SMOOTH",
"561 411 OFFCURVE",
"564 453 OFFCURVE",
"568 475 CURVE",
"631 488 OFFCURVE",
"694 492 OFFCURVE",
"758 489 CURVE",
"761 522 OFFCURVE",
"742 545 OFFCURVE",
"701 559 CURVE",
"601 580 LINE",
"592 577 OFFCURVE",
"573 561 OFFCURVE",
"560 560 CURVE",
"559 569 OFFCURVE",
"563 597 OFFCURVE",
"571 645 CURVE",
"564 662 OFFCURVE",
"554 679 OFFCURVE",
"539 696 CURVE SMOOTH",
"499 740 LINE",
"482 723 OFFCURVE",
"473 692 OFFCURVE",
"473 647 CURVE SMOOTH",
"473 543 LINE",
"390 530 OFFCURVE",
"320 518 OFFCURVE",
"263 506 CURVE",
"311 460 OFFCURVE",
"360 437 OFFCURVE",
"410 438 CURVE SMOOTH",
"432 438 OFFCURVE",
"454 443 OFFCURVE",
"476 452 CURVE",
"479 337 LINE",
"471 328 OFFCURVE",
"455 317 OFFCURVE",
"430 302 CURVE SMOOTH",
"406 288 OFFCURVE",
"391 277 OFFCURVE",
"385 269 CURVE",
"415 278 OFFCURVE",
"441 282 OFFCURVE",
"463 283 CURVE",
"474 270 OFFCURVE",
"483 256 OFFCURVE",
"495 242 CURVE SMOOTH",
"507 227 OFFCURVE",
"524 222 OFFCURVE",
"543 225 CURVE"
);
},
{
closed = 1;
nodes = (
"336 -2 OFFCURVE",
"341 7 OFFCURVE",
"341 18 CURVE SMOOTH",
"341 27 OFFCURVE",
"337 42 OFFCURVE",
"328 62 CURVE SMOOTH",
"320 82 OFFCURVE",
"316 98 OFFCURVE",
"317 110 CURVE",
"326 122 OFFCURVE",
"329 131 OFFCURVE",
"327 137 CURVE",
"334 139 OFFCURVE",
"347 146 OFFCURVE",
"365 158 CURVE SMOOTH",
"383 171 OFFCURVE",
"392 179 OFFCURVE",
"391 184 CURVE",
"340 158 OFFCURVE",
"299 131 OFFCURVE",
"266 104 CURVE",
"262 107 OFFCURVE",
"251 116 OFFCURVE",
"234 131 CURVE SMOOTH",
"221 142 OFFCURVE",
"209 149 OFFCURVE",
"198 154 CURVE",
"187 151 OFFCURVE",
"180 143 OFFCURVE",
"179 132 CURVE SMOOTH",
"178 118 OFFCURVE",
"178 104 OFFCURVE",
"178 90 CURVE",
"215 47 OFFCURVE",
"234 24 OFFCURVE",
"237 22 CURVE SMOOTH",
"264 -1 OFFCURVE",
"294 -12 OFFCURVE",
"327 -9 CURVE"
);
},
{
closed = 1;
nodes = (
"695 74 OFFCURVE",
"706 79 OFFCURVE",
"717 83 CURVE",
"770 76 LINE SMOOTH",
"789 73 OFFCURVE",
"806 72 OFFCURVE",
"819 72 CURVE SMOOTH",
"828 72 OFFCURVE",
"836 72 OFFCURVE",
"845 73 CURVE",
"857 82 OFFCURVE",
"863 97 OFFCURVE",
"863 120 CURVE SMOOTH",
"863 141 OFFCURVE",
"858 159 OFFCURVE",
"849 174 CURVE SMOOTH",
"842 187 OFFCURVE",
"823 202 OFFCURVE",
"794 219 CURVE SMOOTH",
"763 238 OFFCURVE",
"737 247 OFFCURVE",
"718 248 CURVE SMOOTH",
"707 248 OFFCURVE",
"700 245 OFFCURVE",
"696 239 CURVE",
"719 216 OFFCURVE",
"731 192 OFFCURVE",
"731 166 CURVE SMOOTH",
"731 150 OFFCURVE",
"726 135 OFFCURVE",
"717 120 CURVE",
"708 116 OFFCURVE",
"699 109 OFFCURVE",
"690 98 CURVE SMOOTH",
"669 73 LINE",
"679 77 OFFCURVE",
"685 76 OFFCURVE",
"686 69 CURVE"
);
}
);
vertWidth = 1000;
width = 1000;
}
);
note = cid00860;
unicode = 3053;
},
{
glyphname = "go-hira";
lastChange = "2020-12-04 08:10:26 +0000";
layers = (
{
hints = (
{
horizontal = 1;
place = "{231, 9}";
type = Stem;
},
{
horizontal = 1;
place = "{568, 112}";
type = Stem;
},
{
place = "{160, 139}";
type = Stem;
},
{
place = "{459.5, 82.5}";
type = Stem;
}
);
layerId = "38E14F89-90D8-48C8-A96B-0BF2B2C9AEC9";
paths = (
{
closed = 1;
nodes = (
"536 248 OFFCURVE",
"541 289 OFFCURVE",
"542 341 CURVE SMOOTH",
"543 403 OFFCURVE",
"546 445 OFFCURVE",
"550 467 CURVE",
"613 480 OFFCURVE",
"676 484 OFFCURVE",
"740 481 CURVE",
"743 514 OFFCURVE",
"724 537 OFFCURVE",
"683 551 CURVE",
"583 572 LINE",
"574 569 OFFCURVE",
"555 553 OFFCURVE",
"542 552 CURVE",
"541 561 OFFCURVE",
"545 589 OFFCURVE",
"553 637 CURVE",
"546 654 OFFCURVE",
"536 671 OFFCURVE",
"521 688 CURVE SMOOTH",
"481 732 LINE",
"464 715 OFFCURVE",
"455 684 OFFCURVE",
"455 639 CURVE SMOOTH",
"455 535 LINE",
"372 522 OFFCURVE",
"302 510 OFFCURVE",
"245 498 CURVE",
"293 452 OFFCURVE",
"342 429 OFFCURVE",
"392 430 CURVE SMOOTH",
"414 430 OFFCURVE",
"436 435 OFFCURVE",
"458 444 CURVE",
"461 329 LINE",
"453 320 OFFCURVE",
"437 309 OFFCURVE",
"412 294 CURVE SMOOTH",
"388 280 OFFCURVE",
"373 269 OFFCURVE",
"367 261 CURVE",
"397 270 OFFCURVE",
"423 274 OFFCURVE",
"445 275 CURVE",
"456 262 OFFCURVE",
"465 248 OFFCURVE",
"477 234 CURVE SMOOTH",
"489 219 OFFCURVE",
"506 214 OFFCURVE",
"525 217 CURVE"
);
},
{
closed = 1;
nodes = (
"318 -10 OFFCURVE",
"323 -1 OFFCURVE",
"323 10 CURVE SMOOTH",
"323 19 OFFCURVE",
"319 34 OFFCURVE",
"310 54 CURVE SMOOTH",
"302 74 OFFCURVE",
"298 90 OFFCURVE",
"299 102 CURVE",
"308 114 OFFCURVE",
"311 123 OFFCURVE",
"309 129 CURVE",
"316 131 OFFCURVE",
"329 138 OFFCURVE",
"347 150 CURVE SMOOTH",
"365 163 OFFCURVE",
"374 171 OFFCURVE",
"373 176 CURVE",
"322 150 OFFCURVE",
"281 123 OFFCURVE",
"248 96 CURVE",
"244 99 OFFCURVE",
"233 108 OFFCURVE",
"216 123 CURVE SMOOTH",
"203 134 OFFCURVE",
"191 141 OFFCURVE",
"180 146 CURVE",
"169 143 OFFCURVE",
"162 135 OFFCURVE",
"161 124 CURVE SMOOTH",
"160 110 OFFCURVE",
"160 96 OFFCURVE",
"160 82 CURVE",
"197 39 OFFCURVE",
"216 16 OFFCURVE",
"219 14 CURVE SMOOTH",
"246 -9 OFFCURVE",
"276 -20 OFFCURVE",
"309 -17 CURVE"
);
},
{
closed = 1;
nodes = (
"677 66 OFFCURVE",
"688 71 OFFCURVE",
"699 75 CURVE",
"752 68 LINE SMOOTH",
"771 65 OFFCURVE",
"788 64 OFFCURVE",
"801 64 CURVE SMOOTH",
"810 64 OFFCURVE",
"818 64 OFFCURVE",
"827 65 CURVE",
"839 74 OFFCURVE",
"845 89 OFFCURVE",
"845 112 CURVE SMOOTH",
"845 133 OFFCURVE",
"840 151 OFFCURVE",
"831 166 CURVE SMOOTH",
"824 179 OFFCURVE",
"805 194 OFFCURVE",
"776 211 CURVE SMOOTH",
"745 230 OFFCURVE",
"719 239 OFFCURVE",
"700 240 CURVE SMOOTH",
"689 240 OFFCURVE",
"682 237 OFFCURVE",
"678 231 CURVE",
"701 208 OFFCURVE",
"713 184 OFFCURVE",
"713 158 CURVE SMOOTH",
"713 142 OFFCURVE",
"708 127 OFFCURVE",
"699 112 CURVE",
"690 108 OFFCURVE",
"681 101 OFFCURVE",
"672 90 CURVE SMOOTH",
"651 65 LINE",
"661 69 OFFCURVE",
"667 68 OFFCURVE",
"668 61 CURVE"
);
},
{
closed = 1;
nodes = (
"768 565 OFFCURVE",
"794 561 OFFCURVE",
"819 588 CURVE",
"808 652 OFFCURVE",
"746 694 OFFCURVE",
"681 676 CURVE",
"690 649 OFFCURVE",
"715 604 OFFCURVE",
"745 582 CURVE SMOOTH"
);
},
{
closed = 1;
nodes = (
"929 723 OFFCURVE",
"843 740 OFFCURVE",
"791 730 CURVE",
"808 710 OFFCURVE",
"829 672 OFFCURVE",
"854 648 CURVE SMOOTH",
"877 627 OFFCURVE",
"903 618 OFFCURVE",
"935 645 CURVE"
);
}
);
vertWidth = 1000;
width = 1000;
}
);
note = cid00861;
unicode = 3054;
},
{
glyphname = "sa-hira";
lastChange = "2020-12-04 08:10:26 +0000";
layers = (
{
hints = (
{
horizontal = 1;
place = "{293, 102}";
type = Stem;
},
{
horizontal = 1;
place = "{504, 71}";
type = Stem;
},
{
place = "{423, 72}";
type = Stem;
}
);
layerId = "38E14F89-90D8-48C8-A96B-0BF2B2C9AEC9";
paths = (
{
closed = 1;
nodes = (
"515 268 OFFCURVE",
"555 282 OFFCURVE",
"580 294 CURVE",
"584 293 OFFCURVE",
"588 293 OFFCURVE",
"593 293 CURVE SMOOTH",
"604 293 OFFCURVE",
"617 296 OFFCURVE",
"634 302 CURVE SMOOTH",
"660 311 OFFCURVE",
"676 317 OFFCURVE",
"681 318 CURVE",
"692 335 OFFCURVE",
"697 349 OFFCURVE",
"697 360 CURVE SMOOTH",
"697 384 OFFCURVE",
"673 395 OFFCURVE",
"622 395 CURVE SMOOTH",
"606 395 OFFCURVE",
"567 392 OFFCURVE",
"505 385 CURVE",
"498 398 OFFCURVE",
"495 413 OFFCURVE",
"495 432 CURVE SMOOTH",
"495 449 OFFCURVE",
"497 466 OFFCURVE",
"502 484 CURVE",
"595 499 OFFCURVE",
"667 506 OFFCURVE",
"718 504 CURVE SMOOTH",
"725 504 OFFCURVE",
"740 502 OFFCURVE",
"762 498 CURVE SMOOTH",
"785 494 OFFCURVE",
"801 492 OFFCURVE",
"811 492 CURVE SMOOTH",
"834 492 OFFCURVE",
"846 502 OFFCURVE",
"847 521 CURVE SMOOTH",
"847 534 OFFCURVE",
"833 547 OFFCURVE",
"806 560 CURVE SMOOTH",
"785 570 OFFCURVE",
"767 576 OFFCURVE",
"752 578 CURVE SMOOTH",
"740 579 OFFCURVE",
"703 572 OFFCURVE",
"688 575 CURVE SMOOTH",
"679 576 OFFCURVE",
"668 582 OFFCURVE",
"654 593 CURVE SMOOTH",
"640 604 OFFCURVE",
"629 609 OFFCURVE",
"621 609 CURVE",
"641 592 OFFCURVE",
"651 580 OFFCURVE",
"651 571 CURVE",
"592 571 OFFCURVE",
"542 568 OFFCURVE",
"502 562 CURVE",
"505 577 OFFCURVE",
"508 605 OFFCURVE",
"511 648 CURVE SMOOTH",
"514 685 OFFCURVE",
"518 710 OFFCURVE",
"525 724 CURVE",
"508 735 OFFCURVE",
"493 741 OFFCURVE",
"481 741 CURVE SMOOTH",
"455 741 OFFCURVE",
"435 713 OFFCURVE",
"428 656 CURVE SMOOTH",
"423 618 OFFCURVE",
"421 580 OFFCURVE",
"417 541 CURVE",
"331 530 OFFCURVE",
"232 509 OFFCURVE",
"119 477 CURVE",
"148 451 OFFCURVE",
"163 437 OFFCURVE",
"166 436 CURVE SMOOTH",
"173 433 OFFCURVE",
"187 427 OFFCURVE",
"208 422 CURVE SMOOTH",
"248 412 LINE",
"269 411 OFFCURVE",
"296 416 OFFCURVE",
"331 431 CURVE SMOOTH",
"406 463 LINE",
"417 465 OFFCURVE",
"423 460 OFFCURVE",
"423 449 CURVE SMOOTH",
"424 394 OFFCURVE",
"452 346 OFFCURVE",
"505 304 CURVE",
"486 287 OFFCURVE",
"472 270 OFFCURVE",
"461 253 CURVE"
);
},
{
closed = 1;
nodes = (
"585 -44 OFFCURVE",
"598 -38 OFFCURVE",
"603 -27 CURVE",
"601 -5 OFFCURVE",
"589 13 OFFCURVE",
"567 23 CURVE SMOOTH",
"508 50 LINE",
"507 54 OFFCURVE",
"506 57 OFFCURVE",
"506 60 CURVE SMOOTH",
"506 68 OFFCURVE",
"511 77 OFFCURVE",
"521 86 CURVE SMOOTH",
"532 96 OFFCURVE",
"537 105 OFFCURVE",
"539 114 CURVE SMOOTH",
"543 139 OFFCURVE",
"531 163 OFFCURVE",
"502 184 CURVE SMOOTH",
"476 204 OFFCURVE",
"450 214 OFFCURVE",
"424 214 CURVE SMOOTH",
"411 214 OFFCURVE",
"400 211 OFFCURVE",
"390 206 CURVE",
"399 195 OFFCURVE",
"407 184 OFFCURVE",
"415 173 CURVE SMOOTH",
"426 158 OFFCURVE",
"433 143 OFFCURVE",
"434 128 CURVE SMOOTH",
"435 120 OFFCURVE",
"433 108 OFFCURVE",
"428 93 CURVE SMOOTH",
"424 78 OFFCURVE",
"422 67 OFFCURVE",
"423 60 CURVE SMOOTH",
"424 49 OFFCURVE",
"433 33 OFFCURVE",
"449 13 CURVE SMOOTH",
"463 -5 OFFCURVE",
"475 -17 OFFCURVE",
"484 -24 CURVE SMOOTH",
"506 -39 OFFCURVE",
"533 -46 OFFCURVE",
"564 -45 CURVE SMOOTH"
);
}
);
vertWidth = 1000;
width = 1000;
}
);
note = cid00862;
unicode = 3055;
},
{
glyphname = "za-hira";
lastChange = "2020-12-04 08:10:26 +0000";
layers = (
{
hints = (
{
horizontal = 1;
place = "{281, 102}";
type = Stem;
},
{
horizontal = 1;
place = "{492, 71}";
type = Stem;
},
{
horizontal = 1;
place = "{604, 112}";
type = Stem;
},
{
place = "{417, 72}";
type = Stem;
}
);
layerId = "38E14F89-90D8-48C8-A96B-0BF2B2C9AEC9";
paths = (
{
closed = 1;
nodes = (
"509 256 OFFCURVE",
"549 270 OFFCURVE",
"574 282 CURVE",
"578 281 OFFCURVE",
"582 281 OFFCURVE",
"587 281 CURVE SMOOTH",
"598 281 OFFCURVE",
"611 284 OFFCURVE",
"628 290 CURVE SMOOTH",
"654 299 OFFCURVE",
"670 305 OFFCURVE",
"675 306 CURVE",
"686 323 OFFCURVE",
"691 337 OFFCURVE",
"691 348 CURVE SMOOTH",
"691 372 OFFCURVE",
"667 383 OFFCURVE",
"616 383 CURVE SMOOTH",
"600 383 OFFCURVE",
"561 380 OFFCURVE",
"499 373 CURVE",
"492 386 OFFCURVE",
"489 401 OFFCURVE",
"489 420 CURVE SMOOTH",
"489 437 OFFCURVE",
"491 454 OFFCURVE",
"496 472 CURVE",
"589 487 OFFCURVE",
"661 494 OFFCURVE",
"712 492 CURVE SMOOTH",
"719 492 OFFCURVE",
"734 490 OFFCURVE",
"756 486 CURVE SMOOTH",
"779 482 OFFCURVE",
"795 480 OFFCURVE",
"805 480 CURVE SMOOTH",
"828 480 OFFCURVE",
"840 490 OFFCURVE",
"841 509 CURVE SMOOTH",
"841 522 OFFCURVE",
"827 535 OFFCURVE",
"800 548 CURVE SMOOTH",
"779 558 OFFCURVE",
"761 564 OFFCURVE",
"746 566 CURVE SMOOTH",
"734 567 OFFCURVE",
"697 560 OFFCURVE",
"682 563 CURVE SMOOTH",
"673 564 OFFCURVE",
"662 570 OFFCURVE",
"648 581 CURVE SMOOTH",
"634 592 OFFCURVE",
"623 597 OFFCURVE",
"615 597 CURVE",
"635 580 OFFCURVE",
"645 568 OFFCURVE",
"645 559 CURVE",
"586 559 OFFCURVE",
"536 556 OFFCURVE",
"496 550 CURVE",
"499 565 OFFCURVE",
"502 593 OFFCURVE",
"505 636 CURVE SMOOTH",
"508 673 OFFCURVE",
"512 698 OFFCURVE",
"519 712 CURVE",
"502 723 OFFCURVE",
"487 729 OFFCURVE",
"475 729 CURVE SMOOTH",
"449 729 OFFCURVE",
"429 701 OFFCURVE",
"422 644 CURVE SMOOTH",
"417 606 OFFCURVE",
"415 568 OFFCURVE",
"411 529 CURVE",
"325 518 OFFCURVE",
"226 497 OFFCURVE",
"113 465 CURVE",
"142 439 OFFCURVE",
"157 425 OFFCURVE",
"160 424 CURVE SMOOTH",
"167 421 OFFCURVE",
"181 415 OFFCURVE",
"202 410 CURVE SMOOTH",
"242 400 LINE",
"263 399 OFFCURVE",
"290 404 OFFCURVE",
"325 419 CURVE SMOOTH",
"400 451 LINE",
"411 453 OFFCURVE",
"417 448 OFFCURVE",
"417 437 CURVE SMOOTH",
"418 382 OFFCURVE",
"446 334 OFFCURVE",
"499 292 CURVE",
"480 275 OFFCURVE",
"466 258 OFFCURVE",
"455 241 CURVE"
);
},
{
closed = 1;
nodes = (
"579 -56 OFFCURVE",
"592 -50 OFFCURVE",
"597 -39 CURVE",
"595 -17 OFFCURVE",
"583 1 OFFCURVE",
"561 11 CURVE SMOOTH",
"502 38 LINE",
"501 42 OFFCURVE",
"500 45 OFFCURVE",
"500 48 CURVE SMOOTH",
"500 56 OFFCURVE",
"505 65 OFFCURVE",
"515 74 CURVE SMOOTH",
"526 84 OFFCURVE",
"531 93 OFFCURVE",
"533 102 CURVE SMOOTH",
"537 127 OFFCURVE",
"525 151 OFFCURVE",
"496 172 CURVE SMOOTH",
"470 192 OFFCURVE",
"444 202 OFFCURVE",
"418 202 CURVE SMOOTH",
"405 202 OFFCURVE",
"394 199 OFFCURVE",
"384 194 CURVE",
"393 183 OFFCURVE",
"401 172 OFFCURVE",
"409 161 CURVE SMOOTH",
"420 146 OFFCURVE",
"427 131 OFFCURVE",
"428 116 CURVE SMOOTH",
"429 108 OFFCURVE",
"427 96 OFFCURVE",
"422 81 CURVE SMOOTH",
"418 66 OFFCURVE",
"416 55 OFFCURVE",
"417 48 CURVE SMOOTH",
"418 37 OFFCURVE",
"427 21 OFFCURVE",
"443 1 CURVE SMOOTH",
"457 -17 OFFCURVE",
"469 -29 OFFCURVE",
"478 -36 CURVE SMOOTH",
"500 -51 OFFCURVE",
"527 -58 OFFCURVE",
"558 -57 CURVE SMOOTH"
);
},
{
closed = 1;
nodes = (
"772 601 OFFCURVE",
"798 597 OFFCURVE",
"823 624 CURVE",
"812 688 OFFCURVE",
"750 730 OFFCURVE",
"685 712 CURVE",
"694 685 OFFCURVE",
"719 640 OFFCURVE",
"749 618 CURVE SMOOTH"
);
},
{
closed = 1;
nodes = (
"933 759 OFFCURVE",
"847 776 OFFCURVE",
"795 766 CURVE",
"812 746 OFFCURVE",
"833 708 OFFCURVE",
"858 684 CURVE SMOOTH",
"881 663 OFFCURVE",
"907 654 OFFCURVE",
"939 681 CURVE"
);
}
);
vertWidth = 1000;
width = 1000;
}
);
note = cid00863;
unicode = 3056;
},
{
glyphname = "si-hira";
lastChange = "2020-12-04 08:10:26 +0000";
layers = (
{
hints = (
{
horizontal = 1;
place = "{-27, 759}";
type = Stem;
},
{
place = "{413, 92}";
type = Stem;
}
);
layerId = "38E14F89-90D8-48C8-A96B-0BF2B2C9AEC9";
paths = (
{
closed = 1;
nodes = (
"656 -27 OFFCURVE",
"682 -24 OFFCURVE",
"708 -17 CURVE",
"715 -9 OFFCURVE",
"729 -2 OFFCURVE",
"752 4 CURVE SMOOTH",
"775 10 OFFCURVE",
"790 15 OFFCURVE",
"796 20 CURVE",
"634 40 LINE SMOOTH",
"564 49 OFFCURVE",
"523 78 OFFCURVE",
"509 119 CURVE SMOOTH",
"504 132 OFFCURVE",
"502 151 OFFCURVE",
"503 174 CURVE SMOOTH",
"504 215 OFFCURVE",
"505 236 OFFCURVE",
"505 237 CURVE SMOOTH",
"505 247 OFFCURVE",
"505 286 OFFCURVE",
"504 355 CURVE SMOOTH",
"503 395 OFFCURVE",
"501 428 OFFCURVE",
"498 454 CURVE",
"487 466 OFFCURVE",
"469 479 OFFCURVE",
"445 490 CURVE SMOOTH",
"418 503 OFFCURVE",
"400 513 OFFCURVE",
"390 522 CURVE",
"401 564 OFFCURVE",
"421 598 OFFCURVE",
"451 624 CURVE",
"466 611 OFFCURVE",
"486 604 OFFCURVE",
"513 604 CURVE SMOOTH",
"527 604 OFFCURVE",
"546 606 OFFCURVE",
"569 610 CURVE",
"570 616 OFFCURVE",
"570 621 OFFCURVE",
"570 626 CURVE SMOOTH",
"570 664 OFFCURVE",
"545 691 OFFCURVE",
"496 707 CURVE",
"456 715 OFFCURVE",
"416 723 OFFCURVE",
"376 732 CURVE",
"381 718 OFFCURVE",
"392 702 OFFCURVE",
"407 685 CURVE SMOOTH",
"424 665 OFFCURVE",
"435 650 OFFCURVE",
"440 640 CURVE",
"405 573 LINE SMOOTH",
"391 546 OFFCURVE",
"379 525 OFFCURVE",
"366 511 CURVE",
"367 503 OFFCURVE",
"371 493 OFFCURVE",
"380 481 CURVE SMOOTH",
"391 466 OFFCURVE",
"397 454 OFFCURVE",
"400 447 CURVE SMOOTH",
"411 418 OFFCURVE",
"415 372 OFFCURVE",
"413 308 CURVE SMOOTH",
"410 233 OFFCURVE",
"411 183 OFFCURVE",
"414 160 CURVE SMOOTH",
"431 45 OFFCURVE",
"516 -27 OFFCURVE",
"631 -27 CURVE SMOOTH"
);
}
);
vertWidth = 1000;
width = 1000;
}
);
note = cid00864;
unicode = 3057;
},
{
glyphname = "zi-hira";
lastChange = "2020-12-04 08:10:26 +0000";
layers = (
{
hints = (
{
horizontal = 1;
place = "{462, 112}";
type = Stem;
},
{
place = "{381, 92}";
type = Stem;
}
);
layerId = "38E14F89-90D8-48C8-A96B-0BF2B2C9AEC9";
paths = (
{
closed = 1;
nodes = (
"624 -29 OFFCURVE",
"650 -26 OFFCURVE",
"676 -19 CURVE",
"683 -11 OFFCURVE",
"697 -4 OFFCURVE",
"720 2 CURVE SMOOTH",
"743 8 OFFCURVE",
"758 13 OFFCURVE",
"764 18 CURVE",
"602 38 LINE SMOOTH",
"533 47 OFFCURVE",
"491 76 OFFCURVE",
"477 117 CURVE SMOOTH",
"472 130 OFFCURVE",
"470 149 OFFCURVE",
"471 172 CURVE SMOOTH",
"472 213 OFFCURVE",
"473 234 OFFCURVE",
"473 235 CURVE SMOOTH",
"473 245 OFFCURVE",
"473 284 OFFCURVE",
"472 353 CURVE SMOOTH",
"471 393 OFFCURVE",
"469 426 OFFCURVE",
"466 452 CURVE",
"455 464 OFFCURVE",
"437 477 OFFCURVE",
"413 488 CURVE SMOOTH",
"386 501 OFFCURVE",
"368 511 OFFCURVE",
"358 520 CURVE",
"369 562 OFFCURVE",
"389 596 OFFCURVE",
"419 622 CURVE",
"434 609 OFFCURVE",
"454 602 OFFCURVE",
"481 602 CURVE SMOOTH",
"495 602 OFFCURVE",
"514 604 OFFCURVE",
"537 608 CURVE",
"538 614 OFFCURVE",
"538 619 OFFCURVE",
"538 624 CURVE SMOOTH",
"538 662 OFFCURVE",
"513 689 OFFCURVE",
"464 705 CURVE",
"424 713 OFFCURVE",
"384 721 OFFCURVE",
"344 730 CURVE",
"349 716 OFFCURVE",
"360 700 OFFCURVE",
"375 683 CURVE SMOOTH",
"392 663 OFFCURVE",
"403 648 OFFCURVE",
"408 638 CURVE",
"373 571 LINE SMOOTH",
"359 544 OFFCURVE",
"347 523 OFFCURVE",
"334 509 CURVE",
"335 501 OFFCURVE",
"339 491 OFFCURVE",
"348 479 CURVE SMOOTH",
"359 464 OFFCURVE",
"365 452 OFFCURVE",
"368 445 CURVE SMOOTH",
"379 416 OFFCURVE",
"383 370 OFFCURVE",
"381 306 CURVE SMOOTH",
"378 231 OFFCURVE",
"379 181 OFFCURVE",
"382 158 CURVE SMOOTH",
"399 43 OFFCURVE",
"484 -29 OFFCURVE",
"599 -29 CURVE SMOOTH"
);
},
{
closed = 1;
nodes = (
"734 459 OFFCURVE",
"760 455 OFFCURVE",
"785 482 CURVE",
"774 546 OFFCURVE",
"712 588 OFFCURVE",
"647 570 CURVE",
"656 543 OFFCURVE",
"681 498 OFFCURVE",
"711 476 CURVE SMOOTH"
);
},
{
closed = 1;
nodes = (
"895 617 OFFCURVE",
"809 634 OFFCURVE",
"757 624 CURVE",
"774 604 OFFCURVE",
"795 566 OFFCURVE",
"820 542 CURVE SMOOTH",
"843 521 OFFCURVE",
"869 512 OFFCURVE",
"901 539 CURVE"
);
}
);
vertWidth = 1000;
width = 1000;
}
);
note = cid00865;
unicode = 3058;
},
{
glyphname = "su-hira";
lastChange = "2020-12-04 08:10:26 +0000";
layers = (
{
hints = (
{
horizontal = 1;
place = "{14, 95}";
type = Stem;
},
{
horizontal = 1;
place = "{219, 78}";
type = Stem;
},
{
horizontal = 1;
place = "{466, 68}";
type = Stem;
},
{
place = "{462, 79}";
type = Stem;
},
{
place = "{591.5, 81.5}";
type = Stem;
},
{
horizontal = 1;
place = "{449, 82}";
type = Stem;
},
{
place = "{587, 80}";
type = Stem;
},
{
place = "{600, 72}";
type = Stem;
}
);
layerId = "38E14F89-90D8-48C8-A96B-0BF2B2C9AEC9";
paths = (
{
closed = 1;
nodes = (
"627 14 OFFCURVE",
"646 20 OFFCURVE",
"659 31 CURVE",
"674 86 OFFCURVE",
"682 126 OFFCURVE",
"682 151 CURVE SMOOTH",
"682 164 OFFCURVE",
"680 174 OFFCURVE",
"676 179 CURVE",
"678 190 OFFCURVE",
"679 201 OFFCURVE",
"679 213 CURVE SMOOTH",
"679 224 OFFCURVE",
"678 241 OFFCURVE",
"675 262 CURVE SMOOTH",
"673 283 OFFCURVE",
"672 300 OFFCURVE",
"672 311 CURVE SMOOTH",
"672 326 OFFCURVE",
"673 341 OFFCURVE",
"676 354 CURVE",
"670 366 OFFCURVE",
"667 380 OFFCURVE",
"667 397 CURVE SMOOTH",
"667 417 OFFCURVE",
"671 440 OFFCURVE",
"679 466 CURVE",
"709 468 OFFCURVE",
"743 465 OFFCURVE",
"781 456 CURVE SMOOTH",
"828 446 OFFCURVE",
"859 440 OFFCURVE",
"874 439 CURVE",
"883 449 OFFCURVE",
"888 458 OFFCURVE",
"888 467 CURVE SMOOTH",
"888 485 OFFCURVE",
"869 504 OFFCURVE",
"828 517 CURVE SMOOTH",
"745 544 LINE",
"734 539 OFFCURVE",
"720 534 OFFCURVE",
"705 534 CURVE SMOOTH",
"673 534 LINE",
"673 548 OFFCURVE",
"676 568 OFFCURVE",
"682 593 CURVE SMOOTH",
"688 618 OFFCURVE",
"691 636 OFFCURVE",
"691 647 CURVE SMOOTH",
"692 670 OFFCURVE",
"683 690 OFFCURVE",
"666 705 CURVE",
"654 706 OFFCURVE",
"629 729 OFFCURVE",
"620 726 CURVE SMOOTH",
"611 723 OFFCURVE",
"606 722 OFFCURVE",
"606 722 CURVE",
"599 697 OFFCURVE",
"594 666 OFFCURVE",
"593 630 CURVE SMOOTH",
"590 531 LINE",
"525 531 OFFCURVE",
"443 521 OFFCURVE",
"345 502 CURVE SMOOTH",
"200 473 OFFCURVE",
"119 458 OFFCURVE",
"103 456 CURVE",
"129 427 OFFCURVE",
"148 409 OFFCURVE",
"159 400 CURVE SMOOTH",
"182 383 OFFCURVE",
"206 375 OFFCURVE",
"232 375 CURVE SMOOTH",
"244 375 OFFCURVE",
"257 376 OFFCURVE",
"271 380 CURVE SMOOTH",
"362 406 OFFCURVE",
"435 430 OFFCURVE",
"492 449 CURVE",
"534 455 OFFCURVE",
"566 458 OFFCURVE",
"587 459 CURVE",
"592 373 OFFCURVE",
"598 311 OFFCURVE",
"600 272 CURVE SMOOTH",
"602 215 OFFCURVE",
"592 163 OFFCURVE",
"574 117 CURVE",
"560 112 OFFCURVE",
"547 109 OFFCURVE",
"534 109 CURVE SMOOTH",
"519 109 OFFCURVE",
"507 113 OFFCURVE",
"498 120 CURVE",
"527 136 OFFCURVE",
"541 158 OFFCURVE",
"541 185 CURVE SMOOTH",
"541 220 OFFCURVE",
"517 254 OFFCURVE",
"460 278 CURVE SMOOTH",
"431 291 OFFCURVE",
"403 297 OFFCURVE",
"374 297 CURVE SMOOTH",
"349 297 OFFCURVE",
"328 292 OFFCURVE",
"311 281 CURVE",
"306 268 OFFCURVE",
"303 256 OFFCURVE",
"303 244 CURVE SMOOTH",
"303 217 OFFCURVE",
"318 193 OFFCURVE",
"348 170 CURVE SMOOTH",
"420 114 LINE",
"425 109 OFFCURVE",
"418 88 OFFCURVE",
"426 87 CURVE",
"436 88 OFFCURVE",
"449 81 OFFCURVE",
"466 68 CURVE SMOOTH",
"483 55 OFFCURVE",
"498 49 OFFCURVE",
"511 48 CURVE",
"529 25 OFFCURVE",
"559 14 OFFCURVE",
"601 14 CURVE SMOOTH"
);
},
{
closed = 1;
nodes = (
"407 154 OFFCURVE",
"384 181 OFFCURVE",
"377 219 CURVE",
"420 218 OFFCURVE",
"449 207 OFFCURVE",
"462 186 CURVE",
"464 170 OFFCURVE",
"458 154 OFFCURVE",
"445 139 CURVE"
);
}
);
vertWidth = 1000;
width = 1000;
}
);
note = cid00866;
unicode = 3059;
},
{
glyphname = "zu-hira";
lastChange = "2020-12-04 08:10:26 +0000";
layers = (
{
hints = (
{
horizontal = 1;
place = "{10, 95}";
type = Stem;
},
{
horizontal = 1;
place = "{215, 78}";
type = Stem;
},
{
horizontal = 1;
place = "{462, 68}";
type = Stem;
},
{
horizontal = 1;
place = "{582, 112}";
type = Stem;
},
{
place = "{452, 79}";
type = Stem;
},
{
place = "{581.5, 81.5}";
type = Stem;
},
{
horizontal = 1;
place = "{445, 82}";
type = Stem;
},
{
place = "{577, 80}";
type = Stem;
},
{
place = "{590, 72}";
type = Stem;
}
);
layerId = "38E14F89-90D8-48C8-A96B-0BF2B2C9AEC9";
paths = (
{
closed = 1;
nodes = (
"617 10 OFFCURVE",
"636 16 OFFCURVE",
"649 27 CURVE",
"664 82 OFFCURVE",
"672 122 OFFCURVE",
"672 147 CURVE SMOOTH",
"672 160 OFFCURVE",
"670 170 OFFCURVE",
"666 175 CURVE",
"668 186 OFFCURVE",
"669 197 OFFCURVE",
"669 209 CURVE SMOOTH",
"669 220 OFFCURVE",
"668 237 OFFCURVE",
"665 258 CURVE SMOOTH",
"663 279 OFFCURVE",
"662 296 OFFCURVE",
"662 307 CURVE SMOOTH",
"662 322 OFFCURVE",
"663 337 OFFCURVE",
"666 350 CURVE",
"660 362 OFFCURVE",
"657 376 OFFCURVE",
"657 393 CURVE SMOOTH",
"657 413 OFFCURVE",
"661 436 OFFCURVE",
"669 462 CURVE",
"699 464 OFFCURVE",
"733 461 OFFCURVE",
"771 452 CURVE SMOOTH",
"818 442 OFFCURVE",
"849 436 OFFCURVE",
"864 435 CURVE",
"873 445 OFFCURVE",
"878 454 OFFCURVE",
"878 463 CURVE SMOOTH",
"878 481 OFFCURVE",
"859 500 OFFCURVE",
"818 513 CURVE SMOOTH",
"735 540 LINE",
"724 535 OFFCURVE",
"710 530 OFFCURVE",
"695 530 CURVE SMOOTH",
"663 530 LINE",
"663 544 OFFCURVE",
"666 564 OFFCURVE",
"672 589 CURVE SMOOTH",
"678 614 OFFCURVE",
"681 632 OFFCURVE",
"681 643 CURVE SMOOTH",
"682 666 OFFCURVE",
"673 686 OFFCURVE",
"656 701 CURVE",
"644 702 OFFCURVE",
"619 725 OFFCURVE",
"610 722 CURVE SMOOTH",
"601 719 OFFCURVE",
"596 718 OFFCURVE",
"596 718 CURVE",
"589 693 OFFCURVE",
"584 662 OFFCURVE",
"583 626 CURVE SMOOTH",
"580 527 LINE",
"515 527 OFFCURVE",
"433 517 OFFCURVE",
"335 498 CURVE SMOOTH",
"190 469 OFFCURVE",
"109 454 OFFCURVE",
"93 452 CURVE",
"119 423 OFFCURVE",
"138 405 OFFCURVE",
"149 396 CURVE SMOOTH",
"172 379 OFFCURVE",
"196 371 OFFCURVE",
"222 371 CURVE SMOOTH",
"234 371 OFFCURVE",
"247 372 OFFCURVE",
"261 376 CURVE SMOOTH",
"352 402 OFFCURVE",
"425 426 OFFCURVE",
"482 445 CURVE",
"524 451 OFFCURVE",
"556 454 OFFCURVE",
"577 455 CURVE",
"582 369 OFFCURVE",
"588 307 OFFCURVE",
"590 268 CURVE SMOOTH",
"592 211 OFFCURVE",
"582 159 OFFCURVE",
"564 113 CURVE",
"550 108 OFFCURVE",
"537 105 OFFCURVE",
"524 105 CURVE SMOOTH",
"509 105 OFFCURVE",
"497 109 OFFCURVE",
"488 116 CURVE",
"517 132 OFFCURVE",
"531 154 OFFCURVE",
"531 181 CURVE SMOOTH",
"531 216 OFFCURVE",
"507 250 OFFCURVE",
"450 274 CURVE SMOOTH",
"421 287 OFFCURVE",
"393 293 OFFCURVE",
"364 293 CURVE SMOOTH",
"339 293 OFFCURVE",
"318 288 OFFCURVE",
"301 277 CURVE",
"296 264 OFFCURVE",
"293 252 OFFCURVE",
"293 240 CURVE SMOOTH",
"293 213 OFFCURVE",
"308 189 OFFCURVE",
"338 166 CURVE SMOOTH",
"410 110 LINE",
"415 105 OFFCURVE",
"408 84 OFFCURVE",
"416 83 CURVE",
"426 84 OFFCURVE",
"439 77 OFFCURVE",
"456 64 CURVE SMOOTH",
"473 51 OFFCURVE",
"488 45 OFFCURVE",
"501 44 CURVE",
"519 21 OFFCURVE",
"549 10 OFFCURVE",
"591 10 CURVE SMOOTH"
);
},
{
closed = 1;
nodes = (
"397 150 OFFCURVE",
"374 177 OFFCURVE",
"367 215 CURVE",
"410 214 OFFCURVE",
"439 203 OFFCURVE",
"452 182 CURVE",
"454 166 OFFCURVE",
"448 150 OFFCURVE",
"435 135 CURVE"
);
},
{
closed = 1;
nodes = (
"818 579 OFFCURVE",
"844 575 OFFCURVE",
"869 602 CURVE",
"858 666 OFFCURVE",
"796 708 OFFCURVE",
"731 690 CURVE",
"740 663 OFFCURVE",
"765 618 OFFCURVE",
"795 596 CURVE SMOOTH"
);
},
{
closed = 1;
nodes = (
"979 737 OFFCURVE",
"893 754 OFFCURVE",
"841 744 CURVE",
"858 724 OFFCURVE",
"879 686 OFFCURVE",
"904 662 CURVE SMOOTH",
"927 641 OFFCURVE",
"953 632 OFFCURVE",
"985 659 CURVE"
);
}
);
vertWidth = 1000;
width = 1000;
}
);
note = cid00867;
unicode = 305A;
},
{
glyphname = "se-hira";
lastChange = "2020-12-04 08:10:26 +0000";
layers = (
{
hints = (
{
horizontal = 1;
place = "{5, 78}";
type = Stem;
},
{
place = "{201, 613}";
type = Stem;
}
);
layerId = "38E14F89-90D8-48C8-A96B-0BF2B2C9AEC9";
paths = (
{
closed = 1;
nodes = (
"489 5 OFFCURVE",
"517 6 OFFCURVE",
"555 8 CURVE SMOOTH",
"594 11 OFFCURVE",
"622 12 OFFCURVE",
"641 12 CURVE SMOOTH",
"644 12 OFFCURVE",
"650 8 OFFCURVE",
"655 9 CURVE SMOOTH",
"664 10 OFFCURVE",
"679 14 OFFCURVE",
"700 20 CURVE SMOOTH",
"715 25 OFFCURVE",
"725 26 OFFCURVE",
"730 25 CURVE",
"733 29 OFFCURVE",
"731 41 OFFCURVE",
"736 45 CURVE",
"716 64 OFFCURVE",
"702 76 OFFCURVE",
"693 81 CURVE SMOOTH",
"676 92 OFFCURVE",
"654 99 OFFCURVE",
"628 103 CURVE",
"591 90 OFFCURVE",
"548 83 OFFCURVE",
"497 83 CURVE SMOOTH",
"462 83 OFFCURVE",
"434 87 OFFCURVE",
"411 94 CURVE",
"416 100 OFFCURVE",
"417 105 OFFCURVE",
"415 110 CURVE",
"424 113 OFFCURVE",
"432 121 OFFCURVE",
"440 133 CURVE SMOOTH",
"451 150 OFFCURVE",
"457 159 OFFCURVE",
"459 161 CURVE",
"468 166 OFFCURVE",
"481 172 OFFCURVE",
"482 185 CURVE",
"494 182 OFFCURVE",
"499 190 OFFCURVE",
"506 194 CURVE",
"506 199 OFFCURVE",
"505 203 OFFCURVE",
"503 205 CURVE",
"525 209 OFFCURVE",
"541 212 OFFCURVE",
"550 215 CURVE",
"589 163 OFFCURVE",
"619 137 OFFCURVE",
"642 137 CURVE SMOOTH",
"655 137 OFFCURVE",
"666 145 OFFCURVE",
"675 161 CURVE",
"645 205 LINE SMOOTH",
"633 222 OFFCURVE",
"629 242 OFFCURVE",
"628 263 CURVE",
"647 279 OFFCURVE",
"675 294 OFFCURVE",
"710 306 CURVE SMOOTH",
"741 317 OFFCURVE",
"773 326 OFFCURVE",
"804 337 CURVE",
"805 342 OFFCURVE",
"814 355 OFFCURVE",
"814 362 CURVE SMOOTH",
"814 365 OFFCURVE",
"813 368 OFFCURVE",
"811 371 CURVE SMOOTH",
"793 394 OFFCURVE",
"771 405 OFFCURVE",
"746 405 CURVE SMOOTH",
"722 405 OFFCURVE",
"691 394 OFFCURVE",
"654 372 CURVE SMOOTH",
"599 339 OFFCURVE",
"570 321 OFFCURVE",
"567 320 CURVE",
"543 385 OFFCURVE",
"526 433 OFFCURVE",
"517 465 CURVE",
"608 498 OFFCURVE",
"678 521 OFFCURVE",
"727 534 CURVE",
"706 579 OFFCURVE",
"667 602 OFFCURVE",
"612 602 CURVE SMOOTH",
"599 602 OFFCURVE",
"585 601 OFFCURVE",
"570 598 CURVE",
"546 612 OFFCURVE",
"533 619 OFFCURVE",
"530 619 CURVE",
"546 599 OFFCURVE",
"558 584 OFFCURVE",
"567 575 CURVE",
"533 566 OFFCURVE",
"508 559 OFFCURVE",
"492 554 CURVE",
"455 663 LINE SMOOTH",
"439 709 OFFCURVE",
"412 734 OFFCURVE",
"381 740 CURVE SMOOTH",
"380 740 OFFCURVE",
"375 727 OFFCURVE",
"364 730 CURVE",
"364 703 OFFCURVE",
"369 673 OFFCURVE",
"382 638 CURVE SMOOTH",
"415 547 LINE",
"402 537 OFFCURVE",
"369 530 OFFCURVE",
"317 526 CURVE SMOOTH",
"260 521 OFFCURVE",
"222 513 OFFCURVE",
"201 503 CURVE",
"216 490 OFFCURVE",
"231 473 OFFCURVE",
"252 476 CURVE",
"271 450 OFFCURVE",
"305 437 OFFCURVE",
"354 437 CURVE SMOOTH",
"381 437 OFFCURVE",
"408 441 OFFCURVE",
"435 449 CURVE",
"471 375 OFFCURVE",
"497 318 OFFCURVE",
"512 279 CURVE",
"496 268 OFFCURVE",
"463 243 OFFCURVE",
"414 204 CURVE SMOOTH",
"375 172 OFFCURVE",
"340 149 OFFCURVE",
"310 134 CURVE",
"313 94 OFFCURVE",
"326 61 OFFCURVE",
"337 29 CURVE",
"371 13 OFFCURVE",
"415 5 OFFCURVE",
"470 5 CURVE SMOOTH"
);
}
);
vertWidth = 1000;
width = 1000;
}
);
note = cid00868;
unicode = 305B;
},
{
glyphname = "ze-hira";
lastChange = "2020-12-04 08:10:26 +0000";
layers = (
{
hints = (
{
horizontal = 1;
place = "{-3, 78}";
type = Stem;
},
{
horizontal = 1;
place = "{594, 112}";
type = Stem;
},
{
place = "{191, 730}";
type = Stem;
}
);
layerId = "38E14F89-90D8-48C8-A96B-0BF2B2C9AEC9";
paths = (
{
closed = 1;
nodes = (
"479 -3 OFFCURVE",
"507 -2 OFFCURVE",
"545 0 CURVE SMOOTH",
"584 3 OFFCURVE",
"612 4 OFFCURVE",
"631 4 CURVE SMOOTH",
"634 4 OFFCURVE",
"640 0 OFFCURVE",
"645 1 CURVE SMOOTH",
"654 2 OFFCURVE",
"669 6 OFFCURVE",
"690 12 CURVE SMOOTH",
"705 17 OFFCURVE",
"715 18 OFFCURVE",
"720 17 CURVE",
"723 21 OFFCURVE",
"721 33 OFFCURVE",
"726 37 CURVE",
"706 56 OFFCURVE",
"692 68 OFFCURVE",
"683 73 CURVE SMOOTH",
"666 84 OFFCURVE",
"644 91 OFFCURVE",
"618 95 CURVE",
"581 82 OFFCURVE",
"538 75 OFFCURVE",
"487 75 CURVE SMOOTH",
"452 75 OFFCURVE",
"424 79 OFFCURVE",
"401 86 CURVE",
"406 92 OFFCURVE",
"407 97 OFFCURVE",
"405 102 CURVE",
"414 105 OFFCURVE",
"422 113 OFFCURVE",
"430 125 CURVE SMOOTH",
"441 142 OFFCURVE",
"447 151 OFFCURVE",
"449 153 CURVE",
"458 158 OFFCURVE",
"471 164 OFFCURVE",
"472 177 CURVE",
"484 174 OFFCURVE",
"489 182 OFFCURVE",
"496 186 CURVE",
"496 191 OFFCURVE",
"495 195 OFFCURVE",
"493 197 CURVE",
"515 201 OFFCURVE",
"531 204 OFFCURVE",
"540 207 CURVE",
"579 155 OFFCURVE",
"609 129 OFFCURVE",
"632 129 CURVE SMOOTH",
"645 129 OFFCURVE",
"656 137 OFFCURVE",
"665 153 CURVE",
"635 197 LINE SMOOTH",
"623 214 OFFCURVE",
"619 234 OFFCURVE",
"618 255 CURVE",
"637 271 OFFCURVE",
"665 286 OFFCURVE",
"700 298 CURVE SMOOTH",
"731 309 OFFCURVE",
"763 318 OFFCURVE",
"794 329 CURVE",
"795 334 OFFCURVE",
"804 347 OFFCURVE",
"804 354 CURVE SMOOTH",
"804 357 OFFCURVE",
"803 360 OFFCURVE",
"801 363 CURVE SMOOTH",
"783 386 OFFCURVE",
"761 397 OFFCURVE",
"736 397 CURVE SMOOTH",
"712 397 OFFCURVE",
"681 386 OFFCURVE",
"644 364 CURVE SMOOTH",
"589 331 OFFCURVE",
"560 313 OFFCURVE",
"557 312 CURVE",
"533 377 OFFCURVE",
"516 425 OFFCURVE",
"507 457 CURVE",
"598 490 OFFCURVE",
"668 513 OFFCURVE",
"717 526 CURVE",
"696 571 OFFCURVE",
"657 594 OFFCURVE",
"602 594 CURVE SMOOTH",
"589 594 OFFCURVE",
"575 593 OFFCURVE",
"560 590 CURVE",
"536 604 OFFCURVE",
"523 611 OFFCURVE",
"520 611 CURVE",
"536 591 OFFCURVE",
"548 576 OFFCURVE",
"557 567 CURVE",
"523 558 OFFCURVE",
"498 551 OFFCURVE",
"482 546 CURVE",
"445 655 LINE SMOOTH",
"429 701 OFFCURVE",
"402 726 OFFCURVE",
"371 732 CURVE SMOOTH",
"370 732 OFFCURVE",
"365 719 OFFCURVE",
"354 722 CURVE",
"354 695 OFFCURVE",
"359 665 OFFCURVE",
"372 630 CURVE SMOOTH",
"405 539 LINE",
"392 529 OFFCURVE",
"359 522 OFFCURVE",
"307 518 CURVE SMOOTH",
"250 513 OFFCURVE",
"212 505 OFFCURVE",
"191 495 CURVE",
"206 482 OFFCURVE",
"221 465 OFFCURVE",
"242 468 CURVE",
"261 442 OFFCURVE",
"295 429 OFFCURVE",
"344 429 CURVE SMOOTH",
"371 429 OFFCURVE",
"398 433 OFFCURVE",
"425 441 CURVE",
"461 367 OFFCURVE",
"487 310 OFFCURVE",
"502 271 CURVE",
"486 260 OFFCURVE",
"453 235 OFFCURVE",
"404 196 CURVE SMOOTH",
"365 164 OFFCURVE",
"330 141 OFFCURVE",
"300 126 CURVE",
"303 86 OFFCURVE",
"316 53 OFFCURVE",
"327 21 CURVE",
"361 5 OFFCURVE",
"405 -3 OFFCURVE",
"460 -3 CURVE SMOOTH"
);
},
{
closed = 1;
nodes = (
"754 591 OFFCURVE",
"780 587 OFFCURVE",
"805 614 CURVE",
"794 678 OFFCURVE",
"732 720 OFFCURVE",
"667 702 CURVE",
"676 675 OFFCURVE",
"701 630 OFFCURVE",
"731 608 CURVE SMOOTH"
);
},
{
closed = 1;
nodes = (
"915 749 OFFCURVE",
"829 766 OFFCURVE",
"777 756 CURVE",
"794 736 OFFCURVE",
"815 698 OFFCURVE",
"840 674 CURVE SMOOTH",
"863 653 OFFCURVE",
"889 644 OFFCURVE",
"921 671 CURVE"
);
}
);
vertWidth = 1000;
width = 1000;
}
);
note = cid00869;
unicode = 305C;
},
{
glyphname = "so-hira";
lastChange = "2020-12-04 08:10:26 +0000";
layers = (
{
hints = (
{
horizontal = 1;
place = "{374, 67}";
type = Stem;
},
{
horizontal = 1;
place = "{708, 35}";
type = Stem;
},
{
place = "{633, 97}";
type = Stem;
}
);
layerId = "38E14F89-90D8-48C8-A96B-0BF2B2C9AEC9";
paths = (
{
closed = 1;
nodes = (
"579 -80 OFFCURVE",
"682 -14 OFFCURVE",
"715 115 CURVE SMOOTH",
"724 151 OFFCURVE",
"729 186 OFFCURVE",
"730 220 CURVE SMOOTH",
"731 282 OFFCURVE",
"718 333 OFFCURVE",
"691 373 CURVE SMOOTH",
"660 418 OFFCURVE",
"616 441 OFFCURVE",
"557 441 CURVE SMOOTH",
"534 441 OFFCURVE",
"510 437 OFFCURVE",
"485 430 CURVE",
"553 497 OFFCURVE",
"583 525 OFFCURVE",
"601 542 CURVE SMOOTH",
"641 579 OFFCURVE",
"664 603 OFFCURVE",
"672 612 CURVE SMOOTH",
"700 645 OFFCURVE",
"712 672 OFFCURVE",
"709 691 CURVE SMOOTH",
"704 723 OFFCURVE",
"671 742 OFFCURVE",
"638 743 CURVE SMOOTH",
"614 744 OFFCURVE",
"598 736 OFFCURVE",
"590 721 CURVE",
"554 716 OFFCURVE",
"516 701 OFFCURVE",
"476 676 CURVE SMOOTH",
"420 641 OFFCURVE",
"386 621 OFFCURVE",
"373 616 CURVE",
"364 622 OFFCURVE",
"361 632 OFFCURVE",
"364 647 CURVE",
"355 651 OFFCURVE",
"340 664 OFFCURVE",
"319 687 CURVE SMOOTH",
"302 705 OFFCURVE",
"284 715 OFFCURVE",
"265 718 CURVE",
"260 596 OFFCURVE",
"294 535 OFFCURVE",
"367 535 CURVE SMOOTH",
"376 535 OFFCURVE",
"386 536 OFFCURVE",
"397 538 CURVE",
"406 546 OFFCURVE",
"414 558 OFFCURVE",
"420 575 CURVE SMOOTH",
"429 601 OFFCURVE",
"434 615 OFFCURVE",
"435 616 CURVE",
"464 673 OFFCURVE",
"519 703 OFFCURVE",
"601 708 CURVE",
"598 699 OFFCURVE",
"591 686 OFFCURVE",
"580 670 CURVE SMOOTH",
"569 655 OFFCURVE",
"563 641 OFFCURVE",
"560 630 CURVE",
"494 549 OFFCURVE",
"444 489 OFFCURVE",
"411 450 CURVE SMOOTH",
"383 416 OFFCURVE",
"367 396 OFFCURVE",
"364 389 CURVE",
"323 367 LINE SMOOTH",
"305 357 OFFCURVE",
"296 346 OFFCURVE",
"295 335 CURVE SMOOTH",
"292 313 OFFCURVE",
"307 293 OFFCURVE",
"339 274 CURVE",
"370 283 OFFCURVE",
"393 287 OFFCURVE",
"408 288 CURVE",
"415 291 OFFCURVE",
"440 307 OFFCURVE",
"485 336 CURVE SMOOTH",
"522 361 OFFCURVE",
"551 374 OFFCURVE",
"572 374 CURVE SMOOTH",
"593 374 OFFCURVE",
"609 362 OFFCURVE",
"621 338 CURVE SMOOTH",
"629 321 OFFCURVE",
"633 297 OFFCURVE",
"633 265 CURVE SMOOTH",
"633 206 OFFCURVE",
"623 154 OFFCURVE",
"604 111 CURVE SMOOTH",
"571 38 OFFCURVE",
"519 -20 OFFCURVE",
"448 -64 CURVE"
);
}
);
vertWidth = 1000;
width = 1000;
}
);
note = cid00870;
unicode = 305D;
},
{
glyphname = "zo-hira";
lastChange = "2020-12-04 08:10:26 +0000";
layers = (
{
hints = (
{
horizontal = 1;
place = "{440, 112}";
type = Stem;
},
{
horizontal = 1;
place = "{704, 35}";
type = Stem;
},
{
place = "{617, 97}";
type = Stem;
},
{
horizontal = 1;
place = "{370, 67}";
type = Stem;
}
);
layerId = "38E14F89-90D8-48C8-A96B-0BF2B2C9AEC9";
paths = (
{
closed = 1;
nodes = (
"563 -84 OFFCURVE",
"666 -18 OFFCURVE",
"699 111 CURVE SMOOTH",
"708 147 OFFCURVE",
"713 182 OFFCURVE",
"714 216 CURVE SMOOTH",
"715 278 OFFCURVE",
"702 329 OFFCURVE",
"675 369 CURVE SMOOTH",
"644 414 OFFCURVE",
"600 437 OFFCURVE",
"541 437 CURVE SMOOTH",
"518 437 OFFCURVE",
"494 433 OFFCURVE",
"469 426 CURVE",
"537 493 OFFCURVE",
"567 521 OFFCURVE",
"585 538 CURVE SMOOTH",
"625 575 OFFCURVE",
"648 599 OFFCURVE",
"656 608 CURVE SMOOTH",
"684 641 OFFCURVE",
"696 668 OFFCURVE",
"693 687 CURVE SMOOTH",
"688 719 OFFCURVE",
"655 738 OFFCURVE",
"622 739 CURVE SMOOTH",
"598 740 OFFCURVE",
"582 732 OFFCURVE",
"574 717 CURVE",
"538 712 OFFCURVE",
"500 697 OFFCURVE",
"460 672 CURVE SMOOTH",
"404 637 OFFCURVE",
"370 617 OFFCURVE",
"357 612 CURVE",
"348 618 OFFCURVE",
"345 628 OFFCURVE",
"348 643 CURVE",
"339 647 OFFCURVE",
"324 660 OFFCURVE",
"303 683 CURVE SMOOTH",
"286 701 OFFCURVE",
"268 711 OFFCURVE",
"249 714 CURVE",
"244 592 OFFCURVE",
"278 531 OFFCURVE",
"351 531 CURVE SMOOTH",
"360 531 OFFCURVE",
"370 532 OFFCURVE",
"381 534 CURVE",
"390 542 OFFCURVE",
"398 554 OFFCURVE",
"404 571 CURVE SMOOTH",
"413 597 OFFCURVE",
"418 611 OFFCURVE",
"419 612 CURVE",
"448 669 OFFCURVE",
"503 699 OFFCURVE",
"585 704 CURVE",
"582 695 OFFCURVE",
"575 682 OFFCURVE",
"564 666 CURVE SMOOTH",
"553 651 OFFCURVE",
"547 637 OFFCURVE",
"544 626 CURVE",
"478 545 OFFCURVE",
"428 485 OFFCURVE",
"395 446 CURVE SMOOTH",
"367 412 OFFCURVE",
"351 392 OFFCURVE",
"348 385 CURVE",
"307 363 LINE SMOOTH",
"289 353 OFFCURVE",
"280 342 OFFCURVE",
"279 331 CURVE SMOOTH",
"276 309 OFFCURVE",
"291 289 OFFCURVE",
"323 270 CURVE",
"354 279 OFFCURVE",
"377 283 OFFCURVE",
"392 284 CURVE",
"399 287 OFFCURVE",
"424 303 OFFCURVE",
"469 332 CURVE SMOOTH",
"506 357 OFFCURVE",
"535 370 OFFCURVE",
"556 370 CURVE SMOOTH",
"577 370 OFFCURVE",
"593 358 OFFCURVE",
"605 334 CURVE SMOOTH",
"613 317 OFFCURVE",
"617 293 OFFCURVE",
"617 261 CURVE SMOOTH",
"617 202 OFFCURVE",
"607 150 OFFCURVE",
"588 107 CURVE SMOOTH",
"555 34 OFFCURVE",
"503 -24 OFFCURVE",
"432 -68 CURVE"
);
},
{
closed = 1;
nodes = (
"776 437 OFFCURVE",
"802 433 OFFCURVE",
"827 460 CURVE",
"816 524 OFFCURVE",
"754 566 OFFCURVE",
"689 548 CURVE",
"698 521 OFFCURVE",
"723 476 OFFCURVE",
"753 454 CURVE SMOOTH"
);
},
{
closed = 1;
nodes = (
"937 595 OFFCURVE",
"851 612 OFFCURVE",
"799 602 CURVE",
"816 582 OFFCURVE",
"837 544 OFFCURVE",
"862 520 CURVE SMOOTH",
"885 499 OFFCURVE",
"911 490 OFFCURVE",
"943 517 CURVE"
);
}
);
vertWidth = 1000;
width = 1000;
}
);
note = cid00871;
unicode = 305E;
},
{
glyphname = "ta-hira";
lastChange = "2020-12-04 08:10:26 +0000";
layers = (
{
hints = (
{
horizontal = 1;
place = "{37, 45}";
type = Stem;
},
{
horizontal = 1;
place = "{371, 49}";
type = Stem;
},
{
place = "{413, 58}";
type = Stem;
},
{
place = "{620, 21}";
type = Stem;
},
{
place = "{707, 86}";
type = Stem;
}
);
layerId = "38E14F89-90D8-48C8-A96B-0BF2B2C9AEC9";
paths = (
{
closed = 1;
nodes = (
"595 -37 OFFCURVE",
"629 -25 OFFCURVE",
"666 -16 CURVE",
"709 13 OFFCURVE",
"742 56 OFFCURVE",
"764 112 CURVE SMOOTH",
"786 166 OFFCURVE",
"795 227 OFFCURVE",
"793 294 CURVE",
"771 378 OFFCURVE",
"704 420 OFFCURVE",
"592 420 CURVE SMOOTH",
"540 420 OFFCURVE",
"489 411 OFFCURVE",
"440 393 CURVE",
"451 415 OFFCURVE",
"457 440 OFFCURVE",
"457 469 CURVE SMOOTH",
"456 509 OFFCURVE",
"443 532 OFFCURVE",
"416 538 CURVE",
"477 615 OFFCURVE",
"524 671 OFFCURVE",
"557 707 CURVE",
"541 755 OFFCURVE",
"522 783 OFFCURVE",
"500 791 CURVE",
"448 728 OFFCURVE",
"407 682 OFFCURVE",
"381 650 CURVE SMOOTH",
"367 634 OFFCURVE",
"353 618 OFFCURVE",
"340 600 CURVE SMOOTH",
"324 579 OFFCURVE",
"317 563 OFFCURVE",
"316 552 CURVE SMOOTH",
"315 519 OFFCURVE",
"336 498 OFFCURVE",
"381 489 CURVE",
"370 456 OFFCURVE",
"353 416 OFFCURVE",
"330 370 CURVE SMOOTH",
"299 309 OFFCURVE",
"280 271 OFFCURVE",
"274 256 CURVE",
"298 225 OFFCURVE",
"316 206 OFFCURVE",
"328 199 CURVE",
"333 201 OFFCURVE",
"342 207 OFFCURVE",
"353 216 CURVE SMOOTH",
"364 223 OFFCURVE",
"373 228 OFFCURVE",
"381 230 CURVE",
"382 235 OFFCURVE",
"392 251 OFFCURVE",
"391 263 CURVE",
"466 336 OFFCURVE",
"542 373 OFFCURVE",
"618 371 CURVE SMOOTH",
"643 371 OFFCURVE",
"667 365 OFFCURVE",
"691 354 CURVE",
"702 334 OFFCURVE",
"707 311 OFFCURVE",
"707 285 CURVE SMOOTH",
"707 224 OFFCURVE",
"677 152 OFFCURVE",
"641 111 CURVE",
"642 128 OFFCURVE",
"630 143 OFFCURVE",
"605 157 CURVE SMOOTH",
"603 158 OFFCURVE",
"580 169 OFFCURVE",
"536 188 CURVE",
"551 203 OFFCURVE",
"559 220 OFFCURVE",
"559 239 CURVE SMOOTH",
"559 256 OFFCURVE",
"553 275 OFFCURVE",
"542 298 CURVE",
"518 297 OFFCURVE",
"500 290 OFFCURVE",
"487 276 CURVE SMOOTH",
"481 268 OFFCURVE",
"474 253 OFFCURVE",
"465 231 CURVE SMOOTH",
"458 212 OFFCURVE",
"449 198 OFFCURVE",
"440 191 CURVE",
"333 177 LINE SMOOTH",
"288 171 OFFCURVE",
"257 155 OFFCURVE",
"240 136 CURVE SMOOTH",
"229 124 OFFCURVE",
"224 110 OFFCURVE",
"224 95 CURVE SMOOTH",
"224 63 OFFCURVE",
"246 37 OFFCURVE",
"275 37 CURVE SMOOTH",
"280 37 OFFCURVE",
"286 38 OFFCURVE",
"292 40 CURVE",
"304 29 OFFCURVE",
"320 24 OFFCURVE",
"339 24 CURVE SMOOTH",
"358 24 OFFCURVE",
"380 29 OFFCURVE",
"405 40 CURVE",
"414 20 OFFCURVE",
"416 -3 OFFCURVE",
"409 -30 CURVE",
"423 -21 OFFCURVE",
"436 -17 OFFCURVE",
"447 -17 CURVE SMOOTH",
"460 -18 OFFCURVE",
"479 -23 OFFCURVE",
"505 -34 CURVE SMOOTH",
"531 -45 OFFCURVE",
"551 -50 OFFCURVE",
"564 -51 CURVE"
);
},
{
closed = 1;
nodes = (
"297 109 OFFCURVE",
"324 122 OFFCURVE",
"367 122 CURVE SMOOTH",
"376 122 OFFCURVE",
"384 121 OFFCURVE",
"392 120 CURVE",
"379 95 OFFCURVE",
"332 78 OFFCURVE",
"285 82 CURVE"
);
},
{
closed = 1;
nodes = (
"474 25 OFFCURVE",
"471 40 OFFCURVE",
"471 56 CURVE SMOOTH",
"471 86 OFFCURVE",
"480 107 OFFCURVE",
"497 118 CURVE",
"551 99 LINE SMOOTH",
"569 93 OFFCURVE",
"586 89 OFFCURVE",
"601 89 CURVE SMOOTH",
"607 89 OFFCURVE",
"613 89 OFFCURVE",
"620 90 CURVE",
"616 79 OFFCURVE",
"606 67 OFFCURVE",
"589 56 CURVE SMOOTH",
"570 44 OFFCURVE",
"559 34 OFFCURVE",
"554 26 CURVE",
"549 25 OFFCURVE",
"543 33 OFFCURVE",
"536 30 CURVE",
"535 24 OFFCURVE",
"527 20 OFFCURVE",
"512 19 CURVE SMOOTH",
"493 17 OFFCURVE",
"482 15 OFFCURVE",
"479 12 CURVE"
);
}
);
vertWidth = 1000;
width = 1000;
}
);
note = cid00872;
unicode = 305F;
},
{
glyphname = "da-hira";
lastChange = "2020-12-04 08:10:26 +0000";
layers = (
{
hints = (
{
horizontal = 1;
place = "{37, 45}";
type = Stem;
},
{
horizontal = 1;
place = "{371, 49}";
type = Stem;
},
{
horizontal = 1;
place = "{510, 112}";
type = Stem;
},
{
place = "{413, 58}";
type = Stem;
},
{
place = "{620, 21}";
type = Stem;
},
{
place = "{707, 86}";
type = Stem;
}
);
layerId = "38E14F89-90D8-48C8-A96B-0BF2B2C9AEC9";
paths = (
{
closed = 1;
nodes = (
"595 -37 OFFCURVE",
"629 -25 OFFCURVE",
"666 -16 CURVE",
"709 13 OFFCURVE",
"742 56 OFFCURVE",
"764 112 CURVE SMOOTH",
"786 166 OFFCURVE",
"795 227 OFFCURVE",
"793 294 CURVE",
"771 378 OFFCURVE",
"704 420 OFFCURVE",
"592 420 CURVE SMOOTH",
"540 420 OFFCURVE",
"489 411 OFFCURVE",
"440 393 CURVE",
"451 415 OFFCURVE",
"457 440 OFFCURVE",
"457 469 CURVE SMOOTH",
"456 509 OFFCURVE",
"443 532 OFFCURVE",
"416 538 CURVE",
"477 615 OFFCURVE",
"524 671 OFFCURVE",
"557 707 CURVE",
"541 755 OFFCURVE",
"522 783 OFFCURVE",
"500 791 CURVE",
"448 728 OFFCURVE",
"407 682 OFFCURVE",
"381 650 CURVE SMOOTH",
"367 634 OFFCURVE",
"353 618 OFFCURVE",
"340 600 CURVE SMOOTH",
"324 579 OFFCURVE",
"317 563 OFFCURVE",
"316 552 CURVE SMOOTH",
"315 519 OFFCURVE",
"336 498 OFFCURVE",
"381 489 CURVE",
"370 456 OFFCURVE",
"353 416 OFFCURVE",
"330 370 CURVE SMOOTH",
"299 309 OFFCURVE",
"280 271 OFFCURVE",
"274 256 CURVE",
"298 225 OFFCURVE",
"316 206 OFFCURVE",
"328 199 CURVE",
"333 201 OFFCURVE",
"342 207 OFFCURVE",
"353 216 CURVE SMOOTH",
"364 223 OFFCURVE",
"373 228 OFFCURVE",
"381 230 CURVE",
"382 235 OFFCURVE",
"392 251 OFFCURVE",
"391 263 CURVE",
"466 336 OFFCURVE",
"542 373 OFFCURVE",
"618 371 CURVE SMOOTH",
"643 371 OFFCURVE",
"667 365 OFFCURVE",
"691 354 CURVE",
"702 334 OFFCURVE",
"707 311 OFFCURVE",
"707 285 CURVE SMOOTH",
"707 224 OFFCURVE",
"677 152 OFFCURVE",
"641 111 CURVE",
"642 128 OFFCURVE",
"630 143 OFFCURVE",
"605 157 CURVE SMOOTH",
"603 158 OFFCURVE",
"580 169 OFFCURVE",
"536 188 CURVE",
"551 203 OFFCURVE",
"559 220 OFFCURVE",
"559 239 CURVE SMOOTH",
"559 256 OFFCURVE",
"553 275 OFFCURVE",
"542 298 CURVE",
"518 297 OFFCURVE",
"500 290 OFFCURVE",
"487 276 CURVE SMOOTH",
"481 268 OFFCURVE",
"474 253 OFFCURVE",
"465 231 CURVE SMOOTH",
"458 212 OFFCURVE",
"449 198 OFFCURVE",
"440 191 CURVE",
"333 177 LINE SMOOTH",
"288 171 OFFCURVE",
"257 155 OFFCURVE",
"240 136 CURVE SMOOTH",
"229 124 OFFCURVE",
"224 110 OFFCURVE",
"224 95 CURVE SMOOTH",
"224 63 OFFCURVE",
"246 37 OFFCURVE",
"275 37 CURVE SMOOTH",
"280 37 OFFCURVE",
"286 38 OFFCURVE",
"292 40 CURVE",
"304 29 OFFCURVE",
"320 24 OFFCURVE",
"339 24 CURVE SMOOTH",
"358 24 OFFCURVE",
"380 29 OFFCURVE",
"405 40 CURVE",
"414 20 OFFCURVE",
"416 -3 OFFCURVE",
"409 -30 CURVE",
"423 -21 OFFCURVE",
"436 -17 OFFCURVE",
"447 -17 CURVE SMOOTH",
"460 -18 OFFCURVE",
"479 -23 OFFCURVE",
"505 -34 CURVE SMOOTH",
"531 -45 OFFCURVE",
"551 -50 OFFCURVE",
"564 -51 CURVE"
);
},
{
closed = 1;
nodes = (
"297 109 OFFCURVE",
"324 122 OFFCURVE",
"367 122 CURVE SMOOTH",
"376 122 OFFCURVE",
"384 121 OFFCURVE",
"392 120 CURVE",
"379 95 OFFCURVE",
"332 78 OFFCURVE",
"285 82 CURVE"
);
},
{
closed = 1;
nodes = (
"474 25 OFFCURVE",
"471 40 OFFCURVE",
"471 56 CURVE SMOOTH",
"471 86 OFFCURVE",
"480 107 OFFCURVE",
"497 118 CURVE",
"551 99 LINE SMOOTH",
"569 93 OFFCURVE",
"586 89 OFFCURVE",
"601 89 CURVE SMOOTH",
"607 89 OFFCURVE",
"613 89 OFFCURVE",
"620 90 CURVE",
"616 79 OFFCURVE",
"606 67 OFFCURVE",
"589 56 CURVE SMOOTH",
"570 44 OFFCURVE",
"559 34 OFFCURVE",
"554 26 CURVE",
"549 25 OFFCURVE",
"543 33 OFFCURVE",
"536 30 CURVE",
"535 24 OFFCURVE",
"527 20 OFFCURVE",
"512 19 CURVE SMOOTH",
"493 17 OFFCURVE",
"482 15 OFFCURVE",
"479 12 CURVE"
);
},
{
closed = 1;
nodes = (
"728 507 OFFCURVE",
"754 503 OFFCURVE",
"779 530 CURVE",
"768 594 OFFCURVE",
"706 636 OFFCURVE",
"641 618 CURVE",
"650 591 OFFCURVE",
"675 546 OFFCURVE",
"705 524 CURVE SMOOTH"
);
},
{
closed = 1;
nodes = (
"889 665 OFFCURVE",
"803 682 OFFCURVE",
"751 672 CURVE",
"768 652 OFFCURVE",
"789 614 OFFCURVE",
"814 590 CURVE SMOOTH",
"837 569 OFFCURVE",
"863 560 OFFCURVE",
"895 587 CURVE"
);
}
);
vertWidth = 1000;
width = 1000;
}
);
note = cid00873;
unicode = 3060;
},
{
glyphname = "ti-hira";
lastChange = "2020-12-04 08:10:26 +0000";
layers = (
{
hints = (
{
horizontal = 1;
place = "{188, 54}";
type = Stem;
},
{
horizontal = 1;
place = "{557, 90}";
type = Stem;
},
{
place = "{368, 86}";
type = Stem;
}
);
layerId = "38E14F89-90D8-48C8-A96B-0BF2B2C9AEC9";
paths = (
{
closed = 1;
nodes = (
"638 -20 OFFCURVE",
"669 -12 OFFCURVE",
"702 3 CURVE SMOOTH",
"713 8 OFFCURVE",
"742 25 OFFCURVE",
"791 54 CURVE",
"806 87 OFFCURVE",
"818 112 OFFCURVE",
"826 127 CURVE",
"821 136 OFFCURVE",
"819 151 OFFCURVE",
"819 170 CURVE",
"787 218 OFFCURVE",
"724 242 OFFCURVE",
"631 242 CURVE SMOOTH",
"553 242 OFFCURVE",
"488 228 OFFCURVE",
"435 199 CURVE",
"447 233 OFFCURVE",
"453 263 OFFCURVE",
"454 289 CURVE SMOOTH",
"456 336 OFFCURVE",
"443 377 OFFCURVE",
"414 414 CURVE",
"454 485 OFFCURVE",
"481 529 OFFCURVE",
"494 544 CURVE",
"501 542 OFFCURVE",
"511 543 OFFCURVE",
"523 548 CURVE SMOOTH",
"538 554 OFFCURVE",
"547 557 OFFCURVE",
"551 557 CURVE SMOOTH",
"554 557 OFFCURVE",
"557 556 OFFCURVE",
"559 555 CURVE",
"565 562 OFFCURVE",
"585 569 OFFCURVE",
"618 576 CURVE SMOOTH",
"651 584 OFFCURVE",
"674 595 OFFCURVE",
"687 608 CURVE",
"680 631 OFFCURVE",
"664 648 OFFCURVE",
"637 658 CURVE SMOOTH",
"622 664 OFFCURVE",
"595 669 OFFCURVE",
"556 675 CURVE",
"556 666 OFFCURVE",
"567 658 OFFCURVE",
"566 647 CURVE",
"555 642 OFFCURVE",
"545 641 OFFCURVE",
"535 643 CURVE",
"550 668 OFFCURVE",
"558 697 OFFCURVE",
"558 729 CURVE SMOOTH",
"558 736 OFFCURVE",
"557 743 OFFCURVE",
"556 749 CURVE",
"544 760 OFFCURVE",
"537 766 OFFCURVE",
"534 766 CURVE SMOOTH",
"532 766 OFFCURVE",
"530 765 OFFCURVE",
"528 764 CURVE",
"509 746 OFFCURVE",
"490 723 OFFCURVE",
"472 695 CURVE SMOOTH",
"424 619 LINE",
"411 611 OFFCURVE",
"383 605 OFFCURVE",
"340 601 CURVE SMOOTH",
"298 598 OFFCURVE",
"270 591 OFFCURVE",
"257 580 CURVE",
"265 565 OFFCURVE",
"282 550 OFFCURVE",
"312 541 CURVE SMOOTH",
"369 523 LINE",
"345 459 LINE SMOOTH",
"336 434 OFFCURVE",
"332 410 OFFCURVE",
"334 389 CURVE",
"356 372 OFFCURVE",
"367 349 OFFCURVE",
"368 321 CURVE SMOOTH",
"369 296 OFFCURVE",
"359 261 OFFCURVE",
"340 216 CURVE SMOOTH",
"318 165 OFFCURVE",
"306 132 OFFCURVE",
"303 117 CURVE",
"312 104 OFFCURVE",
"319 92 OFFCURVE",
"324 82 CURVE",
"329 81 OFFCURVE",
"341 76 OFFCURVE",
"358 68 CURVE SMOOTH",
"371 61 OFFCURVE",
"382 58 OFFCURVE",
"391 58 CURVE SMOOTH",
"400 58 OFFCURVE",
"408 60 OFFCURVE",
"417 64 CURVE",
"444 95 OFFCURVE",
"478 121 OFFCURVE",
"519 145 CURVE SMOOTH",
"568 173 OFFCURVE",
"613 188 OFFCURVE",
"654 188 CURVE SMOOTH",
"684 188 OFFCURVE",
"710 180 OFFCURVE",
"732 163 CURVE",
"712 131 OFFCURVE",
"682 102 OFFCURVE",
"641 76 CURVE SMOOTH",
"619 61 OFFCURVE",
"580 41 OFFCURVE",
"525 14 CURVE SMOOTH",
"476 -10 LINE",
"486 -7 OFFCURVE",
"496 -5 OFFCURVE",
"507 -5 CURVE SMOOTH",
"518 -5 OFFCURVE",
"535 -8 OFFCURVE",
"557 -13 CURVE SMOOTH",
"579 -18 OFFCURVE",
"596 -21 OFFCURVE",
"607 -21 CURVE SMOOTH"
);
}
);
vertWidth = 1000;
width = 1000;
}
);
note = cid00874;
unicode = 3061;
},
{
glyphname = "di-hira";
lastChange = "2020-12-04 08:10:26 +0000";
layers = (
{
hints = (
{
horizontal = 1;
place = "{188, 54}";
type = Stem;
},
{
horizontal = 1;
place = "{408, 112}";
type = Stem;
},
{
horizontal = 1;
place = "{557, 90}";
type = Stem;
},
{
place = "{358, 86}";
type = Stem;
}
);
layerId = "38E14F89-90D8-48C8-A96B-0BF2B2C9AEC9";
paths = (
{
closed = 1;
nodes = (
"628 -20 OFFCURVE",
"659 -12 OFFCURVE",
"692 3 CURVE SMOOTH",
"703 8 OFFCURVE",
"732 25 OFFCURVE",
"781 54 CURVE",
"796 87 OFFCURVE",
"808 112 OFFCURVE",
"816 127 CURVE",
"811 136 OFFCURVE",
"809 151 OFFCURVE",
"809 170 CURVE",
"777 218 OFFCURVE",
"714 242 OFFCURVE",
"621 242 CURVE SMOOTH",
"543 242 OFFCURVE",
"478 228 OFFCURVE",
"425 199 CURVE",
"437 233 OFFCURVE",
"443 263 OFFCURVE",
"444 289 CURVE SMOOTH",
"446 336 OFFCURVE",
"433 377 OFFCURVE",
"404 414 CURVE",
"444 485 OFFCURVE",
"471 529 OFFCURVE",
"484 544 CURVE",
"491 542 OFFCURVE",
"501 543 OFFCURVE",
"513 548 CURVE SMOOTH",
"528 554 OFFCURVE",
"537 557 OFFCURVE",
"541 557 CURVE SMOOTH",
"544 557 OFFCURVE",
"547 556 OFFCURVE",
"549 555 CURVE",
"555 562 OFFCURVE",
"575 569 OFFCURVE",
"608 576 CURVE SMOOTH",
"641 584 OFFCURVE",
"664 595 OFFCURVE",
"677 608 CURVE",
"670 631 OFFCURVE",
"654 648 OFFCURVE",
"627 658 CURVE SMOOTH",
"612 664 OFFCURVE",
"585 669 OFFCURVE",
"546 675 CURVE",
"546 666 OFFCURVE",
"557 658 OFFCURVE",
"556 647 CURVE",
"545 642 OFFCURVE",
"535 641 OFFCURVE",
"525 643 CURVE",
"540 668 OFFCURVE",
"548 697 OFFCURVE",
"548 729 CURVE SMOOTH",
"548 736 OFFCURVE",
"547 743 OFFCURVE",
"546 749 CURVE",
"534 760 OFFCURVE",
"527 766 OFFCURVE",
"524 766 CURVE SMOOTH",
"522 766 OFFCURVE",
"520 765 OFFCURVE",
"518 764 CURVE",
"499 746 OFFCURVE",
"480 723 OFFCURVE",
"462 695 CURVE SMOOTH",
"414 619 LINE",
"401 611 OFFCURVE",
"373 605 OFFCURVE",
"330 601 CURVE SMOOTH",
"288 598 OFFCURVE",
"260 591 OFFCURVE",
"247 580 CURVE",
"255 565 OFFCURVE",
"272 550 OFFCURVE",
"302 541 CURVE SMOOTH",
"359 523 LINE",
"335 459 LINE SMOOTH",
"326 434 OFFCURVE",
"322 410 OFFCURVE",
"324 389 CURVE",
"346 372 OFFCURVE",
"357 349 OFFCURVE",
"358 321 CURVE SMOOTH",
"359 296 OFFCURVE",
"349 261 OFFCURVE",
"330 216 CURVE SMOOTH",
"308 165 OFFCURVE",
"296 132 OFFCURVE",
"293 117 CURVE",
"302 104 OFFCURVE",
"309 92 OFFCURVE",
"314 82 CURVE",
"319 81 OFFCURVE",
"331 76 OFFCURVE",
"348 68 CURVE SMOOTH",
"361 61 OFFCURVE",
"372 58 OFFCURVE",
"381 58 CURVE SMOOTH",
"390 58 OFFCURVE",
"398 60 OFFCURVE",
"407 64 CURVE",
"434 95 OFFCURVE",
"468 121 OFFCURVE",
"509 145 CURVE SMOOTH",
"558 173 OFFCURVE",
"603 188 OFFCURVE",
"644 188 CURVE SMOOTH",
"674 188 OFFCURVE",
"700 180 OFFCURVE",
"722 163 CURVE",
"702 131 OFFCURVE",
"672 102 OFFCURVE",
"631 76 CURVE SMOOTH",
"609 61 OFFCURVE",
"570 41 OFFCURVE",
"515 14 CURVE SMOOTH",
"466 -10 LINE",
"476 -7 OFFCURVE",
"486 -5 OFFCURVE",
"497 -5 CURVE SMOOTH",
"508 -5 OFFCURVE",
"525 -8 OFFCURVE",
"547 -13 CURVE SMOOTH",
"569 -18 OFFCURVE",
"586 -21 OFFCURVE",
"597 -21 CURVE SMOOTH"
);
},
{
closed = 1;
nodes = (
"726 405 OFFCURVE",
"752 401 OFFCURVE",
"777 428 CURVE",
"766 492 OFFCURVE",
"704 534 OFFCURVE",
"639 516 CURVE",
"648 489 OFFCURVE",
"673 444 OFFCURVE",
"703 422 CURVE SMOOTH"
);
},
{
closed = 1;
nodes = (
"887 563 OFFCURVE",
"801 580 OFFCURVE",
"749 570 CURVE",
"766 550 OFFCURVE",
"787 512 OFFCURVE",
"812 488 CURVE SMOOTH",
"835 467 OFFCURVE",
"861 458 OFFCURVE",
"893 485 CURVE"
);
}
);
vertWidth = 1000;
width = 1000;
}
);
note = cid00875;
unicode = 3062;
},
{
glyphname = "tu-hira";
lastChange = "2020-12-04 08:10:26 +0000";
layers = (
{
hints = (
{
horizontal = 1;
place = "{451, 68}";
type = Stem;
},
{
place = "{790, 94}";
type = Stem;
},
{
horizontal = 1;
place = "{437, 59}";
type = Stem;
},
{
place = "{102, 782}";
type = Stem;
}
);
layerId = "38E14F89-90D8-48C8-A96B-0BF2B2C9AEC9";
paths = (
{
closed = 1;
nodes = (
"660 95 OFFCURVE",
"687 98 OFFCURVE",
"694 105 CURVE",
"692 106 OFFCURVE",
"691 108 OFFCURVE",
"691 109 CURVE SMOOTH",
"691 114 OFFCURVE",
"695 116 OFFCURVE",
"703 115 CURVE",
"716 130 OFFCURVE",
"740 146 OFFCURVE",
"777 163 CURVE",
"775 170 OFFCURVE",
"781 178 OFFCURVE",
"794 187 CURVE SMOOTH",
"808 196 OFFCURVE",
"814 204 OFFCURVE",
"813 211 CURVE",
"819 205 LINE",
"816 220 OFFCURVE",
"837 234 OFFCURVE",
"837 241 CURVE SMOOTH",
"837 244 OFFCURVE",
"836 247 OFFCURVE",
"835 250 CURVE",
"848 255 OFFCURVE",
"849 272 OFFCURVE",
"853 285 CURVE SMOOTH",
"855 292 OFFCURVE",
"860 301 OFFCURVE",
"867 312 CURVE SMOOTH",
"875 323 OFFCURVE",
"880 332 OFFCURVE",
"881 337 CURVE SMOOTH",
"883 345 OFFCURVE",
"884 354 OFFCURVE",
"884 364 CURVE SMOOTH",
"884 402 OFFCURVE",
"876 430 OFFCURVE",
"860 448 CURVE SMOOTH",
"845 466 OFFCURVE",
"830 480 OFFCURVE",
"816 489 CURVE SMOOTH",
"787 509 OFFCURVE",
"754 519 OFFCURVE",
"716 519 CURVE SMOOTH",
"681 519 OFFCURVE",
"637 509 OFFCURVE",
"584 490 CURVE SMOOTH",
"545 476 OFFCURVE",
"507 462 OFFCURVE",
"468 447 CURVE",
"447 480 OFFCURVE",
"414 496 OFFCURVE",
"368 496 CURVE SMOOTH",
"323 496 OFFCURVE",
"280 483 OFFCURVE",
"239 457 CURVE",
"230 492 OFFCURVE",
"217 507 OFFCURVE",
"200 502 CURVE",
"190 479 OFFCURVE",
"176 457 OFFCURVE",
"159 435 CURVE SMOOTH",
"140 410 OFFCURVE",
"123 394 OFFCURVE",
"106 386 CURVE",
"107 385 OFFCURVE",
"107 383 OFFCURVE",
"107 382 CURVE SMOOTH",
"107 379 OFFCURVE",
"100 375 OFFCURVE",
"103 370 CURVE",
"114 365 OFFCURVE",
"126 349 OFFCURVE",
"138 322 CURVE SMOOTH",
"148 299 OFFCURVE",
"164 289 OFFCURVE",
"187 292 CURVE",
"216 335 OFFCURVE",
"238 362 OFFCURVE",
"252 373 CURVE",
"269 383 OFFCURVE",
"283 391 OFFCURVE",
"294 396 CURVE",
"334 429 OFFCURVE",
"366 443 OFFCURVE",
"390 437 CURVE",
"420 390 OFFCURVE",
"450 364 OFFCURVE",
"481 360 CURVE SMOOTH",
"500 357 OFFCURVE",
"527 365 OFFCURVE",
"561 383 CURVE SMOOTH",
"674 444 LINE",
"713 453 OFFCURVE",
"742 454 OFFCURVE",
"761 447 CURVE SMOOTH",
"780 440 OFFCURVE",
"790 424 OFFCURVE",
"790 400 CURVE SMOOTH",
"790 389 OFFCURVE",
"788 377 OFFCURVE",
"784 363 CURVE SMOOTH",
"764 290 OFFCURVE",
"705 211 OFFCURVE",
"606 128 CURVE",
"603 123 OFFCURVE",
"598 120 OFFCURVE",
"590 118 CURVE",
"593 111 LINE",
"601 114 LINE SMOOTH",
"604 115 OFFCURVE",
"606 115 OFFCURVE",
"606 112 CURVE",
"597 109 OFFCURVE",
"590 106 OFFCURVE",
"587 102 CURVE",
"581 89 LINE",
"585 88 OFFCURVE",
"595 100 OFFCURVE",
"600 99 CURVE",
"603 92 OFFCURVE",
"611 88 OFFCURVE",
"624 85 CURVE SMOOTH",
"630 84 OFFCURVE",
"639 84 OFFCURVE",
"652 83 CURVE"
);
}
);
vertWidth = 1000;
width = 1000;
}
);
note = cid00877;
unicode = 3064;
},
{
glyphname = "du-hira";
lastChange = "2020-12-04 08:10:26 +0000";
layers = (
{
hints = (
{
horizontal = 1;
place = "{451, 68}";
type = Stem;
},
{
horizontal = 1;
place = "{574, 112}";
type = Stem;
},
{
place = "{102, 813}";
type = Stem;
},
{
place = "{790, 94}";
type = Stem;
},
{
horizontal = 1;
place = "{437, 59}";
type = Stem;
}
);
layerId = "38E14F89-90D8-48C8-A96B-0BF2B2C9AEC9";
paths = (
{
closed = 1;
nodes = (
"660 95 OFFCURVE",
"687 98 OFFCURVE",
"694 105 CURVE",
"692 106 OFFCURVE",
"691 108 OFFCURVE",
"691 109 CURVE SMOOTH",
"691 114 OFFCURVE",
"695 116 OFFCURVE",
"703 115 CURVE",
"716 130 OFFCURVE",
"740 146 OFFCURVE",
"777 163 CURVE",
"775 170 OFFCURVE",
"781 178 OFFCURVE",
"794 187 CURVE SMOOTH",
"808 196 OFFCURVE",
"814 204 OFFCURVE",
"813 211 CURVE",
"819 205 LINE",
"816 220 OFFCURVE",
"837 234 OFFCURVE",
"837 241 CURVE SMOOTH",
"837 244 OFFCURVE",
"836 247 OFFCURVE",
"835 250 CURVE",
"848 255 OFFCURVE",
"849 272 OFFCURVE",
"853 285 CURVE SMOOTH",
"855 292 OFFCURVE",
"860 301 OFFCURVE",
"867 312 CURVE SMOOTH",
"875 323 OFFCURVE",
"880 332 OFFCURVE",
"881 337 CURVE SMOOTH",
"883 345 OFFCURVE",
"884 354 OFFCURVE",
"884 364 CURVE SMOOTH",
"884 402 OFFCURVE",
"876 430 OFFCURVE",
"860 448 CURVE SMOOTH",
"845 466 OFFCURVE",
"830 480 OFFCURVE",
"816 489 CURVE SMOOTH",
"787 509 OFFCURVE",
"754 519 OFFCURVE",
"716 519 CURVE SMOOTH",
"681 519 OFFCURVE",
"637 509 OFFCURVE",
"584 490 CURVE SMOOTH",
"545 476 OFFCURVE",
"507 462 OFFCURVE",
"468 447 CURVE",
"447 480 OFFCURVE",
"414 496 OFFCURVE",
"368 496 CURVE SMOOTH",
"323 496 OFFCURVE",
"280 483 OFFCURVE",
"239 457 CURVE",
"230 492 OFFCURVE",
"217 507 OFFCURVE",
"200 502 CURVE",
"190 479 OFFCURVE",
"176 457 OFFCURVE",
"159 435 CURVE SMOOTH",
"140 410 OFFCURVE",
"123 394 OFFCURVE",
"106 386 CURVE",
"107 385 OFFCURVE",
"107 383 OFFCURVE",
"107 382 CURVE SMOOTH",
"107 379 OFFCURVE",
"100 375 OFFCURVE",
"103 370 CURVE",
"114 365 OFFCURVE",
"126 349 OFFCURVE",
"138 322 CURVE SMOOTH",
"148 299 OFFCURVE",
"164 289 OFFCURVE",
"187 292 CURVE",
"216 335 OFFCURVE",
"238 362 OFFCURVE",
"252 373 CURVE",
"269 383 OFFCURVE",
"283 391 OFFCURVE",
"294 396 CURVE",
"334 429 OFFCURVE",
"366 443 OFFCURVE",
"390 437 CURVE",
"420 390 OFFCURVE",
"450 364 OFFCURVE",
"481 360 CURVE SMOOTH",
"500 357 OFFCURVE",
"527 365 OFFCURVE",
"561 383 CURVE SMOOTH",
"674 444 LINE",
"713 453 OFFCURVE",
"742 454 OFFCURVE",
"761 447 CURVE SMOOTH",
"780 440 OFFCURVE",
"790 424 OFFCURVE",
"790 400 CURVE SMOOTH",
"790 389 OFFCURVE",
"788 377 OFFCURVE",
"784 363 CURVE SMOOTH",
"764 290 OFFCURVE",
"705 211 OFFCURVE",
"606 128 CURVE",
"603 123 OFFCURVE",
"598 120 OFFCURVE",
"590 118 CURVE",
"593 111 LINE",
"601 114 LINE SMOOTH",
"604 115 OFFCURVE",
"606 115 OFFCURVE",
"606 112 CURVE",
"597 109 OFFCURVE",
"590 106 OFFCURVE",
"587 102 CURVE",
"581 89 LINE",
"585 88 OFFCURVE",
"595 100 OFFCURVE",
"600 99 CURVE",
"603 92 OFFCURVE",
"611 88 OFFCURVE",
"624 85 CURVE SMOOTH",
"630 84 OFFCURVE",
"639 84 OFFCURVE",
"652 83 CURVE"
);
},
{
closed = 1;
nodes = (
"748 571 OFFCURVE",
"774 567 OFFCURVE",
"799 594 CURVE",
"788 658 OFFCURVE",
"726 700 OFFCURVE",
"661 682 CURVE",
"670 655 OFFCURVE",
"695 610 OFFCURVE",
"725 588 CURVE SMOOTH"
);
},
{
closed = 1;
nodes = (
"909 729 OFFCURVE",
"823 746 OFFCURVE",
"771 736 CURVE",
"788 716 OFFCURVE",
"809 678 OFFCURVE",
"834 654 CURVE SMOOTH",
"857 633 OFFCURVE",
"883 624 OFFCURVE",
"915 651 CURVE"
);
}
);
vertWidth = 1000;
width = 1000;
}
);
note = cid00878;
unicode = 3065;
},
{
glyphname = "te-hira";
lastChange = "2020-12-04 08:10:26 +0000";
layers = (
{
hints = (
{
horizontal = 1;
place = "{0, 672}";
type = Stem;
},
{
place = "{500, 90}";
type = Stem;
},
{
place = "{458, 70}";
type = Stem;
}
);
layerId = "38E14F89-90D8-48C8-A96B-0BF2B2C9AEC9";
paths = (
{
closed = 1;
nodes = (
"652 13 OFFCURVE",
"669 31 OFFCURVE",
"669 44 CURVE SMOOTH",
"669 50 OFFCURVE",
"667 56 OFFCURVE",
"663 61 CURVE SMOOTH",
"654 74 OFFCURVE",
"637 87 OFFCURVE",
"613 98 CURVE SMOOTH",
"578 115 OFFCURVE",
"559 124 OFFCURVE",
"556 127 CURVE",
"558 138 OFFCURVE",
"565 161 OFFCURVE",
"576 194 CURVE SMOOTH",
"585 223 OFFCURVE",
"590 245 OFFCURVE",
"590 262 CURVE SMOOTH",
"590 275 OFFCURVE",
"588 287 OFFCURVE",
"583 298 CURVE SMOOTH",
"579 307 OFFCURVE",
"569 320 OFFCURVE",
"554 335 CURVE SMOOTH",
"540 348 OFFCURVE",
"532 359 OFFCURVE",
"530 368 CURVE SMOOTH",
"529 373 OFFCURVE",
"528 377 OFFCURVE",
"528 382 CURVE SMOOTH",
"528 403 OFFCURVE",
"537 428 OFFCURVE",
"556 455 CURVE SMOOTH",
"571 478 OFFCURVE",
"586 495 OFFCURVE",
"603 508 CURVE SMOOTH",
"653 547 OFFCURVE",
"720 572 OFFCURVE",
"804 585 CURVE",
"805 596 OFFCURVE",
"820 610 OFFCURVE",
"820 625 CURVE",
"814 635 OFFCURVE",
"802 643 OFFCURVE",
"785 651 CURVE SMOOTH",
"762 661 OFFCURVE",
"749 669 OFFCURVE",
"744 672 CURVE",
"544 620 OFFCURVE",
"353 587 OFFCURVE",
"172 572 CURVE",
"168 563 OFFCURVE",
"183 551 OFFCURVE",
"182 542 CURVE",
"191 539 OFFCURVE",
"211 530 OFFCURVE",
"242 513 CURVE SMOOTH",
"265 501 OFFCURVE",
"286 493 OFFCURVE",
"303 492 CURVE SMOOTH",
"328 490 OFFCURVE",
"366 496 OFFCURVE",
"417 511 CURVE SMOOTH",
"468 526 OFFCURVE",
"507 533 OFFCURVE",
"533 532 CURVE",
"487 462 LINE SMOOTH",
"468 433 OFFCURVE",
"458 406 OFFCURVE",
"458 381 CURVE SMOOTH",
"458 374 OFFCURVE",
"459 368 OFFCURVE",
"460 361 CURVE SMOOTH",
"462 352 OFFCURVE",
"469 338 OFFCURVE",
"480 320 CURVE SMOOTH",
"492 302 OFFCURVE",
"499 288 OFFCURVE",
"500 278 CURVE SMOOTH",
"503 261 OFFCURVE",
"498 240 OFFCURVE",
"487 216 CURVE SMOOTH",
"474 187 OFFCURVE",
"467 168 OFFCURVE",
"466 157 CURVE SMOOTH",
"461 114 OFFCURVE",
"478 77 OFFCURVE",
"517 47 CURVE SMOOTH",
"550 22 OFFCURVE",
"591 7 OFFCURVE",
"640 0 CURVE"
);
}
);
vertWidth = 1000;
width = 1000;
}
);
note = cid00879;
unicode = 3066;
},
{
glyphname = "de-hira";
lastChange = "2020-12-04 08:10:26 +0000";
layers = (
{
hints = (
{
horizontal = 1;
place = "{335, 112}";
type = Stem;
},
{
place = "{484, 90}";
type = Stem;
},
{
place = "{442, 70}";
type = Stem;
}
);
layerId = "38E14F89-90D8-48C8-A96B-0BF2B2C9AEC9";
paths = (
{
closed = 1;
nodes = (
"636 13 OFFCURVE",
"653 31 OFFCURVE",
"653 44 CURVE SMOOTH",
"653 50 OFFCURVE",
"651 56 OFFCURVE",
"647 61 CURVE SMOOTH",
"638 74 OFFCURVE",
"621 87 OFFCURVE",
"597 98 CURVE SMOOTH",
"562 115 OFFCURVE",
"543 124 OFFCURVE",
"540 127 CURVE",
"542 138 OFFCURVE",
"549 161 OFFCURVE",
"560 194 CURVE SMOOTH",
"569 223 OFFCURVE",
"574 245 OFFCURVE",
"574 262 CURVE SMOOTH",
"574 275 OFFCURVE",
"572 287 OFFCURVE",
"567 298 CURVE SMOOTH",
"563 307 OFFCURVE",
"553 320 OFFCURVE",
"538 335 CURVE SMOOTH",
"524 348 OFFCURVE",
"516 359 OFFCURVE",
"514 368 CURVE SMOOTH",
"513 373 OFFCURVE",
"512 377 OFFCURVE",
"512 382 CURVE SMOOTH",
"512 403 OFFCURVE",
"521 428 OFFCURVE",
"540 455 CURVE SMOOTH",
"555 478 OFFCURVE",
"570 495 OFFCURVE",
"587 508 CURVE SMOOTH",
"637 547 OFFCURVE",
"704 572 OFFCURVE",
"788 585 CURVE",
"789 596 OFFCURVE",
"804 610 OFFCURVE",
"804 625 CURVE",
"798 635 OFFCURVE",
"786 643 OFFCURVE",
"769 651 CURVE SMOOTH",
"746 661 OFFCURVE",
"733 669 OFFCURVE",
"728 672 CURVE",
"528 620 OFFCURVE",
"337 587 OFFCURVE",
"156 572 CURVE",
"152 563 OFFCURVE",
"167 551 OFFCURVE",
"166 542 CURVE",
"175 539 OFFCURVE",
"195 530 OFFCURVE",
"226 513 CURVE SMOOTH",
"249 501 OFFCURVE",
"270 493 OFFCURVE",
"287 492 CURVE SMOOTH",
"312 490 OFFCURVE",
"350 496 OFFCURVE",
"401 511 CURVE SMOOTH",
"452 526 OFFCURVE",
"491 533 OFFCURVE",
"517 532 CURVE",
"471 462 LINE SMOOTH",
"452 433 OFFCURVE",
"442 406 OFFCURVE",
"442 381 CURVE SMOOTH",
"442 374 OFFCURVE",
"443 368 OFFCURVE",
"444 361 CURVE SMOOTH",
"446 352 OFFCURVE",
"453 338 OFFCURVE",
"464 320 CURVE SMOOTH",
"476 302 OFFCURVE",
"483 288 OFFCURVE",
"484 278 CURVE SMOOTH",
"487 261 OFFCURVE",
"482 240 OFFCURVE",
"471 216 CURVE SMOOTH",
"458 187 OFFCURVE",
"451 168 OFFCURVE",
"450 157 CURVE SMOOTH",
"445 114 OFFCURVE",
"462 77 OFFCURVE",
"501 47 CURVE SMOOTH",
"534 22 OFFCURVE",
"575 7 OFFCURVE",
"624 0 CURVE"
);
},
{
closed = 1;
nodes = (
"763 332 OFFCURVE",
"789 328 OFFCURVE",
"814 355 CURVE",
"803 419 OFFCURVE",
"741 461 OFFCURVE",
"676 443 CURVE",
"685 416 OFFCURVE",
"710 371 OFFCURVE",
"740 349 CURVE SMOOTH"
);
},
{
closed = 1;
nodes = (
"924 490 OFFCURVE",
"838 507 OFFCURVE",
"786 497 CURVE",
"803 477 OFFCURVE",
"824 439 OFFCURVE",
"849 415 CURVE SMOOTH",
"872 394 OFFCURVE",
"898 385 OFFCURVE",
"930 412 CURVE"
);
}
);
vertWidth = 1000;
width = 1000;
}
);
note = cid00880;
unicode = 3067;
},
{
glyphname = "to-hira";
lastChange = "2020-12-04 08:10:26 +0000";
layers = (
{
hints = (
{
horizontal = 1;
place = "{-48.5, 7.5}";
type = Stem;
},
{
horizontal = 1;
place = "{312, 120}";
type = Stem;
},
{
horizontal = 1;
place = "{613, 47}";
type = Stem;
},
{
place = "{199, 15}";
type = Stem;
},
{
place = "{310, 75}";
type = Stem;
},
{
place = "{510, 106}";
type = Stem;
},
{
place = "{314.5, 92.5}";
type = Stem;
},
{
place = "{336, 32}";
type = Stem;
},
{
place = "{483, 89}";
type = Stem;
}
);
layerId = "38E14F89-90D8-48C8-A96B-0BF2B2C9AEC9";
paths = (
{
closed = 1;
nodes = (
"369 228 OFFCURVE",
"369 237 OFFCURVE",
"364 246 CURVE",
"368 247 OFFCURVE",
"375 242 OFFCURVE",
"376 242 CURVE SMOOTH",
"377 242 OFFCURVE",
"378 243 OFFCURVE",
"379 246 CURVE",
"376 261 OFFCURVE",
"392 262 OFFCURVE",
"393 263 CURVE",
"386 290 OFFCURVE",
"382 310 OFFCURVE",
"382 325 CURVE SMOOTH",
"382 336 OFFCURVE",
"383 346 OFFCURVE",
"386 357 CURVE",
"386 360 OFFCURVE",
"378 362 OFFCURVE",
"379 367 CURVE",
"386 385 OFFCURVE",
"387 416 OFFCURVE",
"382 461 CURVE",
"388 476 OFFCURVE",
"393 492 OFFCURVE",
"395 510 CURVE SMOOTH",
"400 557 LINE",
"433 580 OFFCURVE",
"459 602 OFFCURVE",
"478 623 CURVE",
"404 586 LINE",
"406 602 OFFCURVE",
"407 617 OFFCURVE",
"407 630 CURVE SMOOTH",
"407 698 OFFCURVE",
"383 743 OFFCURVE",
"336 765 CURVE",
"327 732 OFFCURVE",
"322 691 OFFCURVE",
"319 642 CURVE SMOOTH",
"310 514 LINE",
"305 511 OFFCURVE",
"293 502 OFFCURVE",
"274 487 CURVE SMOOTH",
"260 476 OFFCURVE",
"247 468 OFFCURVE",
"235 464 CURVE",
"232 487 OFFCURVE",
"218 505 OFFCURVE",
"192 519 CURVE",
"171 510 OFFCURVE",
"154 492 OFFCURVE",
"142 464 CURVE",
"117 385 LINE",
"124 380 OFFCURVE",
"136 366 OFFCURVE",
"153 343 CURVE SMOOTH",
"167 324 OFFCURVE",
"181 312 OFFCURVE",
"196 307 CURVE",
"197 316 OFFCURVE",
"198 321 OFFCURVE",
"199 321 CURVE",
"201 316 OFFCURVE",
"204 313 OFFCURVE",
"207 314 CURVE SMOOTH",
"210 315 OFFCURVE",
"213 317 OFFCURVE",
"214 321 CURVE",
"214 342 LINE",
"229 351 OFFCURVE",
"246 370 OFFCURVE",
"265 401 CURVE SMOOTH",
"284 432 OFFCURVE",
"299 451 OFFCURVE",
"310 458 CURVE",
"313 428 OFFCURVE",
"310 400 OFFCURVE",
"303 375 CURVE",
"296 374 OFFCURVE",
"290 374 OFFCURVE",
"285 375 CURVE",
"284 344 OFFCURVE",
"287 316 OFFCURVE",
"300 294 CURVE SMOOTH",
"336 232 LINE",
"341 231 OFFCURVE",
"343 232 OFFCURVE",
"344 234 CURVE SMOOTH",
"345 235 OFFCURVE",
"345 236 OFFCURVE",
"344 239 CURVE",
"344 241 OFFCURVE",
"345 242 OFFCURVE",
"346 242 CURVE SMOOTH",
"357 239 OFFCURVE",
"356 221 OFFCURVE",
"364 217 CURVE"
);
},
{
closed = 1;
nodes = (
"609 -48 OFFCURVE",
"610 -45 OFFCURVE",
"608 -41 CURVE",
"601 -44 OFFCURVE",
"588 -38 OFFCURVE",
"588 -34 CURVE SMOOTH",
"588 -33 OFFCURVE",
"589 -32 OFFCURVE",
"590 -31 CURVE",
"617 -46 OFFCURVE",
"647 -52 OFFCURVE",
"680 -48 CURVE",
"684 -39 OFFCURVE",
"690 -37 OFFCURVE",
"698 -44 CURVE",
"701 -36 OFFCURVE",
"695 -17 OFFCURVE",
"686 -17 CURVE SMOOTH",
"684 -17 OFFCURVE",
"682 -18 OFFCURVE",
"680 -19 CURVE",
"677 -14 OFFCURVE",
"676 -9 OFFCURVE",
"676 -5 CURVE",
"685 -4 OFFCURVE",
"690 -2 OFFCURVE",
"691 -1 CURVE",
"678 4 OFFCURVE",
"657 13 OFFCURVE",
"630 27 CURVE SMOOTH",
"606 40 OFFCURVE",
"587 48 OFFCURVE",
"572 52 CURVE",
"571 71 OFFCURVE",
"572 93 OFFCURVE",
"575 118 CURVE SMOOTH",
"578 143 OFFCURVE",
"580 160 OFFCURVE",
"580 168 CURVE SMOOTH",
"580 174 OFFCURVE",
"580 180 OFFCURVE",
"579 185 CURVE",
"556 220 OFFCURVE",
"510 248 OFFCURVE",
"471 248 CURVE SMOOTH",
"465 248 OFFCURVE",
"459 247 OFFCURVE",
"454 246 CURVE",
"455 227 OFFCURVE",
"470 202 OFFCURVE",
"500 171 CURVE",
"501 160 OFFCURVE",
"497 142 OFFCURVE",
"490 119 CURVE SMOOTH",
"483 96 OFFCURVE",
"481 79 OFFCURVE",
"483 67 CURVE SMOOTH",
"486 45 OFFCURVE",
"500 22 OFFCURVE",
"523 -1 CURVE SMOOTH",
"546 -25 OFFCURVE",
"569 -41 OFFCURVE",
"590 -48 CURVE SMOOTH",
"595 -49 OFFCURVE",
"599 -50 OFFCURVE",
"604 -49 CURVE SMOOTH"
);
},
{
closed = 1;
nodes = (
"583 312 OFFCURVE",
"606 320 OFFCURVE",
"625 336 CURVE",
"624 352 OFFCURVE",
"603 367 OFFCURVE",
"600 378 CURVE",
"677 414 OFFCURVE",
"734 441 OFFCURVE",
"772 458 CURVE",
"773 466 OFFCURVE",
"774 470 OFFCURVE",
"777 471 CURVE",
"788 472 OFFCURVE",
"796 471 OFFCURVE",
"802 468 CURVE",
"806 473 OFFCURVE",
"827 486 OFFCURVE",
"865 509 CURVE SMOOTH",
"893 525 OFFCURVE",
"907 544 OFFCURVE",
"906 565 CURVE SMOOTH",
"906 578 OFFCURVE",
"898 595 OFFCURVE",
"881 618 CURVE SMOOTH",
"861 645 OFFCURVE",
"827 659 OFFCURVE",
"778 660 CURVE SMOOTH",
"710 661 OFFCURVE",
"646 643 OFFCURVE",
"587 608 CURVE",
"567 635 OFFCURVE",
"548 648 OFFCURVE",
"530 648 CURVE SMOOTH",
"524 648 OFFCURVE",
"518 647 OFFCURVE",
"511 644 CURVE",
"510 639 OFFCURVE",
"510 633 OFFCURVE",
"510 627 CURVE SMOOTH",
"510 612 OFFCURVE",
"515 582 OFFCURVE",
"515 573 CURVE SMOOTH",
"515 566 OFFCURVE",
"514 561 OFFCURVE",
"511 557 CURVE",
"520 553 OFFCURVE",
"533 539 OFFCURVE",
"550 515 CURVE SMOOTH",
"565 494 OFFCURVE",
"579 484 OFFCURVE",
"592 484 CURVE SMOOTH",
"600 484 OFFCURVE",
"609 487 OFFCURVE",
"619 493 CURVE",
"610 528 OFFCURVE",
"619 557 OFFCURVE",
"645 581 CURVE SMOOTH",
"668 602 OFFCURVE",
"698 613 OFFCURVE",
"735 613 CURVE SMOOTH",
"757 613 OFFCURVE",
"777 609 OFFCURVE",
"794 601 CURVE",
"747 536 OFFCURVE",
"665 477 OFFCURVE",
"547 425 CURVE",
"540 430 OFFCURVE",
"530 432 OFFCURVE",
"518 432 CURVE SMOOTH",
"497 432 OFFCURVE",
"482 427 OFFCURVE",
"472 418 CURVE",
"476 388 OFFCURVE",
"485 362 OFFCURVE",
"500 339 CURVE SMOOTH",
"512 321 OFFCURVE",
"531 312 OFFCURVE",
"556 312 CURVE SMOOTH"
);
}
);
vertWidth = 1000;
width = 1000;
}
);
note = cid00881;
unicode = 3068;
},
{
glyphname = "do-hira";
lastChange = "2020-12-04 08:10:26 +0000";
layers = (
{
hints = (
{
horizontal = 1;
place = "{-64.5, 7.5}";
type = Stem;
},
{
horizontal = 1;
place = "{296, 120}";
type = Stem;
},
{
horizontal = 1;
place = "{597, 47}";
type = Stem;
},
{
horizontal = 1;
place = "{680, 112}";
type = Stem;
},
{
place = "{199, 15}";
type = Stem;
},
{
place = "{310, 75}";
type = Stem;
},
{
place = "{510, 106}";
type = Stem;
},
{
place = "{314.5, 92.5}";
type = Stem;
},
{
place = "{336, 32}";
type = Stem;
},
{
place = "{483, 89}";
type = Stem;
}
);
layerId = "38E14F89-90D8-48C8-A96B-0BF2B2C9AEC9";
paths = (
{
closed = 1;
nodes = (
"369 212 OFFCURVE",
"369 221 OFFCURVE",
"364 230 CURVE",
"368 231 OFFCURVE",
"375 226 OFFCURVE",
"376 226 CURVE SMOOTH",
"377 226 OFFCURVE",
"378 227 OFFCURVE",
"379 230 CURVE",
"376 245 OFFCURVE",
"392 246 OFFCURVE",
"393 247 CURVE",
"386 274 OFFCURVE",
"382 294 OFFCURVE",
"382 309 CURVE SMOOTH",
"382 320 OFFCURVE",
"383 330 OFFCURVE",
"386 341 CURVE",
"386 344 OFFCURVE",
"378 346 OFFCURVE",
"379 351 CURVE",
"386 369 OFFCURVE",
"387 400 OFFCURVE",
"382 445 CURVE",
"388 460 OFFCURVE",
"393 476 OFFCURVE",
"395 494 CURVE SMOOTH",
"400 541 LINE",
"433 564 OFFCURVE",
"459 586 OFFCURVE",
"478 607 CURVE",
"404 570 LINE",
"406 586 OFFCURVE",
"407 601 OFFCURVE",
"407 614 CURVE SMOOTH",
"407 682 OFFCURVE",
"383 727 OFFCURVE",
"336 749 CURVE",
"327 716 OFFCURVE",
"322 674 OFFCURVE",
"319 626 CURVE SMOOTH",
"310 498 LINE",
"305 495 OFFCURVE",
"293 486 OFFCURVE",
"274 471 CURVE SMOOTH",
"260 460 OFFCURVE",
"247 452 OFFCURVE",
"235 448 CURVE",
"232 471 OFFCURVE",
"218 489 OFFCURVE",
"192 503 CURVE",
"171 494 OFFCURVE",
"154 476 OFFCURVE",
"142 448 CURVE",
"117 369 LINE",
"124 364 OFFCURVE",
"136 350 OFFCURVE",
"153 327 CURVE SMOOTH",
"167 308 OFFCURVE",
"181 296 OFFCURVE",
"196 291 CURVE",
"197 300 OFFCURVE",
"198 305 OFFCURVE",
"199 305 CURVE",
"201 300 OFFCURVE",
"204 297 OFFCURVE",
"207 298 CURVE SMOOTH",
"210 299 OFFCURVE",
"213 301 OFFCURVE",
"214 305 CURVE",
"214 326 LINE",
"229 335 OFFCURVE",
"246 354 OFFCURVE",
"265 385 CURVE SMOOTH",
"284 416 OFFCURVE",
"299 435 OFFCURVE",
"310 442 CURVE",
"313 412 OFFCURVE",
"310 384 OFFCURVE",
"303 359 CURVE",
"296 358 OFFCURVE",
"290 358 OFFCURVE",
"285 359 CURVE",
"284 328 OFFCURVE",
"287 300 OFFCURVE",
"300 278 CURVE SMOOTH",
"336 216 LINE",
"341 215 OFFCURVE",
"343 216 OFFCURVE",
"344 218 CURVE SMOOTH",
"345 219 OFFCURVE",
"345 220 OFFCURVE",
"344 223 CURVE",
"344 225 OFFCURVE",
"345 226 OFFCURVE",
"346 226 CURVE SMOOTH",
"357 223 OFFCURVE",
"356 205 OFFCURVE",
"364 201 CURVE"
);
},
{
closed = 1;
nodes = (
"609 -64 OFFCURVE",
"610 -61 OFFCURVE",
"608 -57 CURVE",
"601 -60 OFFCURVE",
"588 -54 OFFCURVE",
"588 -50 CURVE SMOOTH",
"588 -49 OFFCURVE",
"589 -48 OFFCURVE",
"590 -47 CURVE",
"617 -62 OFFCURVE",
"647 -68 OFFCURVE",
"680 -64 CURVE",
"684 -55 OFFCURVE",
"690 -53 OFFCURVE",
"698 -60 CURVE",
"701 -52 OFFCURVE",
"695 -33 OFFCURVE",
"686 -33 CURVE SMOOTH",
"684 -33 OFFCURVE",
"682 -34 OFFCURVE",
"680 -35 CURVE",
"677 -30 OFFCURVE",
"676 -25 OFFCURVE",
"676 -21 CURVE",
"685 -20 OFFCURVE",
"690 -18 OFFCURVE",
"691 -17 CURVE",
"678 -12 OFFCURVE",
"657 -3 OFFCURVE",
"630 11 CURVE SMOOTH",
"606 24 OFFCURVE",
"587 32 OFFCURVE",
"572 36 CURVE",
"571 55 OFFCURVE",
"572 77 OFFCURVE",
"575 102 CURVE SMOOTH",
"578 127 OFFCURVE",
"580 144 OFFCURVE",
"580 152 CURVE SMOOTH",
"580 158 OFFCURVE",
"580 164 OFFCURVE",
"579 169 CURVE",
"556 204 OFFCURVE",
"510 232 OFFCURVE",
"471 232 CURVE SMOOTH",
"465 232 OFFCURVE",
"459 231 OFFCURVE",
"454 230 CURVE",
"455 211 OFFCURVE",
"470 186 OFFCURVE",
"500 155 CURVE",
"501 144 OFFCURVE",
"497 126 OFFCURVE",
"490 103 CURVE SMOOTH",
"483 80 OFFCURVE",
"481 63 OFFCURVE",
"483 51 CURVE SMOOTH",
"486 29 OFFCURVE",
"500 6 OFFCURVE",
"523 -17 CURVE SMOOTH",
"546 -41 OFFCURVE",
"569 -57 OFFCURVE",
"590 -64 CURVE SMOOTH",
"595 -65 OFFCURVE",
"599 -66 OFFCURVE",
"604 -65 CURVE SMOOTH"
);
},
{
closed = 1;
nodes = (
"583 296 OFFCURVE",
"606 304 OFFCURVE",
"625 320 CURVE",
"624 336 OFFCURVE",
"603 351 OFFCURVE",
"600 362 CURVE",
"677 398 OFFCURVE",
"734 425 OFFCURVE",
"772 442 CURVE",
"773 450 OFFCURVE",
"774 454 OFFCURVE",
"777 455 CURVE",
"788 456 OFFCURVE",
"796 455 OFFCURVE",
"802 452 CURVE",
"806 457 OFFCURVE",
"827 470 OFFCURVE",
"865 493 CURVE SMOOTH",
"893 509 OFFCURVE",
"907 528 OFFCURVE",
"906 549 CURVE SMOOTH",
"906 562 OFFCURVE",
"898 579 OFFCURVE",
"881 602 CURVE SMOOTH",
"861 629 OFFCURVE",
"827 643 OFFCURVE",
"778 644 CURVE SMOOTH",
"710 645 OFFCURVE",
"646 627 OFFCURVE",
"587 592 CURVE",
"567 619 OFFCURVE",
"548 632 OFFCURVE",
"530 632 CURVE SMOOTH",
"524 632 OFFCURVE",
"518 631 OFFCURVE",
"511 628 CURVE",
"510 623 OFFCURVE",
"510 617 OFFCURVE",
"510 611 CURVE SMOOTH",
"510 596 OFFCURVE",
"515 566 OFFCURVE",
"515 557 CURVE SMOOTH",
"515 550 OFFCURVE",
"514 545 OFFCURVE",
"511 541 CURVE",
"520 537 OFFCURVE",
"533 523 OFFCURVE",
"550 499 CURVE SMOOTH",
"565 478 OFFCURVE",
"579 468 OFFCURVE",
"592 468 CURVE SMOOTH",
"600 468 OFFCURVE",
"609 471 OFFCURVE",
"619 477 CURVE",
"610 512 OFFCURVE",
"619 541 OFFCURVE",
"645 565 CURVE SMOOTH",
"668 586 OFFCURVE",
"698 597 OFFCURVE",
"735 597 CURVE SMOOTH",
"757 597 OFFCURVE",
"777 593 OFFCURVE",
"794 585 CURVE",
"747 520 OFFCURVE",
"665 461 OFFCURVE",
"547 409 CURVE",
"540 414 OFFCURVE",
"530 416 OFFCURVE",
"518 416 CURVE SMOOTH",
"497 416 OFFCURVE",
"482 411 OFFCURVE",
"472 402 CURVE",
"476 372 OFFCURVE",
"485 346 OFFCURVE",
"500 323 CURVE SMOOTH",
"512 305 OFFCURVE",
"531 296 OFFCURVE",
"556 296 CURVE SMOOTH"
);
},
{
closed = 1;
nodes = (
"750 677 OFFCURVE",
"776 673 OFFCURVE",
"801 700 CURVE",
"790 764 OFFCURVE",
"728 806 OFFCURVE",
"663 788 CURVE",
"672 761 OFFCURVE",
"697 716 OFFCURVE",
"727 694 CURVE SMOOTH"
);
},
{
closed = 1;
nodes = (
"943 811 OFFCURVE",
"857 828 OFFCURVE",
"805 818 CURVE",
"822 798 OFFCURVE",
"843 760 OFFCURVE",
"868 736 CURVE SMOOTH",
"891 715 OFFCURVE",
"917 706 OFFCURVE",
"949 733 CURVE"
);
}
);
vertWidth = 1000;
width = 1000;
}
);
note = cid00882;
unicode = 3069;
},
{
glyphname = "na-hira";
lastChange = "2020-12-04 08:10:26 +0000";
layers = (
{
hints = (
{
horizontal = 1;
place = "{-2, 35}";
type = Stem;
},
{
horizontal = 1;
place = "{289, 73}";
type = Stem;
},
{
horizontal = 1;
place = "{520, 90}";
type = Stem;
},
{
place = "{347, 78}";
type = Stem;
},
{
place = "{559, 90}";
type = Stem;
}
);
layerId = "38E14F89-90D8-48C8-A96B-0BF2B2C9AEC9";
paths = (
{
closed = 1;
nodes = (
"433 -2 OFFCURVE",
"448 -1 OFFCURVE",
"467 2 CURVE SMOOTH",
"486 5 OFFCURVE",
"500 7 OFFCURVE",
"509 7 CURVE",
"512 14 OFFCURVE",
"533 18 OFFCURVE",
"532 23 CURVE",
"543 26 OFFCURVE",
"551 27 OFFCURVE",
"557 26 CURVE",
"584 45 OFFCURVE",
"605 59 OFFCURVE",
"619 68 CURVE",
"638 99 OFFCURVE",
"648 130 OFFCURVE",
"649 163 CURVE SMOOTH",
"650 208 OFFCURVE",
"633 250 OFFCURVE",
"600 287 CURVE SMOOTH",
"567 324 OFFCURVE",
"526 349 OFFCURVE",
"477 362 CURVE",
"476 362 OFFCURVE",
"468 363 OFFCURVE",
"451 365 CURVE SMOOTH",
"440 366 OFFCURVE",
"432 369 OFFCURVE",
"425 375 CURVE",
"430 412 OFFCURVE",
"445 450 OFFCURVE",
"470 488 CURVE",
"526 511 OFFCURVE",
"596 513 OFFCURVE",
"664 520 CURVE",
"671 529 OFFCURVE",
"675 537 OFFCURVE",
"675 546 CURVE SMOOTH",
"675 565 OFFCURVE",
"661 581 OFFCURVE",
"632 594 CURVE SMOOTH",
"607 605 OFFCURVE",
"585 610 OFFCURVE",
"564 610 CURVE",
"555 622 OFFCURVE",
"551 639 OFFCURVE",
"551 662 CURVE SMOOTH",
"550 699 OFFCURVE",
"546 723 OFFCURVE",
"538 733 CURVE",
"512 740 OFFCURVE",
"495 743 OFFCURVE",
"486 742 CURVE",
"471 724 OFFCURVE",
"454 694 OFFCURVE",
"435 651 CURVE SMOOTH",
"399 568 LINE",
"328 553 OFFCURVE",
"259 542 OFFCURVE",
"193 536 CURVE",
"226 489 OFFCURVE",
"269 466 OFFCURVE",
"322 466 CURVE SMOOTH",
"336 466 OFFCURVE",
"350 468 OFFCURVE",
"364 471 CURVE",
"353 422 OFFCURVE",
"347 386 OFFCURVE",
"347 365 CURVE SMOOTH",
"347 327 OFFCURVE",
"359 300 OFFCURVE",
"383 284 CURVE",
"406 287 OFFCURVE",
"426 289 OFFCURVE",
"443 289 CURVE SMOOTH",
"496 289 OFFCURVE",
"534 272 OFFCURVE",
"557 239 CURVE",
"558 230 OFFCURVE",
"559 222 OFFCURVE",
"559 214 CURVE SMOOTH",
"559 169 OFFCURVE",
"541 127 OFFCURVE",
"504 89 CURVE SMOOTH",
"468 52 OFFCURVE",
"428 33 OFFCURVE",
"383 33 CURVE SMOOTH",
"358 33 OFFCURVE",
"335 40 OFFCURVE",
"315 55 CURVE",
"343 81 LINE SMOOTH",
"353 91 OFFCURVE",
"360 99 OFFCURVE",
"361 107 CURVE SMOOTH",
"362 112 OFFCURVE",
"357 120 OFFCURVE",
"346 131 CURVE SMOOTH",
"335 142 OFFCURVE",
"331 153 OFFCURVE",
"332 162 CURVE SMOOTH",
"332 170 OFFCURVE",
"352 180 OFFCURVE",
"352 185 CURVE SMOOTH",
"352 186 OFFCURVE",
"352 187 OFFCURVE",
"351 188 CURVE",
"340 187 OFFCURVE",
"321 177 OFFCURVE",
"296 158 CURVE SMOOTH",
"271 139 OFFCURVE",
"251 131 OFFCURVE",
"238 133 CURVE SMOOTH",
"231 134 OFFCURVE",
"224 138 OFFCURVE",
"217 147 CURVE SMOOTH",
"210 156 OFFCURVE",
"205 160 OFFCURVE",
"203 159 CURVE",
"196 158 OFFCURVE",
"188 159 OFFCURVE",
"180 162 CURVE",
"176 149 OFFCURVE",
"174 136 OFFCURVE",
"174 124 CURVE SMOOTH",
"174 66 OFFCURVE",
"209 28 OFFCURVE",
"280 10 CURVE",
"288 13 OFFCURVE",
"301 27 OFFCURVE",
"309 30 CURVE",
"319 30 OFFCURVE",
"332 26 OFFCURVE",
"348 17 CURVE SMOOTH",
"365 8 OFFCURVE",
"378 3 OFFCURVE",
"389 1 CURVE SMOOTH",
"400 -1 OFFCURVE",
"411 -2 OFFCURVE",
"421 -2 CURVE SMOOTH"
);
},
{
closed = 1;
nodes = (
"848 93 OFFCURVE",
"855 93 OFFCURVE",
"865 91 CURVE SMOOTH",
"873 90 OFFCURVE",
"878 92 OFFCURVE",
"880 97 CURVE",
"881 105 OFFCURVE",
"882 113 OFFCURVE",
"882 121 CURVE SMOOTH",
"882 194 OFFCURVE",
"833 247 OFFCURVE",
"735 281 CURVE",
"732 276 OFFCURVE",
"716 277 OFFCURVE",
"712 272 CURVE",
"715 268 OFFCURVE",
"733 235 OFFCURVE",
"768 172 CURVE SMOOTH",
"789 133 OFFCURVE",
"815 106 OFFCURVE",
"844 91 CURVE"
);
},
{
closed = 1;
nodes = (
"513 604 OFFCURVE",
"520 615 OFFCURVE",
"525 620 CURVE",
"533 619 OFFCURVE",
"537 611 OFFCURVE",
"537 597 CURVE",
"530 590 OFFCURVE",
"519 586 OFFCURVE",
"506 587 CURVE"
);
}
);
vertWidth = 1000;
width = 1000;
}
);
note = cid00883;
unicode = 306A;
},
{
glyphname = "ni-hira";
lastChange = "2020-12-04 08:10:26 +0000";
layers = (
{
hints = (
{
horizontal = 1;
place = "{144, 73}";
type = Stem;
},
{
place = "{318, 73}";
type = Stem;
},
{
place = "{554, 83}";
type = Stem;
}
);
layerId = "38E14F89-90D8-48C8-A96B-0BF2B2C9AEC9";
paths = (
{
closed = 1;
nodes = (
"568 47 OFFCURVE",
"591 78 OFFCURVE",
"599 113 CURVE",
"636 76 OFFCURVE",
"676 59 OFFCURVE",
"720 63 CURVE",
"721 74 OFFCURVE",
"742 83 OFFCURVE",
"741 92 CURVE",
"717 123 LINE SMOOTH",
"697 148 OFFCURVE",
"673 156 OFFCURVE",
"652 165 CURVE SMOOTH",
"639 171 OFFCURVE",
"630 177 OFFCURVE",
"624 183 CURVE",
"630 219 OFFCURVE",
"633 252 OFFCURVE",
"632 283 CURVE SMOOTH",
"632 284 OFFCURVE",
"635 302 OFFCURVE",
"634 310 CURVE SMOOTH",
"633 317 OFFCURVE",
"631 322 OFFCURVE",
"628 325 CURVE",
"634 340 OFFCURVE",
"637 362 OFFCURVE",
"637 391 CURVE SMOOTH",
"637 416 OFFCURVE",
"634 452 OFFCURVE",
"629 498 CURVE SMOOTH",
"624 547 OFFCURVE",
"621 576 OFFCURVE",
"621 586 CURVE SMOOTH",
"620 605 OFFCURVE",
"611 625 OFFCURVE",
"592 646 CURVE SMOOTH",
"573 668 OFFCURVE",
"556 680 OFFCURVE",
"539 682 CURVE SMOOTH",
"515 685 OFFCURVE",
"489 677 OFFCURVE",
"460 657 CURVE SMOOTH",
"424 632 OFFCURVE",
"401 617 OFFCURVE",
"391 614 CURVE",
"391 629 OFFCURVE",
"387 642 OFFCURVE",
"379 655 CURVE",
"378 658 OFFCURVE",
"370 668 OFFCURVE",
"356 685 CURVE",
"349 672 OFFCURVE",
"340 652 OFFCURVE",
"332 625 CURVE SMOOTH",
"322 592 OFFCURVE",
"318 565 OFFCURVE",
"318 544 CURVE SMOOTH",
"318 534 OFFCURVE",
"319 526 OFFCURVE",
"321 519 CURVE SMOOTH",
"324 510 OFFCURVE",
"334 497 OFFCURVE",
"351 482 CURVE SMOOTH",
"368 467 OFFCURVE",
"381 460 OFFCURVE",
"391 462 CURVE SMOOTH",
"400 463 OFFCURVE",
"414 480 OFFCURVE",
"426 483 CURVE",
"444 530 OFFCURVE",
"479 573 OFFCURVE",
"532 611 CURVE",
"546 533 OFFCURVE",
"553 463 OFFCURVE",
"554 400 CURVE SMOOTH",
"555 331 OFFCURVE",
"547 267 OFFCURVE",
"532 208 CURVE",
"507 214 OFFCURVE",
"482 217 OFFCURVE",
"458 217 CURVE SMOOTH",
"439 217 OFFCURVE",
"398 212 OFFCURVE",
"335 201 CURVE",
"324 189 OFFCURVE",
"318 176 OFFCURVE",
"318 161 CURVE SMOOTH",
"318 146 OFFCURVE",
"325 129 OFFCURVE",
"338 110 CURVE SMOOTH",
"370 63 LINE",
"389 56 OFFCURVE",
"406 46 OFFCURVE",
"420 35 CURVE",
"465 32 OFFCURVE",
"502 27 OFFCURVE",
"529 21 CURVE"
);
},
{
closed = 1;
nodes = (
"443 99 OFFCURVE",
"429 106 OFFCURVE",
"420 120 CURVE",
"425 136 OFFCURVE",
"439 144 OFFCURVE",
"464 144 CURVE SMOOTH",
"475 144 OFFCURVE",
"490 142 OFFCURVE",
"511 138 CURVE",
"508 110 OFFCURVE",
"492 97 OFFCURVE",
"462 98 CURVE SMOOTH"
);
}
);
vertWidth = 1000;
width = 1000;
}
);
note = cid00884;
unicode = 306B;
},
{
glyphname = "nu-hira";
lastChange = "2020-12-04 08:10:26 +0000";
layers = (
{
hints = (
{
horizontal = 1;
place = "{35, 83}";
type = Stem;
},
{
horizontal = 1;
place = "{156, 67}";
type = Stem;
},
{
horizontal = 1;
place = "{264, 54}";
type = Stem;
},
{
horizontal = 1;
place = "{356, 73}";
type = Stem;
},
{
horizontal = 1;
place = "{614, 56}";
type = Stem;
},
{
place = "{137, 69}";
type = Stem;
},
{
place = "{267, 74}";
type = Stem;
},
{
place = "{418, 11}";
type = Stem;
},
{
place = "{740, 63}";
type = Stem;
},
{
horizontal = 1;
place = "{92, 66}";
type = Stem;
},
{
horizontal = 1;
place = "{234, 37}";
type = Stem;
},
{
place = "{456, 64}";
type = Stem;
},
{
place = "{453, 75}";
type = Stem;
}
);
layerId = "38E14F89-90D8-48C8-A96B-0BF2B2C9AEC9";
paths = (
{
closed = 1;
nodes = (
"737 21 OFFCURVE",
"770 31 OFFCURVE",
"809 51 CURVE SMOOTH",
"867 80 OFFCURVE",
"899 95 OFFCURVE",
"906 98 CURVE",
"908 100 OFFCURVE",
"909 103 OFFCURVE",
"910 107 CURVE",
"910 124 LINE SMOOTH",
"910 132 OFFCURVE",
"911 137 OFFCURVE",
"914 139 CURVE",
"891 195 OFFCURVE",
"831 223 OFFCURVE",
"733 223 CURVE SMOOTH",
"718 223 OFFCURVE",
"702 222 OFFCURVE",
"684 221 CURVE",
"683 218 OFFCURVE",
"680 216 OFFCURVE",
"677 216 CURVE SMOOTH",
"668 215 OFFCURVE",
"662 213 OFFCURVE",
"661 208 CURVE",
"652 209 OFFCURVE",
"645 211 OFFCURVE",
"641 212 CURVE",
"636 211 OFFCURVE",
"632 198 OFFCURVE",
"627 198 CURVE SMOOTH",
"603 200 OFFCURVE",
"567 188 OFFCURVE",
"520 163 CURVE SMOOTH",
"473 138 OFFCURVE",
"439 127 OFFCURVE",
"418 128 CURVE SMOOTH",
"408 129 OFFCURVE",
"393 133 OFFCURVE",
"374 142 CURVE SMOOTH",
"355 151 OFFCURVE",
"339 158 OFFCURVE",
"327 158 CURVE SMOOTH",
"312 158 LINE",
"431 211 OFFCURVE",
"538 248 OFFCURVE",
"631 271 CURVE",
"632 280 OFFCURVE",
"641 285 OFFCURVE",
"660 285 CURVE SMOOTH",
"673 285 OFFCURVE",
"681 282 OFFCURVE",
"684 275 CURVE",
"689 276 OFFCURVE",
"697 280 OFFCURVE",
"708 287 CURVE SMOOTH",
"719 295 OFFCURVE",
"729 299 OFFCURVE",
"737 298 CURVE",
"737 303 OFFCURVE",
"736 312 OFFCURVE",
"734 326 CURVE SMOOTH",
"732 337 OFFCURVE",
"732 345 OFFCURVE",
"734 351 CURVE",
"737 350 OFFCURVE",
"739 350 OFFCURVE",
"740 350 CURVE SMOOTH",
"744 350 OFFCURVE",
"749 358 OFFCURVE",
"757 358 CURVE",
"770 397 OFFCURVE",
"784 422 OFFCURVE",
"797 434 CURVE",
"817 537 LINE",
"805 549 OFFCURVE",
"806 568 OFFCURVE",
"803 587 CURVE",
"757 637 OFFCURVE",
"707 665 OFFCURVE",
"654 670 CURVE SMOOTH",
"635 672 OFFCURVE",
"611 671 OFFCURVE",
"582 666 CURVE SMOOTH",
"518 654 LINE",
"519 660 OFFCURVE",
"520 666 OFFCURVE",
"520 672 CURVE SMOOTH",
"520 699 OFFCURVE",
"504 729 OFFCURVE",
"472 763 CURVE",
"463 752 OFFCURVE",
"457 728 OFFCURVE",
"456 692 CURVE SMOOTH",
"454 654 OFFCURVE",
"451 629 OFFCURVE",
"445 617 CURVE",
"405 596 OFFCURVE",
"369 575 OFFCURVE",
"338 553 CURVE",
"338 577 OFFCURVE",
"333 603 OFFCURVE",
"320 631 CURVE SMOOTH",
"309 654 OFFCURVE",
"296 677 OFFCURVE",
"285 700 CURVE",
"270 687 OFFCURVE",
"262 664 OFFCURVE",
"261 630 CURVE SMOOTH",
"261 617 OFFCURVE",
"262 598 OFFCURVE",
"264 571 CURVE SMOOTH",
"266 545 OFFCURVE",
"267 526 OFFCURVE",
"267 515 CURVE SMOOTH",
"267 506 OFFCURVE",
"267 498 OFFCURVE",
"266 491 CURVE",
"181 420 OFFCURVE",
"138 356 OFFCURVE",
"137 301 CURVE SMOOTH",
"137 276 OFFCURVE",
"146 250 OFFCURVE",
"163 225 CURVE",
"166 224 OFFCURVE",
"168 225 OFFCURVE",
"169 226 CURVE",
"168 231 OFFCURVE",
"167 233 OFFCURVE",
"167 231 CURVE",
"167 233 OFFCURVE",
"169 234 OFFCURVE",
"172 234 CURVE",
"183 228 OFFCURVE",
"195 227 OFFCURVE",
"210 230 CURVE SMOOTH",
"217 231 OFFCURVE",
"227 235 OFFCURVE",
"240 240 CURVE SMOOTH",
"251 245 OFFCURVE",
"258 247 OFFCURVE",
"262 247 CURVE SMOOTH",
"265 247 OFFCURVE",
"267 246 OFFCURVE",
"269 245 CURVE",
"275 251 OFFCURVE",
"278 255 OFFCURVE",
"279 258 CURVE",
"290 257 OFFCURVE",
"301 259 OFFCURVE",
"310 265 CURVE SMOOTH",
"335 280 OFFCURVE",
"340 279 OFFCURVE",
"345 279 CURVE SMOOTH",
"357 279 OFFCURVE",
"378 264 OFFCURVE",
"391 264 CURVE SMOOTH",
"407 265 OFFCURVE",
"418 274 OFFCURVE",
"423 291 CURVE SMOOTH",
"431 316 OFFCURVE",
"437 332 OFFCURVE",
"442 337 CURVE",
"437 344 OFFCURVE",
"434 348 OFFCURVE",
"435 351 CURVE",
"434 350 OFFCURVE",
"428 344 OFFCURVE",
"417 331 CURVE SMOOTH",
"410 323 OFFCURVE",
"403 318 OFFCURVE",
"396 315 CURVE",
"395 318 OFFCURVE",
"393 319 OFFCURVE",
"388 318 CURVE",
"395 346 OFFCURVE",
"405 366 OFFCURVE",
"418 378 CURVE",
"415 377 OFFCURVE",
"413 378 OFFCURVE",
"412 381 CURVE",
"421 384 OFFCURVE",
"426 388 OFFCURVE",
"429 394 CURVE",
"432 418 LINE",
"439 417 OFFCURVE",
"444 418 OFFCURVE",
"448 421 CURVE",
"453 438 OFFCURVE",
"465 463 OFFCURVE",
"484 498 CURVE SMOOTH",
"501 528 OFFCURVE",
"512 555 OFFCURVE",
"515 580 CURVE",
"568 603 OFFCURVE",
"609 614 OFFCURVE",
"636 614 CURVE SMOOTH",
"705 614 OFFCURVE",
"740 580 OFFCURVE",
"740 513 CURVE SMOOTH",
"740 502 OFFCURVE",
"739 490 OFFCURVE",
"737 477 CURVE",
"712 442 OFFCURVE",
"693 416 OFFCURVE",
"681 397 CURVE",
"657 418 OFFCURVE",
"626 428 OFFCURVE",
"587 429 CURVE SMOOTH",
"557 430 OFFCURVE",
"530 424 OFFCURVE",
"505 411 CURVE SMOOTH",
"478 398 OFFCURVE",
"460 380 OFFCURVE",
"451 358 CURVE",
"462 355 OFFCURVE",
"467 368 OFFCURVE",
"475 367 CURVE",
"460 353 OFFCURVE",
"453 336 OFFCURVE",
"453 315 CURVE SMOOTH",
"453 305 OFFCURVE",
"455 295 OFFCURVE",
"458 285 CURVE",
"465 280 OFFCURVE",
"495 276 OFFCURVE",
"502 271 CURVE",
"475 259 OFFCURVE",
"430 241 OFFCURVE",
"369 218 CURVE SMOOTH",
"311 196 OFFCURVE",
"268 178 OFFCURVE",
"239 165 CURVE",
"188 135 LINE SMOOTH",
"169 124 OFFCURVE",
"150 118 OFFCURVE",
"133 118 CURVE",
"117 92 LINE SMOOTH",
"110 81 OFFCURVE",
"107 72 OFFCURVE",
"107 63 CURVE SMOOTH",
"107 54 OFFCURVE",
"110 45 OFFCURVE",
"116 36 CURVE",
"122 35 OFFCURVE",
"128 35 OFFCURVE",
"135 35 CURVE SMOOTH",
"183 35 OFFCURVE",
"236 52 OFFCURVE",
"293 85 CURVE",
"296 84 OFFCURVE",
"299 84 OFFCURVE",
"302 84 CURVE SMOOTH",
"310 84 OFFCURVE",
"322 92 OFFCURVE",
"329 92 CURVE SMOOTH",
"347 93 OFFCURVE",
"373 86 OFFCURVE",
"406 70 CURVE SMOOTH",
"439 54 OFFCURVE",
"463 46 OFFCURVE",
"478 46 CURVE SMOOTH",
"487 46 OFFCURVE",
"495 48 OFFCURVE",
"502 52 CURVE SMOOTH",
"543 75 OFFCURVE",
"571 92 OFFCURVE",
"584 102 CURVE",
"594 99 OFFCURVE",
"598 98 OFFCURVE",
"597 98 CURVE",
"650 137 OFFCURVE",
"709 156 OFFCURVE",
"775 156 CURVE SMOOTH",
"790 156 OFFCURVE",
"804 155 OFFCURVE",
"817 152 CURVE",
"804 133 OFFCURVE",
"780 117 OFFCURVE",
"745 102 CURVE SMOOTH",
"694 80 OFFCURVE",
"666 68 OFFCURVE",
"661 65 CURVE",
"621 69 OFFCURVE",
"597 66 OFFCURVE",
"588 55 CURVE",
"587 44 OFFCURVE",
"601 37 OFFCURVE",
"602 32 CURVE",
"619 37 OFFCURVE",
"632 41 OFFCURVE",
"641 42 CURVE",
"663 28 OFFCURVE",
"686 21 OFFCURVE",
"710 21 CURVE SMOOTH"
);
},
{
closed = 1;
nodes = (
"208 327 OFFCURVE",
"232 374 OFFCURVE",
"279 411 CURVE",
"290 384 OFFCURVE",
"299 362 OFFCURVE",
"305 345 CURVE",
"270 300 OFFCURVE",
"237 276 OFFCURVE",
"206 271 CURVE"
);
},
{
closed = 1;
nodes = (
"339 418 OFFCURVE",
"338 443 OFFCURVE",
"346 465 CURVE SMOOTH",
"355 488 OFFCURVE",
"380 512 OFFCURVE",
"423 535 CURVE",
"424 524 OFFCURVE",
"417 505 OFFCURVE",
"400 478 CURVE SMOOTH",
"383 452 OFFCURVE",
"376 433 OFFCURVE",
"378 421 CURVE",
"363 417 OFFCURVE",
"359 392 OFFCURVE",
"348 391 CURVE"
);
},
{
closed = 1;
nodes = (
"531 344 OFFCURVE",
"550 356 OFFCURVE",
"586 356 CURVE SMOOTH",
"597 356 OFFCURVE",
"609 354 OFFCURVE",
"621 351 CURVE",
"598 328 OFFCURVE",
"567 318 OFFCURVE",
"528 321 CURVE"
);
}
);
vertWidth = 1000;
width = 1000;
}
);
note = cid00885;
unicode = 306C;
},
{
glyphname = "ne-hira";
lastChange = "2020-12-04 08:10:26 +0000";
layers = (
{
hints = (
{
horizontal = 1;
place = "{607, 7}";
type = Stem;
},
{
place = "{288, 77}";
type = Stem;
},
{
place = "{404, 114}";
type = Stem;
},
{
place = "{641, 71}";
type = Stem;
}
);
layerId = "38E14F89-90D8-48C8-A96B-0BF2B2C9AEC9";
paths = (
{
closed = 1;
nodes = (
"358 -27 OFFCURVE",
"367 -25 OFFCURVE",
"376 -20 CURVE",
"373 -5 OFFCURVE",
"371 18 OFFCURVE",
"369 51 CURVE SMOOTH",
"367 80 OFFCURVE",
"363 103 OFFCURVE",
"358 122 CURVE",
"364 122 OFFCURVE",
"368 124 OFFCURVE",
"369 128 CURVE",
"365 132 OFFCURVE",
"363 157 OFFCURVE",
"358 161 CURVE",
"372 301 LINE SMOOTH",
"377 350 OFFCURVE",
"390 393 OFFCURVE",
"407 430 CURVE",
"409 469 OFFCURVE",
"422 509 OFFCURVE",
"455 546 CURVE SMOOTH",
"536 636 LINE",
"535 630 OFFCURVE",
"529 616 OFFCURVE",
"517 594 CURVE SMOOTH",
"505 572 OFFCURVE",
"498 558 OFFCURVE",
"497 551 CURVE SMOOTH",
"496 542 OFFCURVE",
"493 537 OFFCURVE",
"489 536 CURVE",
"469 485 LINE SMOOTH",
"461 464 OFFCURVE",
"458 448 OFFCURVE",
"458 435 CURVE SMOOTH",
"458 412 OFFCURVE",
"471 399 OFFCURVE",
"497 394 CURVE SMOOTH",
"516 391 OFFCURVE",
"541 396 OFFCURVE",
"570 411 CURVE",
"602 432 OFFCURVE",
"625 449 OFFCURVE",
"638 461 CURVE",
"638 460 OFFCURVE",
"639 397 OFFCURVE",
"641 273 CURVE SMOOTH",
"642 200 OFFCURVE",
"641 144 OFFCURVE",
"638 104 CURVE",
"633 101 OFFCURVE",
"629 99 OFFCURVE",
"628 97 CURVE",
"592 111 OFFCURVE",
"567 123 OFFCURVE",
"553 133 CURVE SMOOTH",
"529 152 OFFCURVE",
"517 175 OFFCURVE",
"518 203 CURVE",
"527 234 OFFCURVE",
"535 257 OFFCURVE",
"543 270 CURVE",
"529 265 OFFCURVE",
"514 256 OFFCURVE",
"498 243 CURVE SMOOTH",
"458 210 LINE",
"446 231 OFFCURVE",
"436 242 OFFCURVE",
"427 242 CURVE SMOOTH",
"424 242 OFFCURVE",
"420 241 OFFCURVE",
"415 239 CURVE",
"408 223 OFFCURVE",
"404 209 OFFCURVE",
"404 197 CURVE SMOOTH",
"404 183 OFFCURVE",
"409 171 OFFCURVE",
"419 161 CURVE",
"432 144 OFFCURVE",
"441 131 OFFCURVE",
"447 122 CURVE",
"460 109 OFFCURVE",
"473 103 OFFCURVE",
"488 103 CURVE SMOOTH",
"507 103 OFFCURVE",
"520 113 OFFCURVE",
"528 133 CURVE",
"541 128 OFFCURVE",
"553 114 OFFCURVE",
"564 90 CURVE SMOOTH",
"579 60 OFFCURVE",
"591 40 OFFCURVE",
"600 30 CURVE SMOOTH",
"622 6 OFFCURVE",
"650 -6 OFFCURVE",
"683 -6 CURVE SMOOTH",
"693 -6 OFFCURVE",
"701 -4 OFFCURVE",
"706 1 CURVE",
"714 21 OFFCURVE",
"718 36 OFFCURVE",
"718 47 CURVE SMOOTH",
"718 56 OFFCURVE",
"715 62 OFFCURVE",
"709 65 CURVE",
"717 86 OFFCURVE",
"721 102 OFFCURVE",
"721 114 CURVE SMOOTH",
"721 125 OFFCURVE",
"718 134 OFFCURVE",
"712 143 CURVE",
"713 146 OFFCURVE",
"716 146 OFFCURVE",
"723 143 CURVE",
"725 147 OFFCURVE",
"726 158 OFFCURVE",
"726 176 CURVE SMOOTH",
"726 195 OFFCURVE",
"725 207 OFFCURVE",
"723 214 CURVE",
"719 219 OFFCURVE",
"715 223 OFFCURVE",
"712 224 CURVE",
"709 286 OFFCURVE",
"710 335 OFFCURVE",
"709 370 CURVE SMOOTH",
"708 435 OFFCURVE",
"727 477 OFFCURVE",
"773 497 CURVE",
"786 514 OFFCURVE",
"796 526 OFFCURVE",
"804 533 CURVE",
"799 545 OFFCURVE",
"789 555 OFFCURVE",
"772 563 CURVE SMOOTH",
"758 569 OFFCURVE",
"744 575 OFFCURVE",
"730 582 CURVE",
"673 541 OFFCURVE",
"612 512 OFFCURVE",
"549 494 CURVE",
"558 525 OFFCURVE",
"571 545 OFFCURVE",
"588 554 CURVE",
"581 555 OFFCURVE",
"578 557 OFFCURVE",
"578 561 CURVE",
"585 562 OFFCURVE",
"592 568 OFFCURVE",
"600 579 CURVE SMOOTH",
"609 590 OFFCURVE",
"616 597 OFFCURVE",
"621 600 CURVE",
"612 599 OFFCURVE",
"607 602 OFFCURVE",
"606 607 CURVE",
"611 606 OFFCURVE",
"614 607 OFFCURVE",
"616 608 CURVE SMOOTH",
"618 609 OFFCURVE",
"618 611 OFFCURVE",
"616 614 CURVE",
"629 626 OFFCURVE",
"638 641 OFFCURVE",
"645 660 CURVE SMOOTH",
"652 681 OFFCURVE",
"661 698 OFFCURVE",
"670 709 CURVE",
"665 743 OFFCURVE",
"636 760 OFFCURVE",
"582 760 CURVE",
"580 745 OFFCURVE",
"566 724 OFFCURVE",
"540 697 CURVE SMOOTH",
"514 670 OFFCURVE",
"501 653 OFFCURVE",
"501 646 CURVE SMOOTH",
"501 643 OFFCURVE",
"502 641 OFFCURVE",
"504 639 CURVE",
"499 627 OFFCURVE",
"475 611 OFFCURVE",
"475 600 CURVE SMOOTH",
"475 598 OFFCURVE",
"475 596 OFFCURVE",
"476 593 CURVE",
"466 596 OFFCURVE",
"457 588 OFFCURVE",
"449 571 CURVE",
"457 575 OFFCURVE",
"463 580 OFFCURVE",
"468 585 CURVE",
"449 557 OFFCURVE",
"434 537 OFFCURVE",
"423 524 CURVE",
"428 521 OFFCURVE",
"428 515 OFFCURVE",
"425 508 CURVE",
"423 509 OFFCURVE",
"421 510 OFFCURVE",
"420 510 CURVE SMOOTH",
"416 510 OFFCURVE",
"414 487 OFFCURVE",
"401 487 CURVE",
"407 495 OFFCURVE",
"410 501 OFFCURVE",
"410 506 CURVE SMOOTH",
"410 509 OFFCURVE",
"409 511 OFFCURVE",
"407 512 CURVE",
"398 491 OFFCURVE",
"388 475 OFFCURVE",
"376 466 CURVE",
"359 466 OFFCURVE",
"342 470 OFFCURVE",
"323 479 CURVE",
"285 460 OFFCURVE",
"247 442 OFFCURVE",
"208 424 CURVE SMOOTH",
"162 404 OFFCURVE",
"116 393 OFFCURVE",
"71 391 CURVE",
"79 372 OFFCURVE",
"96 357 OFFCURVE",
"123 345 CURVE SMOOTH",
"147 335 OFFCURVE",
"174 329 OFFCURVE",
"203 329 CURVE SMOOTH",
"214 329 OFFCURVE",
"229 332 OFFCURVE",
"248 338 CURVE SMOOTH",
"267 345 OFFCURVE",
"278 348 OFFCURVE",
"280 348 CURVE",
"235 264 LINE SMOOTH",
"214 225 OFFCURVE",
"197 195 OFFCURVE",
"182 175 CURVE",
"160 151 LINE SMOOTH",
"151 141 OFFCURVE",
"146 131 OFFCURVE",
"146 122 CURVE SMOOTH",
"144 93 OFFCURVE",
"164 67 OFFCURVE",
"203 43 CURVE",
"219 56 OFFCURVE",
"234 79 OFFCURVE",
"249 112 CURVE SMOOTH",
"266 149 OFFCURVE",
"279 172 OFFCURVE",
"288 182 CURVE",
"292 159 OFFCURVE",
"288 141 OFFCURVE",
"277 128 CURVE",
"286 116 OFFCURVE",
"291 101 OFFCURVE",
"291 82 CURVE SMOOTH",
"291 68 OFFCURVE",
"286 58 OFFCURVE",
"277 51 CURVE",
"297 -1 OFFCURVE",
"321 -27 OFFCURVE",
"350 -27 CURVE SMOOTH"
);
},
{
closed = 1;
nodes = (
"295 636 LINE",
"320 634 OFFCURVE",
"346 636 OFFCURVE",
"374 646 CURVE SMOOTH",
"433 667 LINE",
"434 671 OFFCURVE",
"435 675 OFFCURVE",
"435 678 CURVE SMOOTH",
"435 693 OFFCURVE",
"426 707 OFFCURVE",
"407 718 CURVE SMOOTH",
"388 730 OFFCURVE",
"369 736 OFFCURVE",
"349 736 CURVE SMOOTH",
"344 736 OFFCURVE",
"339 735 OFFCURVE",
"334 734 CURVE",
"323 729 OFFCURVE",
"314 724 OFFCURVE",
"309 720 CURVE",
"296 717 OFFCURVE",
"276 714 OFFCURVE",
"251 711 CURVE SMOOTH",
"226 708 OFFCURVE",
"209 706 OFFCURVE",
"200 703 CURVE",
"205 690 OFFCURVE",
"216 678 OFFCURVE",
"234 668 CURVE SMOOTH",
"259 654 OFFCURVE",
"273 645 OFFCURVE",
"277 642 CURVE",
"264 624 OFFCURVE",
"257 613 OFFCURVE",
"257 608 CURVE SMOOTH",
"257 605 OFFCURVE",
"258 603 OFFCURVE",
"259 600 CURVE"
);
},
{
closed = 1;
nodes = (
"947 144 OFFCURVE",
"953 161 OFFCURVE",
"953 179 CURVE SMOOTH",
"953 215 OFFCURVE",
"934 247 OFFCURVE",
"897 274 CURVE SMOOTH",
"863 300 OFFCURVE",
"828 313 OFFCURVE",
"791 313 CURVE",
"789 304 OFFCURVE",
"792 295 OFFCURVE",
"800 285 CURVE SMOOTH",
"811 269 OFFCURVE",
"818 260 OFFCURVE",
"819 257 CURVE SMOOTH",
"830 232 OFFCURVE",
"840 207 OFFCURVE",
"850 182 CURVE",
"863 158 OFFCURVE",
"879 142 OFFCURVE",
"900 133 CURVE",
"913 138 OFFCURVE",
"925 137 OFFCURVE",
"936 128 CURVE"
);
}
);
vertWidth = 1000;
width = 1000;
}
);
note = cid00886;
unicode = 306D;
},
{
glyphname = "no-hira";
lastChange = "2020-12-04 08:10:26 +0000";
layers = (
{
hints = (
{
horizontal = 1;
place = "{8, 678}";
type = Stem;
},
{
place = "{231, 110}";
type = Stem;
},
{
place = "{701, 82}";
type = Stem;
},
{
horizontal = 1;
place = "{8, 61}";
type = Stem;
},
{
horizontal = 1;
place = "{631, 55}";
type = Stem;
}
);
layerId = "38E14F89-90D8-48C8-A96B-0BF2B2C9AEC9";
paths = (
{
closed = 1;
nodes = (
"580 9 OFFCURVE",
"596 11 OFFCURVE",
"610 14 CURVE",
"638 24 LINE",
"650 24 OFFCURVE",
"663 30 OFFCURVE",
"678 42 CURVE SMOOTH",
"721 76 LINE",
"716 77 OFFCURVE",
"714 79 OFFCURVE",
"715 82 CURVE",
"726 83 OFFCURVE",
"736 102 OFFCURVE",
"741 102 CURVE",
"740 104 OFFCURVE",
"739 106 OFFCURVE",
"739 108 CURVE SMOOTH",
"739 115 OFFCURVE",
"765 133 OFFCURVE",
"765 153 CURVE SMOOTH",
"765 157 OFFCURVE",
"764 161 OFFCURVE",
"763 166 CURVE",
"768 167 OFFCURVE",
"772 167 OFFCURVE",
"773 166 CURVE",
"778 195 OFFCURVE",
"782 217 OFFCURVE",
"786 234 CURVE",
"783 235 OFFCURVE",
"781 238 OFFCURVE",
"781 242 CURVE SMOOTH",
"782 249 OFFCURVE",
"783 251 OFFCURVE",
"783 250 CURVE SMOOTH",
"779 295 OFFCURVE",
"759 333 OFFCURVE",
"722 364 CURVE",
"612 440 LINE",
"629 483 OFFCURVE",
"657 545 OFFCURVE",
"696 624 CURVE",
"692 639 OFFCURVE",
"690 651 OFFCURVE",
"689 660 CURVE",
"669 677 OFFCURVE",
"645 686 OFFCURVE",
"618 686 CURVE SMOOTH",
"613 686 OFFCURVE",
"596 685 OFFCURVE",
"567 682 CURVE SMOOTH",
"518 677 OFFCURVE",
"461 662 OFFCURVE",
"395 634 CURVE SMOOTH",
"340 611 OFFCURVE",
"286 586 OFFCURVE",
"231 563 CURVE",
"228 551 OFFCURVE",
"203 540 OFFCURVE",
"199 531 CURVE",
"217 506 OFFCURVE",
"240 493 OFFCURVE",
"267 493 CURVE SMOOTH",
"290 493 OFFCURVE",
"321 503 OFFCURVE",
"360 523 CURVE SMOOTH",
"405 547 OFFCURVE",
"433 560 OFFCURVE",
"444 563 CURVE",
"441 558 OFFCURVE",
"413 493 OFFCURVE",
"359 370 CURVE SMOOTH",
"326 294 OFFCURVE",
"293 234 OFFCURVE",
"260 189 CURVE",
"255 190 OFFCURVE",
"243 202 OFFCURVE",
"234 202 CURVE",
"237 188 OFFCURVE",
"236 162 OFFCURVE",
"231 124 CURVE",
"240 117 OFFCURVE",
"249 104 OFFCURVE",
"258 87 CURVE SMOOTH",
"270 64 OFFCURVE",
"278 50 OFFCURVE",
"283 43 CURVE",
"283 43 OFFCURVE",
"290 42 OFFCURVE",
"305 40 CURVE",
"309 46 OFFCURVE",
"312 58 OFFCURVE",
"315 77 CURVE SMOOTH",
"318 93 OFFCURVE",
"322 102 OFFCURVE",
"328 105 CURVE",
"327 108 OFFCURVE",
"326 110 OFFCURVE",
"326 113 CURVE SMOOTH",
"326 124 OFFCURVE",
"341 148 OFFCURVE",
"341 155 CURVE SMOOTH",
"341 158 OFFCURVE",
"340 161 OFFCURVE",
"338 163 CURVE",
"350 163 LINE",
"351 172 OFFCURVE",
"357 188 OFFCURVE",
"369 210 CURVE SMOOTH",
"382 232 OFFCURVE",
"387 250 OFFCURVE",
"386 263 CURVE",
"394 264 OFFCURVE",
"401 271 OFFCURVE",
"405 282 CURVE SMOOTH",
"426 334 OFFCURVE",
"439 366 OFFCURVE",
"447 379 CURVE",
"450 379 OFFCURVE",
"456 385 OFFCURVE",
"463 385 CURVE",
"466 398 OFFCURVE",
"472 411 OFFCURVE",
"482 424 CURVE SMOOTH",
"508 456 LINE",
"509 483 OFFCURVE",
"503 506 OFFCURVE",
"491 526 CURVE SMOOTH",
"484 537 OFFCURVE",
"470 553 OFFCURVE",
"450 572 CURVE",
"461 575 OFFCURVE",
"486 586 OFFCURVE",
"523 605 CURVE SMOOTH",
"555 621 OFFCURVE",
"579 630 OFFCURVE",
"596 631 CURVE",
"595 608 OFFCURVE",
"585 572 OFFCURVE",
"564 523 CURVE SMOOTH",
"545 478 OFFCURVE",
"538 440 OFFCURVE",
"541 408 CURVE",
"643 345 LINE SMOOTH",
"684 320 OFFCURVE",
"701 285 OFFCURVE",
"701 249 CURVE SMOOTH",
"701 196 OFFCURVE",
"673 154 OFFCURVE",
"618 121 CURVE",
"609 110 OFFCURVE",
"601 99 OFFCURVE",
"593 88 CURVE SMOOTH",
"583 77 OFFCURVE",
"573 70 OFFCURVE",
"563 69 CURVE",
"563 72 OFFCURVE",
"573 75 OFFCURVE",
"573 76 CURVE SMOOTH",
"573 77 OFFCURVE",
"572 78 OFFCURVE",
"570 79 CURVE",
"545 70 OFFCURVE",
"524 63 OFFCURVE",
"505 60 CURVE SMOOTH",
"498 59 OFFCURVE",
"498 54 OFFCURVE",
"505 47 CURVE",
"533 32 OFFCURVE",
"552 19 OFFCURVE",
"563 8 CURVE"
);
}
);
vertWidth = 1000;
width = 1000;
}
);
note = cid00887;
unicode = 306E;
},
{
glyphname = "ha-hira";
lastChange = "2020-12-04 08:10:26 +0000";
layers = (
{
hints = (
{
horizontal = 1;
place = "{5, 62}";
type = Stem;
},
{
horizontal = 1;
place = "{205, 35}";
type = Stem;
},
{
horizontal = 1;
place = "{558, 53}";
type = Stem;
},
{
place = "{172, 48}";
type = Stem;
},
{
place = "{588, 105}";
type = Stem;
},
{
place = "{690, 78}";
type = Stem;
},
{
place = "{764, 95}";
type = Stem;
},
{
place = "{231, 98}";
type = Stem;
},
{
place = "{582, 82}";
type = Stem;
}
);
layerId = "38E14F89-90D8-48C8-A96B-0BF2B2C9AEC9";
paths = (
{
closed = 1;
nodes = (
"864 -5 OFFCURVE",
"874 0 OFFCURVE",
"877 0 CURVE",
"878 23 OFFCURVE",
"871 45 OFFCURVE",
"855 66 CURVE SMOOTH",
"845 79 OFFCURVE",
"827 95 OFFCURVE",
"800 116 CURVE SMOOTH",
"773 137 OFFCURVE",
"756 153 OFFCURVE",
"747 164 CURVE",
"761 196 OFFCURVE",
"768 228 OFFCURVE",
"768 259 CURVE SMOOTH",
"768 302 OFFCURVE",
"755 335 OFFCURVE",
"729 358 CURVE SMOOTH",
"722 365 OFFCURVE",
"706 371 OFFCURVE",
"683 375 CURVE SMOOTH",
"664 379 OFFCURVE",
"651 387 OFFCURVE",
"645 400 CURVE",
"652 399 OFFCURVE",
"659 398 OFFCURVE",
"666 398 CURVE SMOOTH",
"692 398 OFFCURVE",
"723 411 OFFCURVE",
"759 437 CURVE SMOOTH",
"795 464 OFFCURVE",
"818 481 OFFCURVE",
"827 490 CURVE SMOOTH",
"849 511 OFFCURVE",
"860 532 OFFCURVE",
"859 553 CURVE",
"858 554 OFFCURVE",
"856 558 OFFCURVE",
"851 564 CURVE SMOOTH",
"848 568 OFFCURVE",
"846 572 OFFCURVE",
"846 575 CURVE SMOOTH",
"846 578 OFFCURVE",
"847 581 OFFCURVE",
"848 584 CURVE",
"830 602 OFFCURVE",
"799 611 OFFCURVE",
"756 611 CURVE SMOOTH",
"737 611 OFFCURVE",
"713 609 OFFCURVE",
"684 605 CURVE",
"681 624 OFFCURVE",
"693 658 OFFCURVE",
"693 669 CURVE SMOOTH",
"693 674 OFFCURVE",
"692 680 OFFCURVE",
"691 685 CURVE",
"684 695 OFFCURVE",
"681 700 OFFCURVE",
"681 701 CURVE SMOOTH",
"681 704 OFFCURVE",
"682 707 OFFCURVE",
"684 710 CURVE",
"670 718 OFFCURVE",
"658 731 OFFCURVE",
"649 748 CURVE",
"623 756 OFFCURVE",
"604 763 OFFCURVE",
"592 769 CURVE",
"589 750 OFFCURVE",
"588 730 OFFCURVE",
"588 708 CURVE SMOOTH",
"587 629 OFFCURVE",
"585 582 OFFCURVE",
"582 567 CURVE",
"569 562 OFFCURVE",
"552 552 OFFCURVE",
"531 535 CURVE SMOOTH",
"510 519 OFFCURVE",
"492 509 OFFCURVE",
"477 504 CURVE",
"467 533 OFFCURVE",
"442 548 OFFCURVE",
"401 548 CURVE SMOOTH",
"393 548 OFFCURVE",
"385 547 OFFCURVE",
"378 546 CURVE",
"365 483 OFFCURVE",
"341 404 OFFCURVE",
"308 308 CURVE SMOOTH",
"280 226 OFFCURVE",
"259 172 OFFCURVE",
"246 146 CURVE",
"230 197 OFFCURVE",
"221 253 OFFCURVE",
"220 313 CURVE",
"228 326 OFFCURVE",
"236 340 OFFCURVE",
"245 353 CURVE",
"254 370 OFFCURVE",
"260 385 OFFCURVE",
"262 400 CURVE SMOOTH",
"264 417 OFFCURVE",
"261 439 OFFCURVE",
"252 464 CURVE SMOOTH",
"241 494 OFFCURVE",
"236 514 OFFCURVE",
"235 525 CURVE",
"242 530 OFFCURVE",
"253 533 OFFCURVE",
"270 536 CURVE SMOOTH",
"290 539 OFFCURVE",
"304 543 OFFCURVE",
"312 546 CURVE",
"323 560 OFFCURVE",
"329 575 OFFCURVE",
"329 592 CURVE SMOOTH",
"329 637 OFFCURVE",
"296 678 OFFCURVE",
"231 716 CURVE",
"233 669 OFFCURVE",
"231 633 OFFCURVE",
"225 609 CURVE",
"212 575 OFFCURVE",
"202 549 OFFCURVE",
"193 532 CURVE",
"192 515 OFFCURVE",
"192 503 OFFCURVE",
"193 494 CURVE",
"186 453 OFFCURVE",
"180 423 OFFCURVE",
"175 403 CURVE",
"173 377 OFFCURVE",
"172 349 OFFCURVE",
"172 320 CURVE SMOOTH",
"172 235 OFFCURVE",
"181 145 OFFCURVE",
"199 48 CURVE",
"230 17 OFFCURVE",
"256 1 OFFCURVE",
"279 1 CURVE SMOOTH",
"288 1 OFFCURVE",
"296 3 OFFCURVE",
"304 7 CURVE SMOOTH",
"315 13 OFFCURVE",
"322 22 OFFCURVE",
"322 34 CURVE SMOOTH",
"322 74 LINE SMOOTH",
"323 85 OFFCURVE",
"326 104 OFFCURVE",
"331 129 CURVE SMOOTH",
"336 154 OFFCURVE",
"339 174 OFFCURVE",
"340 188 CURVE SMOOTH",
"343 263 OFFCURVE",
"346 316 OFFCURVE",
"351 348 CURVE SMOOTH",
"358 399 OFFCURVE",
"369 432 OFFCURVE",
"382 448 CURVE",
"377 429 OFFCURVE",
"374 416 OFFCURVE",
"374 408 CURVE SMOOTH",
"374 363 OFFCURVE",
"395 335 OFFCURVE",
"438 323 CURVE",
"451 334 OFFCURVE",
"473 365 OFFCURVE",
"503 414 CURVE SMOOTH",
"528 454 OFFCURVE",
"553 479 OFFCURVE",
"582 490 CURVE",
"583 459 OFFCURVE",
"573 406 OFFCURVE",
"550 331 CURVE",
"554 327 OFFCURVE",
"561 316 OFFCURVE",
"571 297 CURVE SMOOTH",
"578 284 OFFCURVE",
"586 276 OFFCURVE",
"595 275 CURVE SMOOTH",
"605 274 OFFCURVE",
"618 280 OFFCURVE",
"634 294 CURVE SMOOTH",
"651 309 OFFCURVE",
"666 315 OFFCURVE",
"680 313 CURVE",
"687 306 OFFCURVE",
"690 294 OFFCURVE",
"690 279 CURVE SMOOTH",
"690 248 OFFCURVE",
"676 211 OFFCURVE",
"663 202 CURVE",
"616 227 OFFCURVE",
"561 240 OFFCURVE",
"498 240 CURVE SMOOTH",
"464 240 OFFCURVE",
"435 235 OFFCURVE",
"410 226 CURVE",
"401 215 OFFCURVE",
"398 207 OFFCURVE",
"401 202 CURVE",
"412 204 OFFCURVE",
"422 205 OFFCURVE",
"433 205 CURVE SMOOTH",
"462 205 OFFCURVE",
"493 197 OFFCURVE",
"526 182 CURVE SMOOTH",
"538 177 OFFCURVE",
"566 161 OFFCURVE",
"610 135 CURVE",
"593 117 OFFCURVE",
"571 102 OFFCURVE",
"545 89 CURVE SMOOTH",
"515 74 OFFCURVE",
"486 67 OFFCURVE",
"459 67 CURVE SMOOTH",
"442 67 OFFCURVE",
"425 70 OFFCURVE",
"410 77 CURVE",
"397 106 OFFCURVE",
"387 128 OFFCURVE",
"382 143 CURVE",
"377 143 OFFCURVE",
"374 131 OFFCURVE",
"367 132 CURVE",
"371 116 OFFCURVE",
"373 100 OFFCURVE",
"372 83 CURVE",
"377 70 OFFCURVE",
"395 64 OFFCURVE",
"410 59 CURVE",
"426 46 OFFCURVE",
"438 35 OFFCURVE",
"445 27 CURVE",
"470 12 OFFCURVE",
"498 4 OFFCURVE",
"528 5 CURVE SMOOTH",
"589 6 OFFCURVE",
"644 34 OFFCURVE",
"694 87 CURVE",
"707 78 OFFCURVE",
"722 64 OFFCURVE",
"741 45 CURVE SMOOTH",
"760 26 OFFCURVE",
"775 13 OFFCURVE",
"786 6 CURVE SMOOTH",
"805 -5 OFFCURVE",
"825 -12 OFFCURVE",
"848 -14 CURVE"
);
},
{
closed = 1;
nodes = (
"665 474 OFFCURVE",
"664 480 OFFCURVE",
"664 486 CURVE SMOOTH",
"664 504 OFFCURVE",
"670 524 OFFCURVE",
"681 545 CURVE",
"683 546 OFFCURVE",
"693 548 OFFCURVE",
"711 552 CURVE SMOOTH",
"726 556 OFFCURVE",
"737 558 OFFCURVE",
"745 558 CURVE SMOOTH",
"753 558 OFFCURVE",
"759 556 OFFCURVE",
"764 553 CURVE",
"760 530 OFFCURVE",
"748 511 OFFCURVE",
"729 497 CURVE SMOOTH",
"716 488 OFFCURVE",
"695 479 OFFCURVE",
"666 469 CURVE"
);
}
);
vertWidth = 1000;
width = 1000;
}
);
note = cid00888;
unicode = 306F;
},
{
glyphname = "ba-hira";
lastChange = "2020-12-04 08:10:26 +0000";
layers = (
{
hints = (
{
horizontal = 1;
place = "{-3, 62}";
type = Stem;
},
{
horizontal = 1;
place = "{197, 35}";
type = Stem;
},
{
horizontal = 1;
place = "{550, 53}";
type = Stem;
},
{
horizontal = 1;
place = "{637, 112}";
type = Stem;
},
{
place = "{162, 48}";
type = Stem;
},
{
place = "{578, 105}";
type = Stem;
},
{
place = "{680, 78}";
type = Stem;
},
{
place = "{754, 95}";
type = Stem;
},
{
place = "{221, 98}";
type = Stem;
},
{
place = "{572, 82}";
type = Stem;
}
);
layerId = "38E14F89-90D8-48C8-A96B-0BF2B2C9AEC9";
paths = (
{
closed = 1;
nodes = (
"854 -13 OFFCURVE",
"864 -8 OFFCURVE",
"867 -8 CURVE",
"868 15 OFFCURVE",
"861 37 OFFCURVE",
"845 58 CURVE SMOOTH",
"835 71 OFFCURVE",
"817 87 OFFCURVE",
"790 108 CURVE SMOOTH",
"763 129 OFFCURVE",
"746 145 OFFCURVE",
"737 156 CURVE",
"751 188 OFFCURVE",
"758 220 OFFCURVE",
"758 251 CURVE SMOOTH",
"758 294 OFFCURVE",
"745 327 OFFCURVE",
"719 350 CURVE SMOOTH",
"712 357 OFFCURVE",
"696 363 OFFCURVE",
"673 367 CURVE SMOOTH",
"654 371 OFFCURVE",
"641 379 OFFCURVE",
"635 392 CURVE",
"642 391 OFFCURVE",
"649 390 OFFCURVE",
"656 390 CURVE SMOOTH",
"682 390 OFFCURVE",
"713 403 OFFCURVE",
"749 429 CURVE SMOOTH",
"785 456 OFFCURVE",
"808 473 OFFCURVE",
"817 482 CURVE SMOOTH",
"839 503 OFFCURVE",
"850 524 OFFCURVE",
"849 545 CURVE",
"848 546 OFFCURVE",
"846 550 OFFCURVE",
"841 556 CURVE SMOOTH",
"838 560 OFFCURVE",
"836 564 OFFCURVE",
"836 567 CURVE SMOOTH",
"836 570 OFFCURVE",
"837 573 OFFCURVE",
"838 576 CURVE",
"820 594 OFFCURVE",
"789 603 OFFCURVE",
"746 603 CURVE SMOOTH",
"727 603 OFFCURVE",
"703 601 OFFCURVE",
"674 597 CURVE",
"671 616 OFFCURVE",
"683 650 OFFCURVE",
"683 661 CURVE SMOOTH",
"683 666 OFFCURVE",
"682 672 OFFCURVE",
"681 677 CURVE",
"674 687 OFFCURVE",
"671 692 OFFCURVE",
"671 693 CURVE SMOOTH",
"671 696 OFFCURVE",
"672 699 OFFCURVE",
"674 702 CURVE",
"660 710 OFFCURVE",
"648 723 OFFCURVE",
"639 740 CURVE",
"613 748 OFFCURVE",
"594 755 OFFCURVE",
"582 761 CURVE",
"579 742 OFFCURVE",
"578 722 OFFCURVE",
"578 700 CURVE SMOOTH",
"577 621 OFFCURVE",
"575 574 OFFCURVE",
"572 559 CURVE",
"559 554 OFFCURVE",
"542 544 OFFCURVE",
"521 527 CURVE SMOOTH",
"500 511 OFFCURVE",
"482 501 OFFCURVE",
"467 496 CURVE",
"457 525 OFFCURVE",
"432 540 OFFCURVE",
"391 540 CURVE SMOOTH",
"383 540 OFFCURVE",
"375 539 OFFCURVE",
"368 538 CURVE",
"355 475 OFFCURVE",
"331 396 OFFCURVE",
"298 300 CURVE SMOOTH",
"270 218 OFFCURVE",
"249 164 OFFCURVE",
"236 138 CURVE",
"220 189 OFFCURVE",
"211 245 OFFCURVE",
"210 305 CURVE",
"218 318 OFFCURVE",
"226 332 OFFCURVE",
"235 345 CURVE",
"244 362 OFFCURVE",
"250 377 OFFCURVE",
"252 392 CURVE SMOOTH",
"254 409 OFFCURVE",
"251 431 OFFCURVE",
"242 456 CURVE SMOOTH",
"231 486 OFFCURVE",
"226 506 OFFCURVE",
"225 517 CURVE",
"232 522 OFFCURVE",
"243 525 OFFCURVE",
"260 528 CURVE SMOOTH",
"280 531 OFFCURVE",
"294 535 OFFCURVE",
"302 538 CURVE",
"313 552 OFFCURVE",
"319 567 OFFCURVE",
"319 584 CURVE SMOOTH",
"319 629 OFFCURVE",
"286 670 OFFCURVE",
"221 708 CURVE",
"223 661 OFFCURVE",
"221 625 OFFCURVE",
"215 601 CURVE",
"202 567 OFFCURVE",
"192 541 OFFCURVE",
"183 524 CURVE",
"182 507 OFFCURVE",
"182 495 OFFCURVE",
"183 486 CURVE",
"176 445 OFFCURVE",
"170 415 OFFCURVE",
"165 395 CURVE",
"163 369 OFFCURVE",
"162 341 OFFCURVE",
"162 312 CURVE SMOOTH",
"162 227 OFFCURVE",
"171 137 OFFCURVE",
"189 40 CURVE",
"220 9 OFFCURVE",
"246 -7 OFFCURVE",
"269 -7 CURVE SMOOTH",
"278 -7 OFFCURVE",
"286 -5 OFFCURVE",
"294 -1 CURVE SMOOTH",
"305 5 OFFCURVE",
"312 14 OFFCURVE",
"312 26 CURVE SMOOTH",
"312 66 LINE SMOOTH",
"313 77 OFFCURVE",
"316 96 OFFCURVE",
"321 121 CURVE SMOOTH",
"326 146 OFFCURVE",
"329 166 OFFCURVE",
"330 180 CURVE SMOOTH",
"333 255 OFFCURVE",
"336 308 OFFCURVE",
"341 340 CURVE SMOOTH",
"348 391 OFFCURVE",
"359 424 OFFCURVE",
"372 440 CURVE",
"367 421 OFFCURVE",
"364 408 OFFCURVE",
"364 400 CURVE SMOOTH",
"364 355 OFFCURVE",
"385 327 OFFCURVE",
"428 315 CURVE",
"441 326 OFFCURVE",
"463 357 OFFCURVE",
"493 406 CURVE SMOOTH",
"518 446 OFFCURVE",
"543 471 OFFCURVE",
"572 482 CURVE",
"573 451 OFFCURVE",
"563 398 OFFCURVE",
"540 323 CURVE",
"544 319 OFFCURVE",
"551 308 OFFCURVE",
"561 289 CURVE SMOOTH",
"568 276 OFFCURVE",
"576 268 OFFCURVE",
"585 267 CURVE SMOOTH",
"595 266 OFFCURVE",
"608 272 OFFCURVE",
"624 286 CURVE SMOOTH",
"641 301 OFFCURVE",
"656 307 OFFCURVE",
"670 305 CURVE",
"677 298 OFFCURVE",
"680 286 OFFCURVE",
"680 271 CURVE SMOOTH",
"680 240 OFFCURVE",
"666 203 OFFCURVE",
"653 194 CURVE",
"606 219 OFFCURVE",
"551 232 OFFCURVE",
"488 232 CURVE SMOOTH",
"454 232 OFFCURVE",
"425 227 OFFCURVE",
"400 218 CURVE",
"391 207 OFFCURVE",
"388 199 OFFCURVE",
"391 194 CURVE",
"402 196 OFFCURVE",
"412 197 OFFCURVE",
"423 197 CURVE SMOOTH",
"452 197 OFFCURVE",
"483 189 OFFCURVE",
"516 174 CURVE SMOOTH",
"528 169 OFFCURVE",
"556 153 OFFCURVE",
"600 127 CURVE",
"583 109 OFFCURVE",
"561 94 OFFCURVE",
"535 81 CURVE SMOOTH",
"505 66 OFFCURVE",
"476 59 OFFCURVE",
"449 59 CURVE SMOOTH",
"432 59 OFFCURVE",
"415 62 OFFCURVE",
"400 69 CURVE",
"387 98 OFFCURVE",
"377 120 OFFCURVE",
"372 135 CURVE",
"367 135 OFFCURVE",
"364 123 OFFCURVE",
"357 124 CURVE",
"361 108 OFFCURVE",
"363 92 OFFCURVE",
"362 75 CURVE",
"367 62 OFFCURVE",
"385 56 OFFCURVE",
"400 51 CURVE",
"416 38 OFFCURVE",
"428 27 OFFCURVE",
"435 19 CURVE",
"460 4 OFFCURVE",
"488 -4 OFFCURVE",
"518 -3 CURVE SMOOTH",
"579 -2 OFFCURVE",
"634 26 OFFCURVE",
"684 79 CURVE",
"697 70 OFFCURVE",
"712 56 OFFCURVE",
"731 37 CURVE SMOOTH",
"750 18 OFFCURVE",
"765 5 OFFCURVE",
"776 -2 CURVE SMOOTH",
"795 -13 OFFCURVE",
"815 -20 OFFCURVE",
"838 -22 CURVE"
);
},
{
closed = 1;
nodes = (
"655 466 OFFCURVE",
"654 472 OFFCURVE",
"654 478 CURVE SMOOTH",
"654 496 OFFCURVE",
"660 516 OFFCURVE",
"671 537 CURVE",
"673 538 OFFCURVE",
"683 540 OFFCURVE",
"701 544 CURVE SMOOTH",
"716 548 OFFCURVE",
"727 550 OFFCURVE",
"735 550 CURVE SMOOTH",
"743 550 OFFCURVE",
"749 548 OFFCURVE",
"754 545 CURVE",
"750 522 OFFCURVE",
"738 503 OFFCURVE",
"719 489 CURVE SMOOTH",
"706 480 OFFCURVE",
"685 471 OFFCURVE",
"656 461 CURVE"
);
},
{
closed = 1;
nodes = (
"804 634 OFFCURVE",
"830 630 OFFCURVE",
"855 657 CURVE",
"844 721 OFFCURVE",
"782 763 OFFCURVE",
"717 745 CURVE",
"726 718 OFFCURVE",
"751 673 OFFCURVE",
"781 651 CURVE SMOOTH"
);
},
{
closed = 1;
nodes = (
"965 792 OFFCURVE",
"879 809 OFFCURVE",
"827 799 CURVE",
"844 779 OFFCURVE",
"865 741 OFFCURVE",
"890 717 CURVE SMOOTH",
"913 696 OFFCURVE",
"939 687 OFFCURVE",
"971 714 CURVE"
);
}
);
vertWidth = 1000;
width = 1000;
}
);
note = cid00889;
unicode = 3070;
},
{
glyphname = "pa-hira";
lastChange = "2020-12-04 08:10:26 +0000";
layers = (
{
hints = (
{
horizontal = 1;
place = "{5, 62}";
type = Stem;
},
{
horizontal = 1;
place = "{205, 35}";
type = Stem;
},
{
horizontal = 1;
place = "{558, 53}";
type = Stem;
},
{
horizontal = 1;
place = "{738, 60}";
type = Stem;
},
{
place = "{172, 48}";
type = Stem;
},
{
place = "{588, 105}";
type = Stem;
},
{
place = "{786, 67}";
type = Stem;
},
{
place = "{912, 58}";
type = Stem;
},
{
place = "{690, 78}";
type = Stem;
},
{
place = "{764, 95}";
type = Stem;
},
{
place = "{231, 98}";
type = Stem;
},
{
place = "{582, 82}";
type = Stem;
}
);
layerId = "38E14F89-90D8-48C8-A96B-0BF2B2C9AEC9";
paths = (
{
closed = 1;
nodes = (
"864 -5 OFFCURVE",
"874 0 OFFCURVE",
"877 0 CURVE",
"878 23 OFFCURVE",
"871 45 OFFCURVE",
"855 66 CURVE SMOOTH",
"845 79 OFFCURVE",
"827 95 OFFCURVE",
"800 116 CURVE SMOOTH",
"773 137 OFFCURVE",
"756 153 OFFCURVE",
"747 164 CURVE",
"761 196 OFFCURVE",
"768 228 OFFCURVE",
"768 259 CURVE SMOOTH",
"768 302 OFFCURVE",
"755 335 OFFCURVE",
"729 358 CURVE SMOOTH",
"722 365 OFFCURVE",
"706 371 OFFCURVE",
"683 375 CURVE SMOOTH",
"664 379 OFFCURVE",
"651 387 OFFCURVE",
"645 400 CURVE",
"652 399 OFFCURVE",
"659 398 OFFCURVE",
"666 398 CURVE SMOOTH",
"692 398 OFFCURVE",
"723 411 OFFCURVE",
"759 437 CURVE SMOOTH",
"795 464 OFFCURVE",
"818 481 OFFCURVE",
"827 490 CURVE SMOOTH",
"849 511 OFFCURVE",
"860 532 OFFCURVE",
"859 553 CURVE",
"858 554 OFFCURVE",
"856 558 OFFCURVE",
"851 564 CURVE SMOOTH",
"848 568 OFFCURVE",
"846 572 OFFCURVE",
"846 575 CURVE SMOOTH",
"846 578 OFFCURVE",
"847 581 OFFCURVE",
"848 584 CURVE",
"830 602 OFFCURVE",
"799 611 OFFCURVE",
"756 611 CURVE SMOOTH",
"737 611 OFFCURVE",
"713 609 OFFCURVE",
"684 605 CURVE",
"681 624 OFFCURVE",
"693 658 OFFCURVE",
"693 669 CURVE SMOOTH",
"693 674 OFFCURVE",
"692 680 OFFCURVE",
"691 685 CURVE",
"684 695 OFFCURVE",
"681 700 OFFCURVE",
"681 701 CURVE SMOOTH",
"681 704 OFFCURVE",
"682 707 OFFCURVE",
"684 710 CURVE",
"670 718 OFFCURVE",
"658 731 OFFCURVE",
"649 748 CURVE",
"623 756 OFFCURVE",
"604 763 OFFCURVE",
"592 769 CURVE",
"589 750 OFFCURVE",
"588 730 OFFCURVE",
"588 708 CURVE SMOOTH",
"587 629 OFFCURVE",
"585 582 OFFCURVE",
"582 567 CURVE",
"569 562 OFFCURVE",
"552 552 OFFCURVE",
"531 535 CURVE SMOOTH",
"510 519 OFFCURVE",
"492 509 OFFCURVE",
"477 504 CURVE",
"467 533 OFFCURVE",
"442 548 OFFCURVE",
"401 548 CURVE SMOOTH",
"393 548 OFFCURVE",
"385 547 OFFCURVE",
"378 546 CURVE",
"365 483 OFFCURVE",
"341 404 OFFCURVE",
"308 308 CURVE SMOOTH",
"280 226 OFFCURVE",
"259 172 OFFCURVE",
"246 146 CURVE",
"230 197 OFFCURVE",
"221 253 OFFCURVE",
"220 313 CURVE",
"228 326 OFFCURVE",
"236 340 OFFCURVE",
"245 353 CURVE",
"254 370 OFFCURVE",
"260 385 OFFCURVE",
"262 400 CURVE SMOOTH",
"264 417 OFFCURVE",
"261 439 OFFCURVE",
"252 464 CURVE SMOOTH",
"241 494 OFFCURVE",
"236 514 OFFCURVE",
"235 525 CURVE",
"242 530 OFFCURVE",
"253 533 OFFCURVE",
"270 536 CURVE SMOOTH",
"290 539 OFFCURVE",
"304 543 OFFCURVE",
"312 546 CURVE",
"323 560 OFFCURVE",
"329 575 OFFCURVE",
"329 592 CURVE SMOOTH",
"329 637 OFFCURVE",
"296 678 OFFCURVE",
"231 716 CURVE",
"233 669 OFFCURVE",
"231 633 OFFCURVE",
"225 609 CURVE",
"212 575 OFFCURVE",
"202 549 OFFCURVE",
"193 532 CURVE",
"192 515 OFFCURVE",
"192 503 OFFCURVE",
"193 494 CURVE",
"186 453 OFFCURVE",
"180 423 OFFCURVE",
"175 403 CURVE",
"173 377 OFFCURVE",
"172 349 OFFCURVE",
"172 320 CURVE SMOOTH",
"172 235 OFFCURVE",
"181 145 OFFCURVE",
"199 48 CURVE",
"230 17 OFFCURVE",
"256 1 OFFCURVE",
"279 1 CURVE SMOOTH",
"288 1 OFFCURVE",
"296 3 OFFCURVE",
"304 7 CURVE SMOOTH",
"315 13 OFFCURVE",
"322 22 OFFCURVE",
"322 34 CURVE SMOOTH",
"322 74 LINE SMOOTH",
"323 85 OFFCURVE",
"326 104 OFFCURVE",
"331 129 CURVE SMOOTH",
"336 154 OFFCURVE",
"339 174 OFFCURVE",
"340 188 CURVE SMOOTH",
"343 263 OFFCURVE",
"346 316 OFFCURVE",
"351 348 CURVE SMOOTH",
"358 399 OFFCURVE",
"369 432 OFFCURVE",
"382 448 CURVE",
"377 429 OFFCURVE",
"374 416 OFFCURVE",
"374 408 CURVE SMOOTH",
"374 363 OFFCURVE",
"395 335 OFFCURVE",
"438 323 CURVE",
"451 334 OFFCURVE",
"473 365 OFFCURVE",
"503 414 CURVE SMOOTH",
"528 454 OFFCURVE",
"553 479 OFFCURVE",
"582 490 CURVE",
"583 459 OFFCURVE",
"573 406 OFFCURVE",
"550 331 CURVE",
"554 327 OFFCURVE",
"561 316 OFFCURVE",
"571 297 CURVE SMOOTH",
"578 284 OFFCURVE",
"586 276 OFFCURVE",
"595 275 CURVE SMOOTH",
"605 274 OFFCURVE",
"618 280 OFFCURVE",
"634 294 CURVE SMOOTH",
"651 309 OFFCURVE",
"666 315 OFFCURVE",
"680 313 CURVE",
"687 306 OFFCURVE",
"690 294 OFFCURVE",
"690 279 CURVE SMOOTH",
"690 248 OFFCURVE",
"676 211 OFFCURVE",
"663 202 CURVE",
"616 227 OFFCURVE",
"561 240 OFFCURVE",
"498 240 CURVE SMOOTH",
"464 240 OFFCURVE",
"435 235 OFFCURVE",
"410 226 CURVE",
"401 215 OFFCURVE",
"398 207 OFFCURVE",
"401 202 CURVE",
"412 204 OFFCURVE",
"422 205 OFFCURVE",
"433 205 CURVE SMOOTH",
"462 205 OFFCURVE",
"493 197 OFFCURVE",
"526 182 CURVE SMOOTH",
"538 177 OFFCURVE",
"566 161 OFFCURVE",
"610 135 CURVE",
"593 117 OFFCURVE",
"571 102 OFFCURVE",
"545 89 CURVE SMOOTH",
"515 74 OFFCURVE",
"486 67 OFFCURVE",
"459 67 CURVE SMOOTH",
"442 67 OFFCURVE",
"425 70 OFFCURVE",
"410 77 CURVE",
"397 106 OFFCURVE",
"387 128 OFFCURVE",
"382 143 CURVE",
"377 143 OFFCURVE",
"374 131 OFFCURVE",
"367 132 CURVE",
"371 116 OFFCURVE",
"373 100 OFFCURVE",
"372 83 CURVE",
"377 70 OFFCURVE",
"395 64 OFFCURVE",
"410 59 CURVE",
"426 46 OFFCURVE",
"438 35 OFFCURVE",
"445 27 CURVE",
"470 12 OFFCURVE",
"498 4 OFFCURVE",
"528 5 CURVE SMOOTH",
"589 6 OFFCURVE",
"644 34 OFFCURVE",
"694 87 CURVE",
"707 78 OFFCURVE",
"722 64 OFFCURVE",
"741 45 CURVE SMOOTH",
"760 26 OFFCURVE",
"775 13 OFFCURVE",
"786 6 CURVE SMOOTH",
"805 -5 OFFCURVE",
"825 -12 OFFCURVE",
"848 -14 CURVE"
);
},
{
closed = 1;
nodes = (
"665 474 OFFCURVE",
"664 480 OFFCURVE",
"664 486 CURVE SMOOTH",
"664 504 OFFCURVE",
"670 524 OFFCURVE",
"681 545 CURVE",
"683 546 OFFCURVE",
"693 548 OFFCURVE",
"711 552 CURVE SMOOTH",
"726 556 OFFCURVE",
"737 558 OFFCURVE",
"745 558 CURVE SMOOTH",
"753 558 OFFCURVE",
"759 556 OFFCURVE",
"764 553 CURVE",
"760 530 OFFCURVE",
"748 511 OFFCURVE",
"729 497 CURVE SMOOTH",
"716 488 OFFCURVE",
"695 479 OFFCURVE",
"666 469 CURVE"
);
},
{
closed = 1;
nodes = (
"899 632 OFFCURVE",
"927 648 OFFCURVE",
"947 640 CURVE",
"953 660 OFFCURVE",
"963 660 OFFCURVE",
"967 675 CURVE SMOOTH",
"984 753 OFFCURVE",
"929 797 OFFCURVE",
"876 798 CURVE SMOOTH",
"836 798 OFFCURVE",
"796 775 OFFCURVE",
"786 723 CURVE",
"783 666 OFFCURVE",
"829 633 OFFCURVE",
"888 617 CURVE"
);
},
{
closed = 1;
nodes = (
"887 674 OFFCURVE",
"866 674 OFFCURVE",
"853 691 CURVE",
"848 714 OFFCURVE",
"855 729 OFFCURVE",
"866 735 CURVE SMOOTH",
"877 741 OFFCURVE",
"894 740 OFFCURVE",
"907 730 CURVE",
"917 709 OFFCURVE",
"911 692 OFFCURVE",
"900 684 CURVE SMOOTH"
);
}
);
vertWidth = 1000;
width = 1000;
}
);
note = cid00890;
unicode = 3071;
},
{
glyphname = "hi-hira";
lastChange = "2020-12-04 08:10:26 +0000";
layers = (
{
hints = (
{
horizontal = 1;
place = "{12, 703}";
type = Stem;
},
{
place = "{200, 70}";
type = Stem;
},
{
place = "{569, 76}";
type = Stem;
},
{
horizontal = 1;
place = "{520, 73}";
type = Stem;
}
);
layerId = "38E14F89-90D8-48C8-A96B-0BF2B2C9AEC9";
paths = (
{
closed = 1;
nodes = (
"298 21 OFFCURVE",
"310 33 OFFCURVE",
"328 49 CURVE SMOOTH",
"344 63 OFFCURVE",
"354 76 OFFCURVE",
"359 89 CURVE",
"368 86 OFFCURVE",
"372 95 OFFCURVE",
"376 96 CURVE",
"382 108 OFFCURVE",
"396 127 OFFCURVE",
"417 153 CURVE SMOOTH",
"437 176 OFFCURVE",
"449 195 OFFCURVE",
"453 208 CURVE",
"470 219 OFFCURVE",
"488 234 OFFCURVE",
"507 254 CURVE SMOOTH",
"526 274 OFFCURVE",
"537 291 OFFCURVE",
"540 304 CURVE",
"552 304 OFFCURVE",
"559 325 OFFCURVE",
"570 325 CURVE",
"569 316 OFFCURVE",
"569 307 OFFCURVE",
"569 298 CURVE SMOOTH",
"569 253 OFFCURVE",
"580 215 OFFCURVE",
"601 182 CURVE SMOOTH",
"624 147 OFFCURVE",
"657 124 OFFCURVE",
"699 114 CURVE",
"697 112 OFFCURVE",
"681 98 OFFCURVE",
"650 73 CURVE SMOOTH",
"627 55 OFFCURVE",
"615 40 OFFCURVE",
"612 27 CURVE",
"623 38 OFFCURVE",
"632 44 OFFCURVE",
"638 44 CURVE SMOOTH",
"641 44 OFFCURVE",
"643 43 OFFCURVE",
"644 41 CURVE",
"638 38 OFFCURVE",
"635 36 OFFCURVE",
"635 33 CURVE SMOOTH",
"635 31 OFFCURVE",
"637 29 OFFCURVE",
"640 27 CURVE",
"643 27 OFFCURVE",
"640 33 OFFCURVE",
"647 34 CURVE SMOOTH",
"650 35 OFFCURVE",
"668 37 OFFCURVE",
"701 40 CURVE SMOOTH",
"726 42 OFFCURVE",
"747 47 OFFCURVE",
"765 54 CURVE SMOOTH",
"780 60 OFFCURVE",
"796 69 OFFCURVE",
"813 80 CURVE SMOOTH",
"853 108 OFFCURVE",
"856 126 OFFCURVE",
"856 143 CURVE SMOOTH",
"856 164 OFFCURVE",
"842 177 OFFCURVE",
"814 184 CURVE SMOOTH",
"799 187 OFFCURVE",
"770 189 OFFCURVE",
"729 190 CURVE SMOOTH",
"693 190 OFFCURVE",
"670 192 OFFCURVE",
"661 197 CURVE",
"650 220 OFFCURVE",
"645 250 OFFCURVE",
"645 289 CURVE SMOOTH",
"645 307 OFFCURVE",
"646 331 OFFCURVE",
"649 360 CURVE SMOOTH",
"652 393 OFFCURVE",
"654 414 OFFCURVE",
"654 423 CURVE",
"661 428 OFFCURVE",
"688 446 OFFCURVE",
"733 475 CURVE SMOOTH",
"768 498 OFFCURVE",
"793 518 OFFCURVE",
"810 537 CURVE SMOOTH",
"813 541 OFFCURVE",
"810 550 OFFCURVE",
"814 554 CURVE",
"811 569 OFFCURVE",
"789 584 OFFCURVE",
"786 596 CURVE",
"761 601 OFFCURVE",
"734 621 OFFCURVE",
"707 655 CURVE SMOOTH",
"680 690 OFFCURVE",
"655 710 OFFCURVE",
"630 715 CURVE",
"612 686 OFFCURVE",
"597 639 OFFCURVE",
"587 573 CURVE SMOOTH",
"580 528 OFFCURVE",
"575 484 OFFCURVE",
"570 440 CURVE",
"561 437 OFFCURVE",
"551 429 OFFCURVE",
"542 418 CURVE SMOOTH",
"530 403 OFFCURVE",
"522 394 OFFCURVE",
"519 391 CURVE",
"520 390 OFFCURVE",
"520 390 OFFCURVE",
"521 390 CURVE SMOOTH",
"524 390 OFFCURVE",
"527 394 OFFCURVE",
"528 394 CURVE",
"529 393 OFFCURVE",
"529 391 OFFCURVE",
"529 388 CURVE",
"500 377 OFFCURVE",
"485 360 OFFCURVE",
"484 339 CURVE",
"455 318 OFFCURVE",
"420 282 OFFCURVE",
"379 231 CURVE SMOOTH",
"326 164 OFFCURVE",
"291 123 OFFCURVE",
"275 107 CURVE",
"272 155 OFFCURVE",
"270 199 OFFCURVE",
"270 238 CURVE SMOOTH",
"270 331 OFFCURVE",
"281 427 OFFCURVE",
"304 527 CURVE",
"324 522 OFFCURVE",
"344 520 OFFCURVE",
"364 520 CURVE SMOOTH",
"414 520 OFFCURVE",
"462 535 OFFCURVE",
"508 565 CURVE",
"499 598 OFFCURVE",
"475 616 OFFCURVE",
"434 623 CURVE SMOOTH",
"341 638 LINE",
"342 625 OFFCURVE",
"357 616 OFFCURVE",
"366 607 CURVE",
"338 597 OFFCURVE",
"317 592 OFFCURVE",
"304 593 CURVE",
"303 637 OFFCURVE",
"290 664 OFFCURVE",
"265 673 CURVE",
"254 668 OFFCURVE",
"248 661 OFFCURVE",
"245 652 CURVE",
"237 614 LINE SMOOTH",
"223 549 OFFCURVE",
"206 437 OFFCURVE",
"195 274 CURVE",
"200 260 OFFCURVE",
"202 242 OFFCURVE",
"202 220 CURVE SMOOTH",
"202 207 OFFCURVE",
"200 171 OFFCURVE",
"200 156 CURVE SMOOTH",
"200 128 OFFCURVE",
"203 105 OFFCURVE",
"209 86 CURVE SMOOTH",
"214 70 OFFCURVE",
"227 53 OFFCURVE",
"248 34 CURVE SMOOTH",
"269 16 OFFCURVE",
"284 9 OFFCURVE",
"293 13 CURVE"
);
},
{
closed = 1;
nodes = (
"660 519 OFFCURVE",
"659 526 OFFCURVE",
"659 535 CURVE SMOOTH",
"659 550 OFFCURVE",
"663 581 OFFCURVE",
"671 628 CURVE",
"690 599 OFFCURVE",
"703 577 OFFCURVE",
"710 561 CURVE",
"705 545 OFFCURVE",
"689 529 OFFCURVE",
"661 512 CURVE"
);
}
);
vertWidth = 1000;
width = 1000;
}
);
note = cid00891;
unicode = 3072;
},
{
glyphname = "bi-hira";
lastChange = "2020-12-04 08:10:26 +0000";
layers = (
{
hints = (
{
horizontal = 1;
place = "{504, 73}";
type = Stem;
},
{
horizontal = 1;
place = "{629, 112}";
type = Stem;
},
{
place = "{186, 70}";
type = Stem;
},
{
place = "{555, 76}";
type = Stem;
}
);
layerId = "38E14F89-90D8-48C8-A96B-0BF2B2C9AEC9";
paths = (
{
closed = 1;
nodes = (
"284 5 OFFCURVE",
"296 17 OFFCURVE",
"314 33 CURVE SMOOTH",
"330 47 OFFCURVE",
"340 60 OFFCURVE",
"345 73 CURVE",
"354 70 OFFCURVE",
"358 79 OFFCURVE",
"362 80 CURVE",
"368 92 OFFCURVE",
"382 111 OFFCURVE",
"403 137 CURVE SMOOTH",
"423 160 OFFCURVE",
"435 179 OFFCURVE",
"439 192 CURVE",
"456 203 OFFCURVE",
"474 218 OFFCURVE",
"493 238 CURVE SMOOTH",
"512 258 OFFCURVE",
"523 275 OFFCURVE",
"526 288 CURVE",
"538 288 OFFCURVE",
"545 309 OFFCURVE",
"556 309 CURVE",
"555 300 OFFCURVE",
"555 291 OFFCURVE",
"555 282 CURVE SMOOTH",
"555 237 OFFCURVE",
"566 199 OFFCURVE",
"587 166 CURVE SMOOTH",
"610 131 OFFCURVE",
"643 108 OFFCURVE",
"685 98 CURVE",
"683 96 OFFCURVE",
"667 82 OFFCURVE",
"636 57 CURVE SMOOTH",
"613 39 OFFCURVE",
"601 24 OFFCURVE",
"598 11 CURVE",
"609 22 OFFCURVE",
"618 28 OFFCURVE",
"624 28 CURVE SMOOTH",
"627 28 OFFCURVE",
"629 27 OFFCURVE",
"630 25 CURVE",
"624 22 OFFCURVE",
"621 20 OFFCURVE",
"621 17 CURVE SMOOTH",
"621 15 OFFCURVE",
"623 13 OFFCURVE",
"626 11 CURVE",
"629 11 OFFCURVE",
"626 17 OFFCURVE",
"633 18 CURVE SMOOTH",
"636 19 OFFCURVE",
"654 21 OFFCURVE",
"687 24 CURVE SMOOTH",
"712 26 OFFCURVE",
"733 31 OFFCURVE",
"751 38 CURVE SMOOTH",
"766 44 OFFCURVE",
"782 53 OFFCURVE",
"799 64 CURVE SMOOTH",
"839 92 OFFCURVE",
"842 110 OFFCURVE",
"842 127 CURVE SMOOTH",
"842 148 OFFCURVE",
"828 161 OFFCURVE",
"800 168 CURVE SMOOTH",
"785 171 OFFCURVE",
"756 173 OFFCURVE",
"715 174 CURVE SMOOTH",
"679 174 OFFCURVE",
"656 176 OFFCURVE",
"647 181 CURVE",
"636 204 OFFCURVE",
"631 234 OFFCURVE",
"631 273 CURVE SMOOTH",
"631 291 OFFCURVE",
"632 315 OFFCURVE",
"635 344 CURVE SMOOTH",
"638 377 OFFCURVE",
"640 398 OFFCURVE",
"640 407 CURVE",
"647 412 OFFCURVE",
"674 430 OFFCURVE",
"719 459 CURVE SMOOTH",
"754 482 OFFCURVE",
"779 502 OFFCURVE",
"796 521 CURVE SMOOTH",
"799 525 OFFCURVE",
"796 534 OFFCURVE",
"800 538 CURVE",
"797 553 OFFCURVE",
"775 568 OFFCURVE",
"772 580 CURVE",
"747 585 OFFCURVE",
"720 605 OFFCURVE",
"693 639 CURVE SMOOTH",
"666 674 OFFCURVE",
"641 694 OFFCURVE",
"616 699 CURVE",
"598 670 OFFCURVE",
"583 623 OFFCURVE",
"573 557 CURVE SMOOTH",
"566 512 OFFCURVE",
"561 468 OFFCURVE",
"556 424 CURVE",
"547 421 OFFCURVE",
"537 413 OFFCURVE",
"528 402 CURVE SMOOTH",
"516 387 OFFCURVE",
"508 378 OFFCURVE",
"505 375 CURVE",
"506 374 OFFCURVE",
"506 374 OFFCURVE",
"507 374 CURVE SMOOTH",
"510 374 OFFCURVE",
"513 378 OFFCURVE",
"514 378 CURVE",
"515 377 OFFCURVE",
"515 375 OFFCURVE",
"515 372 CURVE",
"486 361 OFFCURVE",
"471 344 OFFCURVE",
"470 323 CURVE",
"441 302 OFFCURVE",
"406 266 OFFCURVE",
"365 215 CURVE SMOOTH",
"312 148 OFFCURVE",
"277 107 OFFCURVE",
"261 91 CURVE",
"258 139 OFFCURVE",
"256 183 OFFCURVE",
"256 222 CURVE SMOOTH",
"256 315 OFFCURVE",
"267 411 OFFCURVE",
"290 511 CURVE",
"310 506 OFFCURVE",
"330 504 OFFCURVE",
"350 504 CURVE SMOOTH",
"400 504 OFFCURVE",
"448 519 OFFCURVE",
"494 549 CURVE",
"485 582 OFFCURVE",
"461 600 OFFCURVE",
"420 607 CURVE SMOOTH",
"327 622 LINE",
"328 609 OFFCURVE",
"343 600 OFFCURVE",
"352 591 CURVE",
"324 581 OFFCURVE",
"303 576 OFFCURVE",
"290 577 CURVE",
"289 621 OFFCURVE",
"276 648 OFFCURVE",
"251 657 CURVE",
"240 652 OFFCURVE",
"234 645 OFFCURVE",
"231 636 CURVE",
"223 598 LINE SMOOTH",
"209 533 OFFCURVE",
"192 421 OFFCURVE",
"181 258 CURVE",
"186 244 OFFCURVE",
"188 226 OFFCURVE",
"188 204 CURVE SMOOTH",
"188 191 OFFCURVE",
"186 155 OFFCURVE",
"186 140 CURVE SMOOTH",
"186 112 OFFCURVE",
"189 89 OFFCURVE",
"195 70 CURVE SMOOTH",
"200 54 OFFCURVE",
"213 37 OFFCURVE",
"234 18 CURVE SMOOTH",
"255 0 OFFCURVE",
"270 -7 OFFCURVE",
"279 -3 CURVE"
);
},
{
closed = 1;
nodes = (
"646 503 OFFCURVE",
"645 510 OFFCURVE",
"645 519 CURVE SMOOTH",
"645 534 OFFCURVE",
"649 565 OFFCURVE",
"657 612 CURVE",
"676 583 OFFCURVE",
"689 561 OFFCURVE",
"696 545 CURVE",
"691 529 OFFCURVE",
"675 513 OFFCURVE",
"647 496 CURVE"
);
},
{
closed = 1;
nodes = (
"808 626 OFFCURVE",
"834 622 OFFCURVE",
"859 649 CURVE",
"848 713 OFFCURVE",
"786 755 OFFCURVE",
"721 737 CURVE",
"730 710 OFFCURVE",
"755 665 OFFCURVE",
"785 643 CURVE SMOOTH"
);
},
{
closed = 1;
nodes = (
"969 784 OFFCURVE",
"883 801 OFFCURVE",
"831 791 CURVE",
"848 771 OFFCURVE",
"869 733 OFFCURVE",
"894 709 CURVE SMOOTH",
"917 688 OFFCURVE",
"943 679 OFFCURVE",
"975 706 CURVE"
);
}
);
vertWidth = 1000;
width = 1000;
}
);
note = cid00892;
unicode = 3073;
},
{
glyphname = "pi-hira";
lastChange = "2020-12-04 08:10:26 +0000";
layers = (
{
hints = (
{
horizontal = 1;
place = "{508, 73}";
type = Stem;
},
{
horizontal = 1;
place = "{724, 60}";
type = Stem;
},
{
place = "{192, 70}";
type = Stem;
},
{
place = "{561, 76}";
type = Stem;
},
{
place = "{752, 67}";
type = Stem;
},
{
place = "{878, 58}";
type = Stem;
}
);
layerId = "38E14F89-90D8-48C8-A96B-0BF2B2C9AEC9";
paths = (
{
closed = 1;
nodes = (
"290 9 OFFCURVE",
"302 21 OFFCURVE",
"320 37 CURVE SMOOTH",
"336 51 OFFCURVE",
"346 64 OFFCURVE",
"351 77 CURVE",
"360 74 OFFCURVE",
"364 83 OFFCURVE",
"368 84 CURVE",
"374 96 OFFCURVE",
"388 115 OFFCURVE",
"409 141 CURVE SMOOTH",
"429 164 OFFCURVE",
"441 183 OFFCURVE",
"445 196 CURVE",
"462 207 OFFCURVE",
"480 222 OFFCURVE",
"499 242 CURVE SMOOTH",
"518 262 OFFCURVE",
"529 279 OFFCURVE",
"532 292 CURVE",
"544 292 OFFCURVE",
"551 313 OFFCURVE",
"562 313 CURVE",
"561 304 OFFCURVE",
"561 295 OFFCURVE",
"561 286 CURVE SMOOTH",
"561 241 OFFCURVE",
"572 203 OFFCURVE",
"593 170 CURVE SMOOTH",
"616 135 OFFCURVE",
"649 112 OFFCURVE",
"691 102 CURVE",
"689 100 OFFCURVE",
"673 86 OFFCURVE",
"642 61 CURVE SMOOTH",
"619 43 OFFCURVE",
"607 28 OFFCURVE",
"604 15 CURVE",
"615 26 OFFCURVE",
"624 32 OFFCURVE",
"630 32 CURVE SMOOTH",
"633 32 OFFCURVE",
"635 31 OFFCURVE",
"636 29 CURVE",
"630 26 OFFCURVE",
"627 24 OFFCURVE",
"627 21 CURVE SMOOTH",
"627 19 OFFCURVE",
"629 17 OFFCURVE",
"632 15 CURVE",
"635 15 OFFCURVE",
"632 21 OFFCURVE",
"639 22 CURVE SMOOTH",
"642 23 OFFCURVE",
"660 25 OFFCURVE",
"693 28 CURVE SMOOTH",
"718 30 OFFCURVE",
"739 35 OFFCURVE",
"757 42 CURVE SMOOTH",
"772 48 OFFCURVE",
"788 57 OFFCURVE",
"805 68 CURVE SMOOTH",
"845 96 OFFCURVE",
"848 114 OFFCURVE",
"848 131 CURVE SMOOTH",
"848 152 OFFCURVE",
"834 165 OFFCURVE",
"806 172 CURVE SMOOTH",
"791 175 OFFCURVE",
"762 177 OFFCURVE",
"721 178 CURVE SMOOTH",
"685 178 OFFCURVE",
"662 180 OFFCURVE",
"653 185 CURVE",
"642 208 OFFCURVE",
"637 238 OFFCURVE",
"637 277 CURVE SMOOTH",
"637 295 OFFCURVE",
"638 319 OFFCURVE",
"641 348 CURVE SMOOTH",
"644 381 OFFCURVE",
"646 402 OFFCURVE",
"646 411 CURVE",
"653 416 OFFCURVE",
"680 434 OFFCURVE",
"725 463 CURVE SMOOTH",
"760 486 OFFCURVE",
"785 506 OFFCURVE",
"802 525 CURVE SMOOTH",
"805 529 OFFCURVE",
"802 538 OFFCURVE",
"806 542 CURVE",
"803 557 OFFCURVE",
"781 572 OFFCURVE",
"778 584 CURVE",
"753 589 OFFCURVE",
"726 609 OFFCURVE",
"699 643 CURVE SMOOTH",
"672 678 OFFCURVE",
"647 698 OFFCURVE",
"622 703 CURVE",
"604 674 OFFCURVE",
"589 627 OFFCURVE",
"579 561 CURVE SMOOTH",
"572 516 OFFCURVE",
"567 472 OFFCURVE",
"562 428 CURVE",
"553 425 OFFCURVE",
"543 417 OFFCURVE",
"534 406 CURVE SMOOTH",
"522 391 OFFCURVE",
"514 382 OFFCURVE",
"511 379 CURVE",
"512 378 OFFCURVE",
"512 378 OFFCURVE",
"513 378 CURVE SMOOTH",
"516 378 OFFCURVE",
"519 382 OFFCURVE",
"520 382 CURVE",
"521 381 OFFCURVE",
"521 379 OFFCURVE",
"521 376 CURVE",
"492 365 OFFCURVE",
"477 348 OFFCURVE",
"476 327 CURVE",
"447 306 OFFCURVE",
"412 270 OFFCURVE",
"371 219 CURVE SMOOTH",
"318 152 OFFCURVE",
"283 111 OFFCURVE",
"267 95 CURVE",
"264 143 OFFCURVE",
"262 187 OFFCURVE",
"262 226 CURVE SMOOTH",
"262 319 OFFCURVE",
"273 415 OFFCURVE",
"296 515 CURVE",
"316 510 OFFCURVE",
"336 508 OFFCURVE",
"356 508 CURVE SMOOTH",
"406 508 OFFCURVE",
"454 523 OFFCURVE",
"500 553 CURVE",
"491 586 OFFCURVE",
"467 604 OFFCURVE",
"426 611 CURVE SMOOTH",
"333 626 LINE",
"334 613 OFFCURVE",
"349 604 OFFCURVE",
"358 595 CURVE",
"330 585 OFFCURVE",
"309 580 OFFCURVE",
"296 581 CURVE",
"295 625 OFFCURVE",
"282 652 OFFCURVE",
"257 661 CURVE",
"246 656 OFFCURVE",
"240 649 OFFCURVE",
"237 640 CURVE",
"229 602 LINE SMOOTH",
"215 537 OFFCURVE",
"198 425 OFFCURVE",
"187 262 CURVE",
"192 248 OFFCURVE",
"194 230 OFFCURVE",
"194 208 CURVE SMOOTH",
"194 195 OFFCURVE",
"192 159 OFFCURVE",
"192 144 CURVE SMOOTH",
"192 116 OFFCURVE",
"195 93 OFFCURVE",
"201 74 CURVE SMOOTH",
"206 58 OFFCURVE",
"219 41 OFFCURVE",
"240 22 CURVE SMOOTH",
"261 4 OFFCURVE",
"276 -3 OFFCURVE",
"285 1 CURVE"
);
},
{
closed = 1;
nodes = (
"652 507 OFFCURVE",
"651 514 OFFCURVE",
"651 523 CURVE SMOOTH",
"651 538 OFFCURVE",
"655 569 OFFCURVE",
"663 616 CURVE",
"682 587 OFFCURVE",
"695 565 OFFCURVE",
"702 549 CURVE",
"697 533 OFFCURVE",
"681 517 OFFCURVE",
"653 500 CURVE"
);
},
{
closed = 1;
nodes = (
"865 618 OFFCURVE",
"893 634 OFFCURVE",
"913 626 CURVE",
"919 646 OFFCURVE",
"929 646 OFFCURVE",
"933 661 CURVE SMOOTH",
"950 739 OFFCURVE",
"895 783 OFFCURVE",
"842 784 CURVE SMOOTH",
"802 784 OFFCURVE",
"762 761 OFFCURVE",
"752 709 CURVE",
"749 652 OFFCURVE",
"795 619 OFFCURVE",
"854 603 CURVE"
);
},
{
closed = 1;
nodes = (
"853 660 OFFCURVE",
"832 660 OFFCURVE",
"819 677 CURVE",
"814 700 OFFCURVE",
"821 715 OFFCURVE",
"832 721 CURVE SMOOTH",
"843 727 OFFCURVE",
"860 726 OFFCURVE",
"873 716 CURVE",
"883 695 OFFCURVE",
"877 678 OFFCURVE",
"866 670 CURVE SMOOTH"
);
}
);
vertWidth = 1000;
width = 1000;
}
);
note = cid00893;
unicode = 3074;
},
{
glyphname = "hu-hira";
lastChange = "2020-12-04 08:10:26 +0000";
layers = (
{
hints = (
{
horizontal = 1;
place = "{-13, 11}";
type = Stem;
},
{
horizontal = 1;
place = "{196, 33}";
type = Stem;
},
{
horizontal = 1;
place = "{632, 74}";
type = Stem;
},
{
place = "{168, 42}";
type = Stem;
},
{
place = "{469, 11}";
type = Stem;
},
{
place = "{874, 13}";
type = Stem;
},
{
place = "{376, 82}";
type = Stem;
}
);
layerId = "38E14F89-90D8-48C8-A96B-0BF2B2C9AEC9";
paths = (
{
closed = 1;
nodes = (
"474 -8 OFFCURVE",
"465 -2 OFFCURVE",
"465 -2 CURVE",
"465 -1 OFFCURVE",
"466 -1 OFFCURVE",
"468 0 CURVE",
"470 -3 LINE",
"474 0 LINE SMOOTH",
"476 1 OFFCURVE",
"477 -1 OFFCURVE",
"477 -4 CURVE",
"475 -5 OFFCURVE",
"474 -6 OFFCURVE",
"474 -7 CURVE SMOOTH",
"474 -10 OFFCURVE",
"475 -11 OFFCURVE",
"477 -10 CURVE",
"479 1 OFFCURVE",
"480 12 OFFCURVE",
"480 25 CURVE SMOOTH",
"480 38 OFFCURVE",
"478 56 OFFCURVE",
"476 78 CURVE SMOOTH",
"471 130 LINE SMOOTH",
"467 173 OFFCURVE",
"476 206 OFFCURVE",
"494 229 CURVE",
"481 226 OFFCURVE",
"467 204 OFFCURVE",
"458 200 CURVE",
"459 275 OFFCURVE",
"463 335 OFFCURVE",
"468 380 CURVE",
"481 387 OFFCURVE",
"491 392 OFFCURVE",
"497 396 CURVE",
"497 408 OFFCURVE",
"506 417 OFFCURVE",
"523 422 CURVE",
"524 435 OFFCURVE",
"529 447 OFFCURVE",
"538 460 CURVE SMOOTH",
"545 470 OFFCURVE",
"553 480 OFFCURVE",
"561 490 CURVE SMOOTH",
"564 495 OFFCURVE",
"576 517 OFFCURVE",
"597 558 CURVE SMOOTH",
"612 587 OFFCURVE",
"627 610 OFFCURVE",
"642 625 CURVE",
"646 637 OFFCURVE",
"645 653 OFFCURVE",
"639 674 CURVE",
"611 691 OFFCURVE",
"590 703 OFFCURVE",
"577 712 CURVE",
"568 705 OFFCURVE",
"557 704 OFFCURVE",
"545 709 CURVE",
"417 694 OFFCURVE",
"306 671 OFFCURVE",
"213 638 CURVE",
"244 602 OFFCURVE",
"285 585 OFFCURVE",
"335 586 CURVE SMOOTH",
"360 587 OFFCURVE",
"389 592 OFFCURVE",
"424 603 CURVE SMOOTH",
"453 612 OFFCURVE",
"481 622 OFFCURVE",
"510 632 CURVE",
"521 632 LINE",
"526 633 OFFCURVE",
"529 632 OFFCURVE",
"529 629 CURVE",
"397 431 LINE SMOOTH",
"346 355 OFFCURVE",
"293 296 OFFCURVE",
"242 251 CURVE",
"247 260 OFFCURVE",
"247 264 OFFCURVE",
"242 264 CURVE",
"238 255 OFFCURVE",
"223 244 OFFCURVE",
"198 230 CURVE SMOOTH",
"177 219 OFFCURVE",
"167 204 OFFCURVE",
"168 187 CURVE SMOOTH",
"169 174 OFFCURVE",
"174 165 OFFCURVE",
"184 158 CURVE",
"196 158 OFFCURVE",
"198 144 OFFCURVE",
"210 141 CURVE",
"210 146 LINE",
"211 149 OFFCURVE",
"214 149 OFFCURVE",
"219 148 CURVE",
"219 145 OFFCURVE",
"215 142 OFFCURVE",
"216 138 CURVE",
"220 137 OFFCURVE",
"224 137 OFFCURVE",
"227 137 CURVE SMOOTH",
"244 137 OFFCURVE",
"259 144 OFFCURVE",
"273 157 CURVE SMOOTH",
"285 168 OFFCURVE",
"293 180 OFFCURVE",
"297 193 CURVE",
"304 192 OFFCURVE",
"305 199 OFFCURVE",
"313 196 CURVE",
"320 213 OFFCURVE",
"327 224 OFFCURVE",
"332 229 CURVE",
"329 231 OFFCURVE",
"326 229 OFFCURVE",
"323 222 CURVE",
"331 250 OFFCURVE",
"358 272 OFFCURVE",
"381 293 CURVE",
"382 278 OFFCURVE",
"382 255 OFFCURVE",
"380 223 CURVE SMOOTH",
"377 182 OFFCURVE",
"376 155 OFFCURVE",
"376 141 CURVE SMOOTH",
"375 94 OFFCURVE",
"381 58 OFFCURVE",
"393 34 CURVE SMOOTH",
"408 3 OFFCURVE",
"434 -13 OFFCURVE",
"471 -13 CURVE"
);
},
{
closed = 1;
nodes = (
"714 97 OFFCURVE",
"736 104 OFFCURVE",
"750 104 CURVE SMOOTH",
"755 104 OFFCURVE",
"759 103 OFFCURVE",
"761 100 CURVE",
"761 100 OFFCURVE",
"781 106 OFFCURVE",
"820 116 CURVE SMOOTH",
"842 122 OFFCURVE",
"854 131 OFFCURVE",
"855 145 CURVE",
"874 141 LINE",
"877 152 OFFCURVE",
"881 160 OFFCURVE",
"887 167 CURVE",
"882 230 OFFCURVE",
"841 276 OFFCURVE",
"765 303 CURVE",
"729 309 LINE",
"710 317 OFFCURVE",
"696 324 OFFCURVE",
"687 329 CURVE",
"680 330 OFFCURVE",
"673 331 OFFCURVE",
"665 331 CURVE SMOOTH",
"626 331 OFFCURVE",
"607 322 OFFCURVE",
"606 303 CURVE",
"619 294 OFFCURVE",
"641 284 OFFCURVE",
"674 273 CURVE SMOOTH",
"707 262 OFFCURVE",
"729 252 OFFCURVE",
"742 245 CURVE SMOOTH",
"759 236 OFFCURVE",
"767 223 OFFCURVE",
"767 206 CURVE SMOOTH",
"767 188 OFFCURVE",
"757 166 OFFCURVE",
"736 139 CURVE SMOOTH",
"730 132 OFFCURVE",
"713 113 OFFCURVE",
"684 83 CURVE"
);
}
);
vertWidth = 1000;
width = 1000;
}
);
note = cid00894;
unicode = 3075;
},
